<svg width="203" height="339" viewBox="0 0 203 339" fill="none" xmlns="http://www.w3.org/2000/svg">
<path fill-rule="evenodd" clip-rule="evenodd" d="M176.767 203.72C174.485 194.842 172.386 191.077 168.333 187.992C164.541 185.105 159.005 182.681 150.927 180.91C142.515 179.436 142.276 175.05 140.167 168.001C139.551 165.882 136.503 165.317 135.186 166.845C135 166.644 134.807 166.46 134.607 166.295C134.787 165.283 133.319 162.387 133.368 161.42C133.88 151.33 130.589 146.263 122.377 144.381C120.591 143.97 108.459 143.728 106.718 144.212C99.1048 146.323 91.6102 153.027 92.7573 161.101C90.3674 164.233 88.0285 166.146 84.3417 167.154C78.6001 167.885 81.4844 249.472 91.4561 298.351C95.7346 319.322 198.037 283.628 193.414 273.124C194.069 271.199 192.875 269.084 193.414 267.094C193.803 265.656 194.803 265.061 195.306 263.637C196.013 261.632 195.244 258.941 194.448 256.895C194.121 255.877 195.048 254.778 195.306 253.738C196.528 248.83 193.73 249.263 191.71 245.983C191.74 245.972 192.265 243.63 192.263 243.641C192.571 241.969 191.798 239.827 191.122 238.432C190.667 237.489 189.689 236.898 188.718 237.007C189.696 233.675 190.932 230.903 192.263 227.694C194.616 222.038 196.854 216.12 200.232 211C201.615 208.902 200.498 206.974 198.259 206.831C191.012 206.371 183.845 205.324 176.767 203.72Z" fill="#D08B5B"/>
<path fill-rule="evenodd" clip-rule="evenodd" d="M165.456 204.406L148.913 232.487C148.913 232.487 152.837 232.88 154.425 233.645C156.014 234.41 163.306 243.71 163.306 243.71L164.464 248.83L161.719 252.959L162.79 255.55C162.79 255.55 163.554 253.795 165.456 252.431C167.357 251.068 171.551 248.83 171.551 248.83C171.551 248.83 170.157 248.082 170.157 247.204C170.157 246.325 168.93 242.579 171.551 241.165C174.173 239.749 187.72 236.438 187.72 236.438L201.45 207.389L165.456 204.406Z" fill="#AFAFAF"/>
<path fill-rule="evenodd" clip-rule="evenodd" d="M91.6579 167.346L144.185 176.592L168.331 187.992L172.274 191.037L148.911 232.488L112.838 239.09L103.647 263.035L105.523 290.026L164.208 283.008L189.521 279.991L195.472 304.088L194.397 314.001L192.834 319.026L130.08 336.022C130.08 336.022 98.124 332.915 92.4593 332.915C86.7948 332.915 45.263 337.051 45.263 337.051L35.6536 336.022C35.6536 336.022 14.3931 313.545 11.0955 305.545C7.79806 297.546 0.66748 248.918 0.66748 248.918L1.45259 241.447L19.8213 194.029C19.8213 194.029 22.2742 191.796 25.3665 187.992C28.459 184.187 91.6579 167.346 91.6579 167.346Z" fill="#003D85"/>
<path fill-rule="evenodd" clip-rule="evenodd" d="M186.727 235.839C181.98 236.081 177.227 237.214 172.934 239.264C171.177 240.105 169.585 241.318 169.119 243.314C168.883 244.334 168.941 245.387 169.067 246.418C169.161 247.197 169.185 248.192 169.86 248.72C169.975 248.809 170.098 248.879 170.227 248.927C168.642 249.646 167.134 250.507 165.793 251.395C164.568 252.205 163.309 253.456 162.743 254.868C162.696 254.707 162.649 254.558 162.602 254.415C161.638 251.558 160.153 249.216 157.815 247.643C157.549 246.672 154.7 242.495 152.054 242.652C149.155 242.824 146.824 243.036 144.203 244.373C143.247 244.353 142.294 244.365 141.351 244.408C141.189 244.412 141.197 244.634 141.351 244.651C142.116 244.749 142.88 244.856 143.645 244.983C145.462 245.274 147.274 245.645 149.046 246.103C151.172 246.657 153.372 247.21 155.359 248.175C159.214 250.048 161.599 254.943 161.109 259.203C161.029 259.903 160.758 262.015 159.792 261.796C158.975 261.612 158.651 259.903 158.365 259.269C157.601 257.588 156.223 256.491 154.571 255.748C152.631 254.872 150.555 254.281 148.543 253.593C147.406 253.202 146.266 252.81 145.124 252.421C143.956 252.02 142.847 251.465 141.602 251.747C140.851 251.916 140.764 252.815 141.186 253.331C141.828 254.116 142.781 254.347 143.705 254.67C144.926 255.095 146.144 255.521 147.36 255.947C149.243 256.602 151.215 257.157 153.05 257.962L152.992 258.092C152.843 258.05 152.667 258.201 152.697 258.384C152.972 260.083 153.354 262.048 152.929 263.751C152.595 265.101 151.413 266.595 149.879 266.198C150.119 265.978 150.209 265.598 150.047 265.246C149.439 263.943 141.48 258.799 140.771 260.709C140.747 260.776 140.819 260.827 140.878 260.817C141.483 260.69 142.496 261.725 142.98 262.054C143.678 262.527 144.388 262.989 145.08 263.475C145.837 264.006 146.574 264.562 147.296 265.137C147.861 265.59 148.287 266.06 148.936 266.287C148.597 266.451 148.326 266.753 148.212 267.139C147.918 268.145 147.352 268.998 146.37 269.443C145.342 269.905 144.182 269.613 143.098 269.726C141.621 269.877 140.332 270.581 139.256 271.586C136.998 273.703 135.863 277.434 132.703 278.433C130.815 279.031 128.721 278.655 126.81 278.385C124.676 278.081 122.597 277.843 120.447 278.158C118.388 278.46 116.443 279.175 114.563 280.047C112.8 280.863 110.853 281.788 109.289 283.006C108.968 282.012 108.643 281.026 108.396 280.01C107.815 277.607 107.501 275.158 107.425 272.69C107.355 270.339 107.486 267.977 107.687 265.637C107.787 264.468 107.944 263.303 108.043 262.136C108.069 261.84 108.122 261.526 108.161 261.21C110.952 259.558 113.884 258.292 116.84 256.989C116.848 256.987 116.856 256.981 116.864 256.98C116.957 256.937 117.045 256.898 117.137 256.859C117.134 256.852 117.131 256.848 117.126 256.843C117.464 256.635 117.7 256.359 117.841 256.049C122.102 253.214 125.663 249.345 128.317 244.832C129.429 242.942 130.501 240.979 131.956 239.322C133.507 237.555 135.348 236.503 137.625 235.956C140.288 235.317 143.032 234.933 145.76 234.715C147.25 234.597 148.916 234.413 150.539 234.421C151.671 234.429 152.777 234.525 153.794 234.806C155.299 235.221 156.179 236.37 157.124 237.531C158.027 238.645 158.926 239.761 159.768 240.922C160.567 242.022 161.321 243.16 161.976 244.353C162.369 245.066 162.732 245.802 163.039 246.561C163.147 246.829 163.288 247.134 163.353 247.412C163.419 247.694 163.298 247.991 163.612 247.991C162.316 248.008 161.455 251.25 162.743 251.175C164.555 251.069 165.465 248.891 165.11 246.958C164.477 243.509 161.057 239.344 160.381 238.463C158.887 236.514 157.344 233.972 154.952 233.065C154.917 233.052 154.881 233.04 154.846 233.029C155.543 232.366 156.093 231.574 156.619 230.767C157.161 229.936 157.807 228.985 157.986 228C158.098 227.373 157.32 227.016 156.951 227.565C156.415 228.366 156.156 229.38 155.755 230.26C155.346 231.152 154.85 231.996 154.457 232.897C153.511 232.606 152.489 232.472 151.451 232.427C152.763 230.646 155.004 227.21 155.272 226.77C156.514 224.725 157.696 222.619 158.824 220.509C160.043 218.224 161.088 215.845 162.256 213.533C162.919 212.222 163.587 210.901 164.322 209.629C164.576 209.193 164.849 208.757 165.157 208.361C165.218 208.283 165.294 208.217 165.364 208.143C165.446 208.097 165.529 208.049 165.577 208.022C166.001 207.778 166.15 207.211 166.449 206.851C166.925 206.27 167.484 206.202 168.202 206.194C169.732 206.178 171.265 206.238 172.793 206.281C175.037 206.343 177.278 206.433 179.519 206.551C180.198 206.587 180.873 206.625 181.551 206.667C184.811 206.86 188.068 207.115 191.317 207.428C194.192 207.704 197.067 208.154 199.945 208.369C196.049 217.655 191.729 226.771 186.837 235.571C186.787 235.661 186.751 235.749 186.727 235.839ZM165.11 259.761C164.481 260.05 163.871 260.409 163.304 260.819C163.398 260.181 163.422 259.508 163.395 258.834C163.864 259.337 164.464 259.626 165.11 259.761ZM191.935 243.787C191.891 243.793 191.848 243.817 191.828 243.861C190.959 245.66 191.322 247.67 192.743 249.08C193.486 249.815 195.106 250.647 195.054 251.853C195.009 252.831 193.95 253.651 193.495 254.457C193.074 255.209 192.917 256.034 193.255 256.848C193.687 257.891 194.894 258.306 195.307 259.331C195.832 260.63 194.98 262.198 194.383 263.33C193.829 264.378 193.11 265.426 192.634 266.534C189.443 268.192 182.201 271.203 181.329 271.371C180.265 271.579 179.2 271.775 178.131 271.959C176.082 272.316 174.026 272.647 171.965 272.94C170.792 273.105 169.617 273.268 168.441 273.395C167.415 273.507 166.257 273.656 165.43 272.881C163.761 271.316 164.697 268.692 165.753 267.111C165.773 267.079 165.773 267.05 165.765 267.023C166.76 266.79 167.753 266.517 168.742 266.325C170.646 265.957 172.562 265.648 174.482 265.371C178.425 264.807 182.394 264.433 186.358 264.058C187.34 263.963 187.351 262.414 186.358 262.506C180.663 263.028 174.939 263.525 169.321 264.625C167.912 264.898 166.513 265.208 165.124 265.558C164.467 265.72 163.761 265.976 163.073 265.984C163.031 265.984 162.99 265.984 162.947 265.981C161.599 265.939 161.403 264.78 162.144 263.817C162.236 263.698 162.33 263.58 162.427 263.467C163.736 261.901 165.368 260.856 167.047 259.774C168.93 259.516 170.808 258.944 172.651 258.523C177.202 257.482 181.753 256.444 186.306 255.405C187.198 255.201 186.82 253.824 185.926 254.027C182.47 254.813 179.014 255.597 175.557 256.382L170.498 257.533C169.488 257.762 168.226 258.221 167.038 258.388C166.45 258.468 165.883 258.479 165.369 258.358C163.713 257.965 163.628 255.886 164.343 254.652C165.144 253.265 166.658 252.397 168.001 251.613C170.329 250.249 172.805 249.27 175.225 248.14C175.654 248.046 176.083 247.951 176.514 247.856C179.011 247.304 181.865 247.034 184.216 246.023C184.921 245.723 184.536 244.609 183.84 244.625C182.014 244.666 180.106 245.316 178.323 245.703C176.393 246.122 174.46 246.54 172.53 246.958C172.337 246.999 171.19 247.367 171.017 247.287C170.907 247.233 170.868 246.85 170.832 246.598C170.714 245.769 170.627 244.896 170.756 244.064C171.039 242.195 172.592 241.318 174.161 240.602C177.66 239.007 181.496 238.009 185.314 237.61C186.193 237.517 187.073 237.46 187.958 237.43C188.998 237.399 189.854 237.215 190.381 238.243C191.207 239.86 191.663 241.941 191.935 243.787ZM187.077 302.453C186.315 299.81 186.523 296.986 186.001 294.288C185.731 292.897 185.363 291.516 184.961 290.158C184.637 289.06 184.096 287.894 184.035 286.748C184.032 286.671 184.122 286.627 184.183 286.662C185.259 287.281 186.084 288.615 186.697 289.663C187.431 290.919 187.992 292.231 188.445 293.612C189.345 296.364 190.085 299.681 188.924 302.453C188.578 303.28 187.362 303.445 187.077 302.453ZM157.331 322.474C156.195 321.679 155.367 320.568 154.403 319.586C153.457 318.621 154.938 317.136 155.885 318.101C156.707 318.937 157.421 319.982 158.389 320.659C158.854 320.984 159.069 321.574 158.764 322.097C158.494 322.559 157.795 322.799 157.331 322.474ZM150.996 291.912C153.071 291.013 155.109 290.034 157.279 289.387C158.577 288.998 159.126 291.027 157.837 291.412C155.838 292.009 153.963 292.899 152.054 293.727C150.828 294.258 149.763 292.448 150.996 291.912ZM129.099 291.283C128.592 290.028 130.619 289.487 131.119 290.724C131.694 292.149 132.354 293.537 132.929 294.961C133.435 296.216 131.408 296.757 130.908 295.52C130.333 294.095 129.675 292.707 129.099 291.283ZM107.486 316.347C107.149 316.799 106.585 317.043 106.053 316.724C105.608 316.457 105.336 315.743 105.678 315.286C106.676 313.952 107.688 312.633 108.858 311.442C109.806 310.477 111.287 311.966 110.339 312.929C109.294 313.991 108.378 315.154 107.486 316.347ZM104.396 175.715C105.357 176.374 106.2 177.174 107.021 177.997C107.976 178.954 106.494 180.441 105.54 179.484C104.847 178.789 104.149 178.085 103.339 177.529C102.87 177.208 102.66 176.611 102.963 176.091C103.234 175.626 103.928 175.395 104.396 175.715ZM135.839 209.53C135.296 210.623 134.807 211.693 134.776 212.934C134.743 214.286 132.648 214.286 132.682 212.934C132.722 211.309 133.319 209.901 134.031 208.47C134.634 207.258 136.44 208.324 135.839 209.53ZM147.376 182.372C148.502 181.619 149.549 183.439 148.433 184.186C147.528 184.791 146.623 185.397 145.719 186.002C144.593 186.755 143.546 184.934 144.662 184.187C145.567 183.582 146.471 182.977 147.376 182.372ZM97.3362 229.856C97.144 231.192 95.1258 230.62 95.3161 229.298C95.6107 227.254 95.9701 225.236 96.523 223.245C96.8847 221.942 98.9049 222.5 98.5427 223.804C97.99 225.795 97.6306 227.811 97.3362 229.856ZM89.9915 253.928C88.6433 253.9 88.643 251.797 89.9915 251.827C91.2116 251.852 92.4111 252.174 93.5879 252.469C94.8971 252.796 94.339 254.824 93.031 254.495C92.0361 254.245 91.0231 253.95 89.9915 253.928ZM87.2811 302.417C86.818 302.644 86.3428 302.846 85.8745 303.062C84.937 303.492 83.9999 303.923 83.063 304.353C81.1114 305.252 79.1607 306.154 77.2117 307.059C73.3104 308.871 69.379 310.619 65.4682 312.41C61.4802 314.238 57.5027 316.091 53.53 317.951C51.6586 318.828 49.7728 319.672 47.8907 320.525C46.2815 321.256 44.2923 322.532 42.5258 322.652C42.4348 322.658 42.4045 322.543 42.4563 322.483C43.1237 321.721 44.1884 321.28 45.0655 320.785C45.9615 320.279 46.8742 319.803 47.7829 319.32C49.677 318.313 51.5734 317.315 53.4859 316.344C57.3113 314.401 61.144 312.473 64.9775 310.548C68.8873 308.584 72.792 306.607 76.7361 304.712C78.5929 303.821 80.4517 302.931 82.3115 302.045C83.3191 301.564 84.3271 301.085 85.3352 300.607C85.7706 300.399 86.2017 300.176 86.6467 299.992C87.2382 299.746 87.6878 299.796 88.2979 299.645C89.2928 299.398 89.7235 300.668 88.9598 301.221C88.3309 301.676 87.9999 302.065 87.2811 302.417ZM73.2973 323.964C73.0824 323.441 73.5324 322.802 74.0289 322.672C74.6235 322.515 75.1003 322.876 75.3173 323.406C75.8915 324.806 76.7095 326.093 77.7624 327.179C78.7034 328.149 77.2231 329.635 76.2811 328.664C74.9617 327.303 74.0139 325.713 73.2973 323.964ZM63.0097 290.234C62.0547 289.277 63.5361 287.79 64.4908 288.749L67.2055 291.472C68.1605 292.429 66.6788 293.916 65.7243 292.957L63.0097 290.234ZM35.1573 285.794C33.2055 286.368 30.9292 286.896 29.5985 288.566C29.5336 288.648 29.4244 288.543 29.4635 288.463C31.167 284.919 36.0522 283.676 39.4347 282.436C41.827 281.557 44.2818 280.828 46.7571 280.179C46.5096 277.346 47.192 274.31 47.4293 271.491C47.6824 268.481 47.8885 265.462 47.9942 262.444C48.1025 259.364 48.1286 256.263 48.0275 253.183C47.927 250.114 47.5298 247.082 47.3559 244.023C47.3392 243.727 47.7497 243.713 47.8382 243.957C48.8662 246.796 49.3053 249.941 49.6399 252.933C49.9845 256.018 50.0989 259.092 50.0549 262.194C50.0093 265.382 49.8245 268.563 49.5707 271.742C49.4507 273.249 49.3111 274.753 49.1794 276.258C49.0788 277.407 49.0322 278.548 48.7987 279.659C50.2916 279.293 51.7881 278.944 53.2797 278.606C58.0361 277.53 62.8126 276.53 67.5492 275.366C69.8742 274.795 72.166 274.11 74.4807 273.502C76.6602 272.93 78.9606 272.235 81.1984 271.981C81.9969 271.89 82.0986 272.985 81.5699 273.358C79.7513 274.638 77.3357 275.531 75.2351 276.247C73.1268 276.967 70.9353 277.484 68.7743 278.017C64.2678 279.13 59.7187 280.038 55.1765 280.985C50.6404 281.931 46.0957 282.87 41.6107 284.037C39.4509 284.6 37.2983 285.164 35.1573 285.794ZM24.4631 229.576C23.2969 230.263 22.244 228.446 23.4059 227.761C24.9265 226.865 26.547 226.193 28.1806 225.537C29.4343 225.035 29.9736 227.067 28.7375 227.563C27.2694 228.152 25.8293 228.772 24.4631 229.576ZM20.2394 307.646C19.0701 308.326 18.0164 306.509 19.1823 305.832C20.8199 304.88 22.6131 304.245 24.3102 303.41C25.5174 302.818 26.5778 304.631 25.3671 305.225C23.6704 306.058 21.8769 306.693 20.2394 307.646ZM18.3404 263.33C19.4711 264.408 20.9801 264.914 22.4029 265.48C23.6434 265.973 23.0993 268.005 21.8459 267.507C20.0733 266.801 18.2677 266.157 16.8593 264.815C15.8795 263.882 17.3633 262.398 18.3404 263.33ZM30.8489 203.146C32.0918 203.634 31.5475 205.666 30.292 205.171C28.8995 204.623 27.4615 204.206 26.0691 203.658C24.8264 203.169 25.3704 201.139 26.6261 201.632C28.0184 202.179 29.4564 202.597 30.8489 203.146ZM52.9143 179.24C54.235 179.017 54.7974 181.041 53.4713 181.266C51.8259 181.546 50.2058 181.871 48.6451 182.477C47.385 182.966 46.8442 180.933 48.0882 180.45C49.649 179.845 51.2692 179.518 52.9143 179.24ZM60.2049 237.443C58.9939 236.846 60.0566 235.035 61.262 235.629C62.5324 236.255 63.8487 236.741 65.2349 237.036C66.5548 237.319 65.9927 239.343 64.678 239.063C63.118 238.728 61.6335 238.149 60.2049 237.443ZM67.0906 204.659C68.3945 204.301 68.9459 206.328 67.6476 206.684C65.3631 207.313 63.0109 207.638 60.7097 208.198C59.3981 208.517 58.8434 206.49 60.1527 206.172C62.454 205.613 64.8063 205.286 67.0906 204.659ZM96.3027 194.37C97.6285 194.616 97.0636 196.641 95.7459 196.396C94.3434 196.135 92.9218 196.132 91.4998 196.13C90.1497 196.13 90.1521 194.029 91.4998 194.029C93.1152 194.031 94.7101 194.073 96.3027 194.37ZM191.573 205.349C188.152 205.02 184.725 204.758 181.291 204.56C181.131 204.552 180.975 204.541 180.815 204.533C180.796 204.497 180.773 204.462 180.749 204.426C179.629 202.776 178.804 201.126 178.09 199.262C177.407 197.487 176.743 195.656 175.691 194.053C174.49 192.227 172.87 190.798 171.094 189.562C170.016 190.288 169.016 191.139 168.102 192.041C167.139 192.991 165.657 191.504 166.62 190.555C167.432 189.753 168.301 189.013 169.218 188.344C168.158 187.698 167.079 187.091 166.024 186.488C162.072 184.226 158.027 182.135 153.899 180.224C151.979 179.333 150.036 178.542 148.081 177.741C147.028 177.31 145.988 176.756 144.935 176.258C145.012 175.511 144.789 174.675 144.219 174.185C143.797 173.825 143.469 173.69 142.968 173.435C142.855 173.396 142.787 173.372 142.756 173.36C142.779 173.364 142.847 173.386 142.958 173.423C143.225 173.547 143.247 173.509 143.023 173.314C143.009 172.89 142.174 171.991 141.982 171.553C141.318 170.047 141.11 168.455 140.128 167.085C138.775 165.196 136.503 164.481 134.384 165.122C134.164 162.85 134.106 160.478 133.253 158.45C133.229 158.395 133.154 158.371 133.119 158.432C132.23 159.953 132.153 161.648 132.085 163.401C132.019 165.048 132.082 166.733 132.297 168.369C132.161 168.474 132.022 168.575 131.878 168.67C131.202 169.117 130.474 169.461 129.711 169.717C128.254 170.199 126.728 170.41 125.202 170.484C121.261 170.673 117.2 170.273 113.325 169.596C109.406 168.909 103.396 167.88 99.9081 165.913C97.6064 164.616 95.4832 163.032 93.3307 161.497C94.1111 158.976 94.3102 156.265 93.5246 154.134C93.4303 153.88 93.0324 153.833 92.9565 154.134C92.4642 156.168 92.3202 158.211 91.6656 160.221C91.6552 160.249 91.6447 160.282 91.6341 160.31C91.43 160.17 91.2257 160.034 91.0216 159.897C90.5501 159.584 89.9087 159.818 89.6259 160.265C85.1039 167.413 77.9428 167.822 70.423 169.099C62.1931 170.497 53.9221 172.004 46.0094 174.738C38.4425 177.354 31.2105 181.164 25.4816 186.854C24.1848 188.141 22.9719 189.515 21.8272 190.946C22.9348 191.086 24.0331 191.304 25.1174 191.647C26.4012 192.051 25.8494 194.08 24.5605 193.673C23.1669 193.234 21.7581 193.016 20.3347 192.909C16.4419 198.25 13.4068 204.308 10.7823 210.271C5.74788 221.701 2.47104 233.876 0.96305 246.272C1.79106 245.773 2.63385 245.299 3.49769 244.859C4.69798 244.246 5.75653 246.059 4.55497 246.672C3.22063 247.354 1.92464 248.104 0.668868 248.918C0.120266 254.343 -0.0923538 259.804 0.0365073 265.255C0.342788 278.253 2.09184 291.631 6.04819 304.031C7.98834 310.118 10.5596 316.154 14.3902 321.297C16.1236 323.628 18.0926 325.729 20.4124 327.481C21.5357 328.331 22.7245 329.09 23.9787 329.731C25.5942 330.561 27.6994 330.834 29.0923 332.008C29.5506 332.395 29.904 332.904 30.171 333.479C30.0165 334.573 29.9983 335.668 30.2967 336.76C30.391 337.103 30.6476 337.381 30.9644 337.515C30.9696 337.609 30.9696 337.7 30.9696 337.79C30.9696 337.832 31.0325 337.843 31.0403 337.801C31.0534 337.719 31.0666 337.637 31.0796 337.554C31.1818 337.589 31.2891 337.604 31.3991 337.604C35.3764 337.618 39.3586 337.521 43.3411 337.386C43.0332 336.44 42.6996 335.502 42.3793 334.556C41.9445 333.27 43.9682 332.723 44.3991 333.996C44.7739 335.102 45.1656 336.199 45.5141 337.31C49.7811 337.15 54.0471 336.96 58.3053 336.818C67.362 336.517 76.4164 336.416 85.4755 336.224C99.5442 335.926 113.715 335.313 127.806 335.912C128.293 334.875 128.839 333.861 129.356 332.838C129.965 331.629 131.772 332.695 131.164 333.899C130.804 334.609 130.432 335.311 130.078 336.022C132.932 336.169 135.783 336.366 138.629 336.635C143.483 337.092 148.29 337.903 153.14 338.407C158.07 338.923 162.892 338.83 167.783 338.014C168.663 337.867 169.182 337.332 169.397 336.671C169.405 336.669 169.409 336.663 169.414 336.655C169.666 336.361 169.901 336.118 170.145 335.904C170.436 335.715 170.75 335.555 171.119 335.414C171.807 335.15 172.526 334.989 173.253 334.882C174.055 334.761 174.866 334.75 175.667 334.651C176.343 334.565 177.003 334.436 177.663 334.279C178.849 333.995 179.974 333.624 181.095 333.133C182.072 332.704 182.954 332.09 183.787 331.42C185.509 330.157 187.002 328.545 188.306 326.868C189.065 325.889 189.78 324.872 190.429 323.813C191.561 321.981 192.524 320.076 193.499 318.156C193.852 317.587 194.174 317.004 194.47 316.408C192.565 315.846 190.645 315.388 188.625 315.355C187.277 315.333 187.277 313.232 188.625 313.254C190.94 313.29 193.129 313.832 195.304 314.48C195.411 314.197 195.512 313.913 195.606 313.623C195.865 313.023 196.08 312.406 196.258 311.78C196.363 311.497 196.467 311.213 196.572 310.928C196.808 309.946 197.044 308.962 197.283 307.977C197.756 306.401 198.13 304.801 198.405 303.181C198.636 302.114 198.813 301.039 198.934 299.952C199.3 297.318 199.599 294.689 199.619 292.025C199.588 290.383 199.484 288.744 199.307 287.113C199.23 286.005 199.102 284.902 198.93 283.806C198.703 282.177 198.482 280.564 198.106 278.957C197.826 277.869 197.547 276.782 197.267 275.694C196.568 273.428 195.743 271.205 194.792 269.033C194.74 268.896 194.474 268.598 194.316 268.594C194.195 268.591 194.027 268.701 194.082 268.849C194.088 268.862 194.093 268.877 194.099 268.891C194.044 268.767 193.99 268.642 193.935 268.517C193.888 268.403 193.706 268.172 193.565 268.175C193.557 268.175 193.547 268.175 193.538 268.176C193.574 268.151 193.609 268.117 193.643 268.077C194.583 266.96 195.193 265.492 195.865 264.199C196.423 263.133 196.95 262.008 197.102 260.803C197.234 259.745 197.055 258.702 196.392 257.845C195.637 256.871 194.218 256.414 195.007 255.006C195.903 253.404 197.22 252.014 195.908 250.194C195.24 249.267 194.182 248.758 193.396 247.951C192.493 247.018 192.064 245.77 192.087 244.497C192.142 244.529 192.216 244.513 192.241 244.433C193 242.132 192.45 239.605 191.674 237.364C191.25 236.15 190.351 235.815 189.306 235.755C193.83 226.891 198.065 217.883 201.838 208.668C201.964 208.366 202.087 208.064 202.209 207.763C202.393 207.31 202.005 206.708 201.557 206.609C198.295 205.891 194.897 205.663 191.573 205.349Z" fill="white"/>
<path fill-rule="evenodd" clip-rule="evenodd" d="M156.487 103.74C154.694 81.7611 149.233 62.2944 123.574 61.4644C111.995 61.5684 100.175 64.0414 89.5264 68.6172C63.6448 81.663 55.433 129.333 78.2353 148.522C78.0997 148.599 78.0671 148.824 78.2273 148.933C82.9382 152.118 88.1746 154.741 93.4191 156.942C107.389 162.879 123.833 165.46 138.08 159.018C159.823 149.718 160.149 123.838 156.487 103.74Z" fill="#D08B5B"/>
<mask id="path-6-inside-1_40_41" fill="white">
<path fill-rule="evenodd" clip-rule="evenodd" d="M199.285 93.4966C200.178 92.6876 200.844 91.6264 201.182 90.4364C201.49 89.3516 201.51 88.1671 201.183 87.0848C200.834 85.9238 200.079 84.9991 200.248 83.7908C200.267 83.6726 200.291 83.5493 200.327 83.4258C200.981 81.151 202.587 79.5093 202.013 76.9876C201.85 76.2759 201.545 75.6348 201.119 75.1306C201.166 74.5842 201.207 74.0326 201.241 73.481C202.184 71.2614 202.151 68.6242 201.146 66.4387C201.021 65.3197 200.836 64.2113 200.575 63.1212C200.696 62.1571 200.528 61.096 200.22 60.2528C199.678 58.7691 199.008 57.3072 198.282 55.8693C198.367 55.4761 198.329 55.0604 198.114 54.691C197.721 54.0193 197.203 53.4288 196.673 52.8517C196.298 52.1785 195.92 51.5108 195.545 50.8517C195.372 50.5489 195.18 50.2129 194.97 49.857C195.545 48.7836 195.851 47.7377 195.243 46.4756C195.015 46.0015 194.387 45.6518 193.868 45.6828C193.302 45.7167 192.732 45.7422 192.158 45.764C191.085 44.4616 189.87 43.2924 188.567 42.6195C187.247 41.4953 185.91 40.3921 184.609 39.2652C184.24 38.9448 183.869 38.6242 183.501 38.3038C183.498 38.2959 183.495 38.2854 183.493 38.2775C183.221 37.282 182.915 36.2997 182.61 35.312C182.418 34.6999 182.362 34.0591 181.768 33.7254C180.529 33.0293 178.625 32.919 177.204 32.8008C177.063 32.6747 176.921 32.5512 176.78 32.4252C177.426 30.6967 177.311 28.8608 176.499 27.1296C176.22 26.5413 175.26 26.276 174.732 26.6648C173.514 27.563 172.069 27.881 170.64 27.7496C168.539 26.1262 160.066 18.7856 158.757 18.0108C158.741 17.9828 158.727 17.955 158.711 17.9275C157.974 16.7459 157.08 15.7972 156.076 15.0365C155.933 14.8859 155.788 14.7352 155.645 14.5844C155.771 13.6838 156.104 12.8141 156.638 12.0864C156.695 12.0024 156.761 11.9209 156.827 11.8421C157.762 10.7231 156.619 9.28378 155.313 9.86947C155.219 9.91143 155.125 9.95354 155.031 9.99817C154.026 10.4484 152.915 10.9378 151.759 11.3507C151.334 11.1912 150.902 11.0468 150.509 10.8876L146.293 9.18368C145.599 8.90317 144.866 8.66541 144.194 8.33571C143.96 6.77052 142.401 5.74387 140.779 5.79746C140.873 5.49699 141.013 5.20517 141.209 4.92859C141.266 4.84719 141.329 4.7683 141.395 4.69224C142.228 3.71761 141.115 1.91041 139.924 2.77724C139.841 2.83774 139.754 2.89808 139.671 2.95859C139.339 3.19211 139 3.41117 138.657 3.62332C138.109 3.38273 137.491 3.32788 136.845 3.58246C135.414 4.14584 134.094 4.71864 132.835 5.60181C132.783 5.6378 132.73 5.66797 132.678 5.70191C132.052 4.94226 131.059 4.4342 130.165 4.4397C130.148 4.4397 130.134 4.43955 130.116 4.43923C129.449 3.4151 128.223 2.81983 127.039 2.96456C127.12 1.49491 125.655 0.183357 124.322 0.0240094C122.767 -0.162006 121.363 0.746575 120.897 2.27326C120.766 2.69819 120.636 3.12343 120.505 3.54883C119.297 2.93548 118.022 2.46546 116.69 2.23099C113.655 1.69669 110.688 2.26557 107.764 3.11243C107.472 3.19698 107.18 3.28404 106.888 3.37063C106.471 2.88504 106.08 2.38783 105.706 1.92361C105.061 1.12247 103.511 1.76332 103.616 2.79311C103.689 3.50357 103.401 4.01478 102.939 4.3781C102.432 4.45259 101.941 4.47522 101.201 4.46029C100.223 4.44033 99.7779 4.40953 98.7552 4.00865C98.2787 3.82227 97.6853 3.33181 97.4075 2.89148C96.3428 1.2034 93.6383 0.748618 92.3502 2.35828C90.9946 1.76175 89.2833 2.58442 88.5307 3.74448C88.137 4.35091 87.3155 4.69004 86.2814 4.98171C85.5051 5.20014 84.7114 5.36562 83.9139 5.51035C83.5585 5.02571 82.8102 4.70088 82.2613 5.10727C81.8895 5.38322 81.5284 5.66671 81.1723 5.95728C78.4263 6.33758 75.6944 6.35125 73.0762 5.27479C70.8594 4.36333 68.8241 6.85271 69.1899 8.94246C68.5478 9.27844 67.8513 9.50206 67.2172 9.85392C65.8337 10.6225 64.6977 11.8374 64.0053 13.2648C63.8811 13.5203 63.7691 13.7799 63.6622 14.0406C63.1451 14.4638 62.6337 14.8984 62.1348 15.3568C61.3038 14.9285 60.4756 14.5005 59.6447 14.0722C59.0228 13.7518 57.9751 13.9751 57.8523 14.8052C57.651 16.1709 57.1624 17.3032 56.4649 18.2514C54.1969 19.4492 52.0152 20.7941 49.9275 22.2887C47.5265 23.0452 44.9736 23.4865 42.8755 23.9829C42.157 24.1536 41.7651 25.0966 42.1701 25.7244C42.5986 26.389 43.0272 27.0536 43.453 27.7182C42.2589 28.8897 41.1381 30.1137 40.0799 31.3797C37.1352 34.8995 34.6713 38.7582 32.466 42.8453C31.5934 43.2 30.7208 43.552 29.848 43.9066C29.0068 44.248 28.6279 45.2305 29.3097 45.9528C29.6338 46.2969 29.9237 46.6595 30.172 47.0402C28.9362 49.097 27.4809 50.9726 25.4453 52.2018C24.8262 52.5748 24.361 53.1605 24.1129 53.8251C23.9012 53.967 23.6922 54.1193 23.4858 54.2744C22.911 54.7103 22.5634 55.6612 23.2376 56.226C23.7104 56.6253 24.1547 57.098 24.5309 57.6208C24.612 57.9175 24.6956 58.2171 24.7792 58.5139C22.8874 60.2633 21.3145 62.2963 20.1336 64.5764C19.854 64.5317 19.5666 64.5606 19.334 64.734C17.2229 66.3022 17.1602 68.8002 18.0092 71.0328C17.4973 74.3976 17.8263 77.8465 18.814 81.1064C17.5155 82.4092 16.7343 84.2899 16.4155 86.1025C15.8537 89.2859 15.8145 94.1822 15.6682 97.4315C14.252 98.8053 13.2434 100.584 12.6818 102.496C12.2088 102.732 11.7359 102.969 11.2631 103.205C10.8424 103.415 10.534 103.969 10.5601 104.437C10.6804 106.699 11.6078 108.485 12.8385 110.103C13.2749 111.351 13.9203 112.501 14.7668 113.604C15.352 114.361 15.9242 115.086 16.4285 115.903C16.4808 115.984 16.5121 116.06 16.5357 116.113C16.337 116.328 16.1725 116.685 16.0287 116.94C14.8217 119.078 14.8034 121.584 16.5174 123.447C15.872 123.977 15.8511 125.049 16.4206 125.706C20.1282 129.963 23.2193 135.141 28.3639 137.402C28.3874 137.442 28.4083 137.481 28.4266 137.521C27.3841 140.042 27.2431 141.353 28.0948 143.959C28.1 143.983 28.1079 144.003 28.1157 144.027C28.5704 145.393 29.4064 147.582 30.9141 148.006C31.3896 148.141 31.8573 148.201 32.3197 148.198C33.5164 149.357 34.7104 150.517 35.9046 151.678C36.0091 152.254 36.0743 152.835 36.0952 153.42C36.1292 154.4 37.0463 155.194 38.034 154.905C38.3816 154.803 40.3046 152.923 40.6572 152.934C40.835 153.113 41.0073 153.291 41.1799 153.473C41.8148 154.143 42.6953 155.199 42.7685 155.899C42.9095 157.221 43.7717 158.734 45.1644 159.002C45.6869 159.536 46.5231 159.696 47.1631 159C47.2049 158.954 47.2467 158.91 47.2912 158.871C47.3591 158.863 47.4245 158.855 47.4924 158.848C47.8007 159.772 48.109 160.696 48.42 161.618C49.0288 163.436 51.3541 164.605 53.0054 163.543C53.2719 163.703 53.5333 163.875 53.7946 164.046C54.1917 164.301 54.594 164.56 55.0069 164.805C55.0304 164.873 55.054 164.942 55.0749 165.006C55.3414 165.823 56.4492 166.262 57.1312 165.792C57.3429 165.861 57.5597 165.916 57.7791 165.96C58.9313 166.189 60.0915 166.125 61.2046 165.74C62.0015 165.467 62.7618 164.943 63.6189 164.873C63.6723 164.868 63.7275 164.873 63.7818 164.871C64.481 166.31 66.0787 167.552 67.3379 167.973C68.987 168.525 70.6749 168.328 72.1768 167.651C72.5821 168.467 73.0911 169.237 73.6991 169.95C74.0362 170.344 74.645 170.26 74.9924 169.95C75.6524 169.362 76.3082 168.771 76.9631 168.179C77.437 167.995 77.9154 167.775 78.4145 167.571C79.9753 166.93 81.6864 166.664 83.13 165.738C83.8153 165.298 84.46 164.737 84.991 164.087C85.991 163.507 86.91 162.783 87.7377 161.954C88.1506 161.957 88.5818 161.86 88.9998 161.646C90.7477 160.754 91.6675 158.937 91.7485 157.076C93.1647 153.728 94.0007 150.156 94.2306 146.499C94.3038 145.298 94.3169 144.087 94.2254 142.888C94.1627 142.041 93.951 141.476 93.6323 140.712C93.5252 140.463 93.4285 140.234 93.3528 139.982C93.371 139.173 93.3815 138.364 93.3919 137.557C93.6088 136.877 93.9955 136.244 94.5337 135.711C95.3672 134.886 95.7486 133.173 94.991 132.154C94.4971 131.495 94.0059 130.836 93.5121 130.176C93.6506 127.347 94.3247 122.845 92.8301 122.372C92.8903 121.952 93.0184 121.537 93.0914 121.119C93.4416 119.112 93.2326 117.318 92.1717 115.564C91.9496 115.199 91.7615 114.876 91.6073 114.56C91.5107 113.982 91.414 113.405 91.3174 112.827C91.1684 111.936 91.0221 111.038 90.8967 110.134C90.8313 108.984 90.7713 107.833 90.7059 106.68C90.6459 105.619 90.5779 104.558 90.5073 103.494C90.5361 103.018 90.5779 102.543 90.6381 102.068C90.996 99.2334 92.1482 98.1854 94.1445 96.2152C94.458 96.1654 94.7688 96.1102 95.0746 96.0472C96.4986 95.7504 97.9879 95.2907 99.4537 95.4562C101.045 95.6347 102.469 96.3257 104.016 95.443C104.47 95.1804 105.471 94.4553 105.557 93.8802C105.563 93.8434 105.57 93.8118 105.581 93.7882C105.688 93.7725 105.826 93.7593 105.913 93.7567C107.141 93.7147 108.314 94.2006 109.552 94.0667C111.018 93.9091 112.33 93.255 113.192 92.2857C114.298 92.5589 115.426 92.6824 116.573 92.53C117.535 92.4039 118.396 92.0887 119.248 91.6212C119.867 91.2849 119.672 91.1878 120.347 91.4609C121.88 92.086 123.266 92.9109 124.993 92.4826C125.891 92.262 126.664 91.7761 127.314 91.1221C127.468 90.9698 127.729 90.7411 127.905 90.5259C128.726 90.9434 130.789 91.8864 131.128 91.9705C132.09 92.2069 133.11 92.1701 134.045 91.855C134.732 91.6238 135.574 90.9934 136.178 90.8647C136.959 90.6965 138.693 91.7893 139.625 92.1649C141.261 92.8241 142.993 92.9871 144.651 92.3068C145.22 92.073 146.328 91.1404 146.754 91.1483C147.447 92.0073 149.38 96.7065 149.959 98.4217C152.309 105.356 152.917 127.008 151.833 132.533C151.792 132.695 151.746 132.855 151.702 133.018C150.37 137.823 148.982 142.708 146.754 147.184C144.651 151.403 141.742 155.202 137.57 157.506C133.242 159.896 128.163 160.523 123.298 160.199C120.166 159.995 117.086 159.361 114.054 158.568C112.47 158.156 110.9 157.697 109.338 157.218C108.656 157.01 107.964 156.817 107.295 156.575C106.114 156.146 105.494 156.113 104.363 156.662C103.334 157.161 103.07 158.634 103.605 159.561C104.478 161.074 106.077 161.18 107.621 161.621C109.194 162.071 110.773 162.501 112.36 162.886C115.404 163.622 118.498 164.187 121.618 164.447C127.204 164.918 132.961 164.192 138.044 161.742C138.62 161.462 139.174 161.167 139.71 160.846C139.511 161.125 139.31 161.403 139.105 161.679C138.541 162.443 138.959 163.743 139.751 164.161C140.003 164.293 140.252 164.418 140.507 164.541C140.54 164.623 140.578 164.704 140.619 164.786C141.343 166.246 142.858 167.109 144.403 167.481C146.237 167.923 148.291 167.61 150.156 167.555C151.884 167.502 153.615 167.45 155.342 167.396C155.75 167.387 156.157 167.373 156.564 167.36C158.618 167.297 160.669 167.236 162.721 167.173C164.549 167.118 164.464 167.261 166.18 166.524C166.946 166.194 167.573 165.726 168.101 165.104C168.429 164.957 168.748 164.789 169.054 164.598C170.037 163.982 170.909 163.158 171.713 162.248C173.081 162.682 174.996 162.28 175.262 160.554C175.691 157.793 179.26 156.614 180.927 154.619C182.272 153.008 183.234 150.899 183.184 148.873C186.576 147.223 188.42 142.877 188.852 139.189C189.053 137.479 189.022 135.648 189.311 133.909C189.44 133.77 189.554 133.623 189.652 133.465C190.504 132.081 191.245 130.654 191.897 129.194C192.787 128.55 193.855 128.154 194.973 128.088C197.721 127.928 198.24 124.2 195.619 123.302C195.606 123.297 195.595 123.294 195.583 123.289C196.293 121.503 196.233 119.388 195.37 117.697C195.407 117.513 195.441 117.332 195.476 117.148C196.947 115.559 197.79 113.35 197.696 111.198C198.367 110.723 199.12 110.355 199.943 110.126C201.215 109.774 201.223 108.214 200.283 107.516C199.904 107.234 199.59 106.906 199.329 106.544C199.98 104.579 199.723 102.307 198.394 100.694C199.238 99.6065 200.082 98.519 200.926 97.4315C201.485 96.7118 201.78 95.4903 200.926 94.8073C200.379 94.3687 199.833 93.9326 199.285 93.4966Z"/>
</mask>
<path fill-rule="evenodd" clip-rule="evenodd" d="M199.285 93.4966C200.178 92.6876 200.844 91.6264 201.182 90.4364C201.49 89.3516 201.51 88.1671 201.183 87.0848C200.834 85.9238 200.079 84.9991 200.248 83.7908C200.267 83.6726 200.291 83.5493 200.327 83.4258C200.981 81.151 202.587 79.5093 202.013 76.9876C201.85 76.2759 201.545 75.6348 201.119 75.1306C201.166 74.5842 201.207 74.0326 201.241 73.481C202.184 71.2614 202.151 68.6242 201.146 66.4387C201.021 65.3197 200.836 64.2113 200.575 63.1212C200.696 62.1571 200.528 61.096 200.22 60.2528C199.678 58.7691 199.008 57.3072 198.282 55.8693C198.367 55.4761 198.329 55.0604 198.114 54.691C197.721 54.0193 197.203 53.4288 196.673 52.8517C196.298 52.1785 195.92 51.5108 195.545 50.8517C195.372 50.5489 195.18 50.2129 194.97 49.857C195.545 48.7836 195.851 47.7377 195.243 46.4756C195.015 46.0015 194.387 45.6518 193.868 45.6828C193.302 45.7167 192.732 45.7422 192.158 45.764C191.085 44.4616 189.87 43.2924 188.567 42.6195C187.247 41.4953 185.91 40.3921 184.609 39.2652C184.24 38.9448 183.869 38.6242 183.501 38.3038C183.498 38.2959 183.495 38.2854 183.493 38.2775C183.221 37.282 182.915 36.2997 182.61 35.312C182.418 34.6999 182.362 34.0591 181.768 33.7254C180.529 33.0293 178.625 32.919 177.204 32.8008C177.063 32.6747 176.921 32.5512 176.78 32.4252C177.426 30.6967 177.311 28.8608 176.499 27.1296C176.22 26.5413 175.26 26.276 174.732 26.6648C173.514 27.563 172.069 27.881 170.64 27.7496C168.539 26.1262 160.066 18.7856 158.757 18.0108C158.741 17.9828 158.727 17.955 158.711 17.9275C157.974 16.7459 157.08 15.7972 156.076 15.0365C155.933 14.8859 155.788 14.7352 155.645 14.5844C155.771 13.6838 156.104 12.8141 156.638 12.0864C156.695 12.0024 156.761 11.9209 156.827 11.8421C157.762 10.7231 156.619 9.28378 155.313 9.86947C155.219 9.91143 155.125 9.95354 155.031 9.99817C154.026 10.4484 152.915 10.9378 151.759 11.3507C151.334 11.1912 150.902 11.0468 150.509 10.8876L146.293 9.18368C145.599 8.90317 144.866 8.66541 144.194 8.33571C143.96 6.77052 142.401 5.74387 140.779 5.79746C140.873 5.49699 141.013 5.20517 141.209 4.92859C141.266 4.84719 141.329 4.7683 141.395 4.69224C142.228 3.71761 141.115 1.91041 139.924 2.77724C139.841 2.83774 139.754 2.89808 139.671 2.95859C139.339 3.19211 139 3.41117 138.657 3.62332C138.109 3.38273 137.491 3.32788 136.845 3.58246C135.414 4.14584 134.094 4.71864 132.835 5.60181C132.783 5.6378 132.73 5.66797 132.678 5.70191C132.052 4.94226 131.059 4.4342 130.165 4.4397C130.148 4.4397 130.134 4.43955 130.116 4.43923C129.449 3.4151 128.223 2.81983 127.039 2.96456C127.12 1.49491 125.655 0.183357 124.322 0.0240094C122.767 -0.162006 121.363 0.746575 120.897 2.27326C120.766 2.69819 120.636 3.12343 120.505 3.54883C119.297 2.93548 118.022 2.46546 116.69 2.23099C113.655 1.69669 110.688 2.26557 107.764 3.11243C107.472 3.19698 107.18 3.28404 106.888 3.37063C106.471 2.88504 106.08 2.38783 105.706 1.92361C105.061 1.12247 103.511 1.76332 103.616 2.79311C103.689 3.50357 103.401 4.01478 102.939 4.3781C102.432 4.45259 101.941 4.47522 101.201 4.46029C100.223 4.44033 99.7779 4.40953 98.7552 4.00865C98.2787 3.82227 97.6853 3.33181 97.4075 2.89148C96.3428 1.2034 93.6383 0.748618 92.3502 2.35828C90.9946 1.76175 89.2833 2.58442 88.5307 3.74448C88.137 4.35091 87.3155 4.69004 86.2814 4.98171C85.5051 5.20014 84.7114 5.36562 83.9139 5.51035C83.5585 5.02571 82.8102 4.70088 82.2613 5.10727C81.8895 5.38322 81.5284 5.66671 81.1723 5.95728C78.4263 6.33758 75.6944 6.35125 73.0762 5.27479C70.8594 4.36333 68.8241 6.85271 69.1899 8.94246C68.5478 9.27844 67.8513 9.50206 67.2172 9.85392C65.8337 10.6225 64.6977 11.8374 64.0053 13.2648C63.8811 13.5203 63.7691 13.7799 63.6622 14.0406C63.1451 14.4638 62.6337 14.8984 62.1348 15.3568C61.3038 14.9285 60.4756 14.5005 59.6447 14.0722C59.0228 13.7518 57.9751 13.9751 57.8523 14.8052C57.651 16.1709 57.1624 17.3032 56.4649 18.2514C54.1969 19.4492 52.0152 20.7941 49.9275 22.2887C47.5265 23.0452 44.9736 23.4865 42.8755 23.9829C42.157 24.1536 41.7651 25.0966 42.1701 25.7244C42.5986 26.389 43.0272 27.0536 43.453 27.7182C42.2589 28.8897 41.1381 30.1137 40.0799 31.3797C37.1352 34.8995 34.6713 38.7582 32.466 42.8453C31.5934 43.2 30.7208 43.552 29.848 43.9066C29.0068 44.248 28.6279 45.2305 29.3097 45.9528C29.6338 46.2969 29.9237 46.6595 30.172 47.0402C28.9362 49.097 27.4809 50.9726 25.4453 52.2018C24.8262 52.5748 24.361 53.1605 24.1129 53.8251C23.9012 53.967 23.6922 54.1193 23.4858 54.2744C22.911 54.7103 22.5634 55.6612 23.2376 56.226C23.7104 56.6253 24.1547 57.098 24.5309 57.6208C24.612 57.9175 24.6956 58.2171 24.7792 58.5139C22.8874 60.2633 21.3145 62.2963 20.1336 64.5764C19.854 64.5317 19.5666 64.5606 19.334 64.734C17.2229 66.3022 17.1602 68.8002 18.0092 71.0328C17.4973 74.3976 17.8263 77.8465 18.814 81.1064C17.5155 82.4092 16.7343 84.2899 16.4155 86.1025C15.8537 89.2859 15.8145 94.1822 15.6682 97.4315C14.252 98.8053 13.2434 100.584 12.6818 102.496C12.2088 102.732 11.7359 102.969 11.2631 103.205C10.8424 103.415 10.534 103.969 10.5601 104.437C10.6804 106.699 11.6078 108.485 12.8385 110.103C13.2749 111.351 13.9203 112.501 14.7668 113.604C15.352 114.361 15.9242 115.086 16.4285 115.903C16.4808 115.984 16.5121 116.06 16.5357 116.113C16.337 116.328 16.1725 116.685 16.0287 116.94C14.8217 119.078 14.8034 121.584 16.5174 123.447C15.872 123.977 15.8511 125.049 16.4206 125.706C20.1282 129.963 23.2193 135.141 28.3639 137.402C28.3874 137.442 28.4083 137.481 28.4266 137.521C27.3841 140.042 27.2431 141.353 28.0948 143.959C28.1 143.983 28.1079 144.003 28.1157 144.027C28.5704 145.393 29.4064 147.582 30.9141 148.006C31.3896 148.141 31.8573 148.201 32.3197 148.198C33.5164 149.357 34.7104 150.517 35.9046 151.678C36.0091 152.254 36.0743 152.835 36.0952 153.42C36.1292 154.4 37.0463 155.194 38.034 154.905C38.3816 154.803 40.3046 152.923 40.6572 152.934C40.835 153.113 41.0073 153.291 41.1799 153.473C41.8148 154.143 42.6953 155.199 42.7685 155.899C42.9095 157.221 43.7717 158.734 45.1644 159.002C45.6869 159.536 46.5231 159.696 47.1631 159C47.2049 158.954 47.2467 158.91 47.2912 158.871C47.3591 158.863 47.4245 158.855 47.4924 158.848C47.8007 159.772 48.109 160.696 48.42 161.618C49.0288 163.436 51.3541 164.605 53.0054 163.543C53.2719 163.703 53.5333 163.875 53.7946 164.046C54.1917 164.301 54.594 164.56 55.0069 164.805C55.0304 164.873 55.054 164.942 55.0749 165.006C55.3414 165.823 56.4492 166.262 57.1312 165.792C57.3429 165.861 57.5597 165.916 57.7791 165.96C58.9313 166.189 60.0915 166.125 61.2046 165.74C62.0015 165.467 62.7618 164.943 63.6189 164.873C63.6723 164.868 63.7275 164.873 63.7818 164.871C64.481 166.31 66.0787 167.552 67.3379 167.973C68.987 168.525 70.6749 168.328 72.1768 167.651C72.5821 168.467 73.0911 169.237 73.6991 169.95C74.0362 170.344 74.645 170.26 74.9924 169.95C75.6524 169.362 76.3082 168.771 76.9631 168.179C77.437 167.995 77.9154 167.775 78.4145 167.571C79.9753 166.93 81.6864 166.664 83.13 165.738C83.8153 165.298 84.46 164.737 84.991 164.087C85.991 163.507 86.91 162.783 87.7377 161.954C88.1506 161.957 88.5818 161.86 88.9998 161.646C90.7477 160.754 91.6675 158.937 91.7485 157.076C93.1647 153.728 94.0007 150.156 94.2306 146.499C94.3038 145.298 94.3169 144.087 94.2254 142.888C94.1627 142.041 93.951 141.476 93.6323 140.712C93.5252 140.463 93.4285 140.234 93.3528 139.982C93.371 139.173 93.3815 138.364 93.3919 137.557C93.6088 136.877 93.9955 136.244 94.5337 135.711C95.3672 134.886 95.7486 133.173 94.991 132.154C94.4971 131.495 94.0059 130.836 93.5121 130.176C93.6506 127.347 94.3247 122.845 92.8301 122.372C92.8903 121.952 93.0184 121.537 93.0914 121.119C93.4416 119.112 93.2326 117.318 92.1717 115.564C91.9496 115.199 91.7615 114.876 91.6073 114.56C91.5107 113.982 91.414 113.405 91.3174 112.827C91.1684 111.936 91.0221 111.038 90.8967 110.134C90.8313 108.984 90.7713 107.833 90.7059 106.68C90.6459 105.619 90.5779 104.558 90.5073 103.494C90.5361 103.018 90.5779 102.543 90.6381 102.068C90.996 99.2334 92.1482 98.1854 94.1445 96.2152C94.458 96.1654 94.7688 96.1102 95.0746 96.0472C96.4986 95.7504 97.9879 95.2907 99.4537 95.4562C101.045 95.6347 102.469 96.3257 104.016 95.443C104.47 95.1804 105.471 94.4553 105.557 93.8802C105.563 93.8434 105.57 93.8118 105.581 93.7882C105.688 93.7725 105.826 93.7593 105.913 93.7567C107.141 93.7147 108.314 94.2006 109.552 94.0667C111.018 93.9091 112.33 93.255 113.192 92.2857C114.298 92.5589 115.426 92.6824 116.573 92.53C117.535 92.4039 118.396 92.0887 119.248 91.6212C119.867 91.2849 119.672 91.1878 120.347 91.4609C121.88 92.086 123.266 92.9109 124.993 92.4826C125.891 92.262 126.664 91.7761 127.314 91.1221C127.468 90.9698 127.729 90.7411 127.905 90.5259C128.726 90.9434 130.789 91.8864 131.128 91.9705C132.09 92.2069 133.11 92.1701 134.045 91.855C134.732 91.6238 135.574 90.9934 136.178 90.8647C136.959 90.6965 138.693 91.7893 139.625 92.1649C141.261 92.8241 142.993 92.9871 144.651 92.3068C145.22 92.073 146.328 91.1404 146.754 91.1483C147.447 92.0073 149.38 96.7065 149.959 98.4217C152.309 105.356 152.917 127.008 151.833 132.533C151.792 132.695 151.746 132.855 151.702 133.018C150.37 137.823 148.982 142.708 146.754 147.184C144.651 151.403 141.742 155.202 137.57 157.506C133.242 159.896 128.163 160.523 123.298 160.199C120.166 159.995 117.086 159.361 114.054 158.568C112.47 158.156 110.9 157.697 109.338 157.218C108.656 157.01 107.964 156.817 107.295 156.575C106.114 156.146 105.494 156.113 104.363 156.662C103.334 157.161 103.07 158.634 103.605 159.561C104.478 161.074 106.077 161.18 107.621 161.621C109.194 162.071 110.773 162.501 112.36 162.886C115.404 163.622 118.498 164.187 121.618 164.447C127.204 164.918 132.961 164.192 138.044 161.742C138.62 161.462 139.174 161.167 139.71 160.846C139.511 161.125 139.31 161.403 139.105 161.679C138.541 162.443 138.959 163.743 139.751 164.161C140.003 164.293 140.252 164.418 140.507 164.541C140.54 164.623 140.578 164.704 140.619 164.786C141.343 166.246 142.858 167.109 144.403 167.481C146.237 167.923 148.291 167.61 150.156 167.555C151.884 167.502 153.615 167.45 155.342 167.396C155.75 167.387 156.157 167.373 156.564 167.36C158.618 167.297 160.669 167.236 162.721 167.173C164.549 167.118 164.464 167.261 166.18 166.524C166.946 166.194 167.573 165.726 168.101 165.104C168.429 164.957 168.748 164.789 169.054 164.598C170.037 163.982 170.909 163.158 171.713 162.248C173.081 162.682 174.996 162.28 175.262 160.554C175.691 157.793 179.26 156.614 180.927 154.619C182.272 153.008 183.234 150.899 183.184 148.873C186.576 147.223 188.42 142.877 188.852 139.189C189.053 137.479 189.022 135.648 189.311 133.909C189.44 133.77 189.554 133.623 189.652 133.465C190.504 132.081 191.245 130.654 191.897 129.194C192.787 128.55 193.855 128.154 194.973 128.088C197.721 127.928 198.24 124.2 195.619 123.302C195.606 123.297 195.595 123.294 195.583 123.289C196.293 121.503 196.233 119.388 195.37 117.697C195.407 117.513 195.441 117.332 195.476 117.148C196.947 115.559 197.79 113.35 197.696 111.198C198.367 110.723 199.12 110.355 199.943 110.126C201.215 109.774 201.223 108.214 200.283 107.516C199.904 107.234 199.59 106.906 199.329 106.544C199.98 104.579 199.723 102.307 198.394 100.694C199.238 99.6065 200.082 98.519 200.926 97.4315C201.485 96.7118 201.78 95.4903 200.926 94.8073C200.379 94.3687 199.833 93.9326 199.285 93.4966Z" fill="black" stroke="white" stroke-opacity="0.65" stroke-width="2" mask="url(#path-6-inside-1_40_41)"/>
<path fill-rule="evenodd" clip-rule="evenodd" d="M137.867 134.314C138.765 132.724 141.445 132.982 141.855 134.837C142.686 138.597 138.217 142.069 134.823 142.155C131.45 142.242 127.664 139.362 128.153 135.723C128.274 134.824 129.472 134.933 129.88 135.497L130.039 135.714C131.148 137.209 132.612 138.756 134.672 138.392C135.525 138.241 136.3 137.706 136.815 137.018C137.438 136.187 137.37 135.195 137.867 134.314ZM116.417 106.807C116.875 106.681 117.335 106.73 117.741 106.903C118.644 107.069 119.4 107.825 119.666 108.689C119.686 108.764 119.71 108.838 119.736 108.911L119.776 109.02L119.667 108.743C119.718 109.015 119.939 109.302 120.019 109.576C120.117 109.912 120.14 110.294 120.107 110.665C120.395 110.668 120.682 110.677 120.97 110.702L121.247 110.727C122.798 110.872 124.5 111.137 125.419 112.481C125.936 113.237 125.452 114.597 124.503 114.742C123.043 114.967 121.784 114.156 120.329 113.994C118.954 113.84 117.514 113.928 116.157 114.177C113.353 114.691 110.776 115.831 108.045 116.547L107.673 116.641L107.673 116.64C107.205 116.753 106.674 116.1 107.137 115.718C109.325 113.914 112.127 112.453 114.888 111.562C114.486 110.921 114.362 110.075 114.637 109.386C114.679 109.244 114.731 109.105 114.788 108.966L114.904 108.682C114.915 108.547 114.94 108.415 114.978 108.285L114.984 108.245L114.987 108.247C115.193 107.577 115.729 106.997 116.417 106.807ZM144.341 106.911C144.94 106.31 145.78 106.399 146.404 106.871L146.488 106.937C147.077 107.199 147.564 107.772 147.883 108.304C148.216 108.856 148.436 109.418 148.446 110.025C149.895 110.03 151.282 110.466 152.346 111.64C152.69 112.018 152.924 112.603 152.736 113.116L152.623 113.422C152.266 114.392 150.66 114.95 150.113 113.809L150.088 113.754C149.508 112.399 147.283 112.541 146.1 112.68C145.274 112.777 144.459 112.983 143.664 113.213C143.382 113.294 143.104 113.382 142.826 113.472L142.548 113.562C142.4 113.611 141.629 114.031 142.11 113.932C142.238 113.905 142.334 114.093 142.204 114.157C141.63 114.431 141.02 113.885 141.058 113.268C141.124 112.197 142.82 111.61 143.635 111.241L143.684 111.219C143.997 111.074 144.324 110.935 144.662 110.806C144.471 110.522 144.314 110.207 144.184 109.869C144.06 109.549 143.978 109.239 143.932 108.899C143.888 108.733 143.888 108.567 143.932 108.401L143.94 108.353C143.917 108.243 143.906 108.13 143.907 108.016L143.903 107.971H143.907C143.923 107.571 144.082 107.17 144.341 106.911ZM134.775 118.312C137.076 119.025 140.87 120.966 139.671 123.964C137.999 126.717 133.561 124.694 131.409 123.804C129.478 123.162 128.472 125.879 130.339 126.697C145.777 132.824 145.721 116.654 135.336 116.892C134.192 116.918 134.156 118.075 134.775 118.312ZM114.351 97.2277L114.744 97.1129C116.782 96.5206 118.863 95.4977 120.673 97.0937C121.383 97.7204 121.529 99.0228 121.022 99.8045C119.862 101.586 118.144 101.314 116.274 101.465C114.849 101.581 113.446 102.001 112.116 102.525C111.03 102.954 110.023 103.558 109.071 104.232C108.136 104.894 107.498 105.929 106.539 106.525C106.187 106.744 105.782 106.519 105.655 106.164C105.208 104.907 105.964 103.342 106.603 102.271C107.384 100.964 108.569 99.8956 109.844 99.0871C111.241 98.2017 112.784 97.6904 114.351 97.2277ZM144.053 95.8755C147.498 95.8744 150.814 97.7969 152.741 100.615C153.396 101.573 152.917 102.991 151.977 103.542C150.922 104.161 149.794 103.716 149.099 102.829L149.059 102.775C147.952 101.299 146.529 100.136 144.839 99.3786C144.016 99.0092 143.104 98.7093 142.213 98.5574L141.926 98.5079C141.522 98.44 141.053 98.3751 140.687 98.4386C140.492 98.4643 140.312 98.5292 140.147 98.6279C140.227 98.8024 140.021 99.0125 139.831 98.908C138.974 98.4362 139.08 97.5947 139.787 96.9406C140.788 96.0152 142.762 95.8756 144.053 95.8755Z" fill="black"/>
<path fill-rule="evenodd" clip-rule="evenodd" d="M136.397 128.532C133.486 127.217 128.256 128.365 126.357 128.821C121.945 129.883 117.505 132.178 116.133 135.772C114.587 139.824 117.672 141.099 118.126 140.891C121.181 141.106 124.819 139.18 128.02 138.682C130.619 138.275 133.361 137.92 135.796 136.535C137.575 137.516 141.59 138.046 144.83 138.904C147.59 139.634 148.785 141.218 151.344 140.881C154.411 140.478 153.156 134.007 149.738 131.386C145.998 128.517 139.671 127.354 136.397 128.532ZM142.162 156.199C139.614 156.822 139.443 151.221 139.159 149.241C138.935 147.696 137.678 143.708 134.49 143.881C131.301 144.052 130.104 147.393 130.264 149.47C130.369 150.817 131.608 157.642 127.657 158.506C125.138 158.497 122.224 158.327 119.576 157.837C116.46 157.128 112.406 154.648 111.336 159.533C110.951 161.289 124.681 166.51 130.773 166.983C136.952 168.238 144.181 166.307 148.581 161.566C149.581 160.486 152.4 156.009 152.601 154.912C153.024 152.607 152.046 151.124 149.203 151.936C147.195 153.012 143.801 155.799 142.162 156.199Z" fill="black"/>
<path fill-rule="evenodd" clip-rule="evenodd" d="M159.542 119.898C156.363 123.194 151.056 124.139 146.826 122.372C135.967 117.82 141.281 103.623 149.657 99.8099C150.704 99.5482 152.101 98.9276 153.375 98.7868C153.49 98.7301 153.742 98.8942 154.045 98.7391C163.28 99.7734 165.383 114.155 159.542 119.898ZM124.512 120.741C120.946 125.486 114.318 126.949 108.903 124.744C98.2036 120.517 101.998 107.927 109.319 102.992C124.781 97.1627 131.167 111.994 124.512 120.741ZM101.319 110.23C101.309 110.225 101.299 110.223 101.289 110.218C101.346 110.193 101.402 110.168 101.458 110.143C101.44 110.191 101.42 110.238 101.402 110.286C101.375 110.267 101.35 110.245 101.319 110.23ZM166.901 105.102C166.029 105.104 164.767 105.248 164.046 105.855C162.264 99.8259 155.686 94.2461 149.965 98.3148C145.46 99.7682 142.117 102.991 140.217 107.277C136.792 105.233 131.405 106.105 128.435 108.809C126.489 102.36 121.701 100.102 116.003 99.7682C109.783 98.7461 103.582 104.806 101.648 109.668C100.04 109.484 97.6363 108.971 96.1231 109.966C86.3025 107.383 69.1327 105.958 67.1361 107.394C65.7133 107.941 64.9326 111.311 66.9199 111.492C68.6516 111.246 66.7176 109.024 68.4634 108.781C77.7645 108.203 86.7939 110.082 95.9966 110.871C96.8182 111.979 99.473 112.35 100.889 111.905C98.6587 120.152 103.474 125.762 110.689 127.443C121.861 130.017 131.581 119.992 128.659 109.564C132.043 107.875 135.935 107.947 139.622 108.837C133.462 131.582 169.977 130.561 164.274 106.634C168.069 108.528 168.892 105.484 166.901 105.102Z" fill="black"/>
</svg>
