<svg width="221" height="324" viewBox="0 0 221 324" fill="none" xmlns="http://www.w3.org/2000/svg">
<path fill-rule="evenodd" clip-rule="evenodd" d="M212.864 280.036C211.728 273.623 210.686 267.193 209.739 260.75C209.291 257.689 208.853 254.627 208.458 251.561C208.182 249.412 207.762 246.953 209.225 245.362C211.283 243.122 213.152 241.204 213.405 237.995C213.643 234.976 212.621 231.685 211.982 228.754C210.643 222.609 208.976 216.538 207.134 210.526C205.261 204.418 203.208 198.365 201.127 192.327C199.18 186.68 197.309 180.982 194.774 175.565C189.964 165.284 181.823 157.669 171.765 152.586C169.264 151.32 164.16 146.806 161.546 145.797C159.143 144.867 159.153 147.58 156.786 146.559C154.897 145.741 153.136 144.653 152.077 142.827C150.928 140.847 148.046 138.076 147.607 135.769C146.677 130.881 147.685 126.72 144.194 123.04C141.097 119.774 136.932 117.536 132.622 116.334C123.142 113.691 110.5 115.538 104.78 124.345C102.048 128.55 101.093 133.631 97.4074 137.063C94.1886 140.06 94.909 142.109 90.74 143.653C90.5039 143.741 84.104 142.369 83.8679 142.456C79.3073 141.481 74.9482 144.211 70.7641 145.797C64.5262 148.158 58.5874 151.232 53.008 154.886C41.7574 162.255 32.1214 171.823 24.1773 182.651C16.1675 193.567 9.95282 205.803 5.52772 218.592C4.45309 221.699 3.48784 224.842 2.63636 228.017C2.15972 229.794 1.65055 231.636 2.23085 233.456C2.70547 234.944 3.76122 236.052 5.00102 236.945C6.68156 238.155 10.0526 238.942 9.98686 241.376C9.93681 243.228 9.30848 245.175 9.0019 247.005C8.637 249.183 8.337 251.374 8.03716 253.562C6.67314 263.521 5.61148 273.536 5.14192 283.579C4.67961 293.468 4.29617 303.56 4.98231 313.445C5.02782 314.097 5.22215 314.696 5.53598 315.201C5.24305 315.312 5.22046 315.859 5.58485 315.936C5.8402 315.99 6.09504 316.044 6.35038 316.098C6.88078 316.499 7.54231 316.745 8.30345 316.769C8.81953 316.786 9.33528 316.809 9.85085 316.836C15.2906 317.972 20.7293 319.046 26.2401 319.858C32.9387 320.847 39.6572 321.653 46.3964 322.307C60.2444 323.654 73.9833 323.207 87.8495 322.482C101.694 321.758 115.531 321.587 129.39 321.948C143.262 322.309 157.128 322.912 171.003 323.16C186.504 323.435 201.979 323.012 217.437 321.779C219.555 321.611 220.866 319.925 220.448 317.822C217.944 305.217 215.106 292.696 212.864 280.036Z" fill="#D08B5B"/>
<path fill-rule="evenodd" clip-rule="evenodd" d="M70.7641 145.796L71.0668 145.68C75.1584 144.082 79.4171 141.505 83.8679 142.455C84.0253 142.398 86.9213 142.988 88.9051 143.362L87.0221 145.326L83.6995 145.966C95.1626 164.877 108.72 174.332 124.372 174.332C140.025 174.332 151.902 164.877 160.004 145.966L161.109 145.659C161.246 145.691 161.391 145.737 161.546 145.796C164.16 146.807 169.264 151.321 171.765 152.585C181.823 157.668 189.964 165.283 194.774 175.564C197.225 180.801 199.055 186.3 200.933 191.761L201.127 192.327C203.208 198.366 205.261 204.417 207.133 210.527C208.895 216.277 210.498 222.08 211.805 227.952L211.982 228.754C212.621 231.685 213.643 234.975 213.405 237.996C213.316 239.138 213.021 240.118 212.584 241.006L189.912 249.162L200.714 322.801C190.819 323.225 180.915 323.334 171.003 323.159C157.128 322.913 143.262 322.309 129.39 321.949C115.951 321.598 102.533 321.746 89.1082 322.417L85.6989 322.591C72.5617 323.248 59.528 323.584 46.3964 322.308L45.5016 322.22L45.5014 311.448L50.1142 251.466L26.7375 247.068L3.78985 235.926C3.09664 235.233 2.54028 234.426 2.23083 233.455C1.69335 231.771 2.0906 230.066 2.53067 228.411L2.63635 228.016C3.48783 224.843 4.45307 221.698 5.5277 218.591C9.9528 205.804 16.1675 193.568 24.1773 182.651C32.1214 171.824 41.7574 162.256 53.008 154.887C58.5874 151.233 64.5262 148.159 70.7641 145.796Z" fill="white"/>
<path fill-rule="evenodd" clip-rule="evenodd" d="M79.5439 142.147C80.9774 142.085 82.439 142.316 83.8689 142.457C83.9935 142.469 84.0408 142.661 83.9004 142.69C81.3413 143.224 78.8101 143.956 76.2964 144.699L75.2203 145.018C72.3859 145.855 69.6346 146.72 66.8905 147.837C61.4218 150.065 56.228 153.072 51.4478 156.527C33.0405 169.83 19.7182 189.971 11.311 210.825C9.02787 216.488 7.09333 222.293 5.52638 228.194C5.14531 229.63 4.78681 231.071 4.44686 232.517C4.34709 232.941 3.91225 234.027 4.15073 234.462C4.36158 234.844 5.18104 235.082 5.56178 235.281L6.84726 235.947C9.35484 237.239 13.5315 239.363 13.9503 239.568L14.6036 239.89C25.2882 245.127 36.7045 249.566 48.728 249.873L48.8222 248.847C49.3582 243.174 50.0617 237.468 51.5971 231.969C51.6797 231.674 52.0559 231.773 52.0903 232.036C52.9456 238.547 52.6723 245.109 52.3738 251.65C51.8454 263.234 51.1436 274.813 50.52 286.393C50.2077 292.186 49.804 297.975 49.4396 303.765C49.0747 309.566 48.9566 315.507 48.1233 321.261C47.9375 322.544 46.4346 323.24 45.2966 323.105C44.0375 322.955 43.0688 321.848 43.0628 320.577C43.0476 317.225 43.469 313.834 43.7032 310.49C43.9255 307.313 44.1642 304.137 44.4089 300.964C45.3029 289.376 46.3313 277.801 47.2824 266.219C47.6195 262.111 47.9837 258.007 48.3586 253.903C35.6216 253.492 23.7221 248.776 12.3704 243.266C12.2061 246.996 11.8093 250.718 11.4252 254.432C10.3528 264.794 9.40726 275.155 8.69954 285.55C8.34206 290.801 8.082 296.057 7.85548 301.314C7.74407 303.898 7.6534 306.483 7.58379 309.069C7.56036 309.93 7.53946 310.791 7.52075 311.654L7.48199 313.628C7.4503 314.879 7.32305 316.038 6.27017 316.948C5.20059 317.874 3.75584 317.922 2.69722 316.948C1.28028 315.644 1.53073 313.867 1.5727 312.116C1.60776 310.638 1.64972 309.16 1.69843 307.683C1.79619 304.729 1.92108 301.776 2.07294 298.823C2.60452 288.503 3.66668 278.222 5.0548 267.985L5.5965 264.033C6.60843 256.684 7.71929 249.17 9.98131 242.093C9.1005 241.655 8.2224 241.213 7.34749 240.77C5.79571 239.985 4.19135 239.248 2.68289 238.382C1.48624 237.694 0.45408 236.75 0.121039 235.358C-0.250598 233.808 0.317559 232.112 0.695095 230.599L0.727792 230.465C1.09791 228.942 1.49635 227.425 1.91687 225.915C3.62202 219.792 5.73032 213.786 8.19779 207.928C13.1385 196.199 19.5155 185.057 27.3052 174.983C34.3169 165.913 42.6001 157.69 52.3082 151.522C57.0542 148.506 62.112 146.03 67.4611 144.279C69.9612 143.462 72.6815 142.749 75.2992 142.457C76.7112 142.299 78.1251 142.208 79.5439 142.147ZM104.941 123.562C106.645 121.733 110.029 123.626 109.211 126.046C107.287 131.743 104.224 136.938 99.4428 140.681C94.9488 144.2 89.5896 146.486 83.8182 145.997C83.7737 145.993 83.7351 145.982 83.7009 145.966L84.1982 146.641C88.103 151.919 92.2224 157.127 97.1873 161.442C107.303 170.235 121.077 174.978 134.377 171.604C144.84 168.951 154.06 160.679 156.77 150.138C156.382 150.311 155.92 150.372 155.413 150.261C153.244 149.791 151.097 147.51 149.698 145.875C148.184 144.106 147.001 142.196 146.135 140.037C144.55 136.085 144.041 130.998 146.205 127.17C146.473 126.699 147.089 126.963 147.143 127.423L147.223 128.143C147.641 131.73 148.162 135.2 149.854 138.47C150.682 140.071 151.675 141.631 152.883 142.971C153.529 143.689 154.23 144.374 154.986 144.975C155.725 145.562 156.616 145.985 157.277 146.657L157.398 146.786L157.402 146.762C157.569 145.343 158.565 144.718 159.541 144.756C160.484 144.793 161.592 145.21 162.021 145.409L162.062 145.427C168.644 148.586 174.704 152.701 180.41 157.267C192.206 166.712 201.044 179.058 205.327 193.598C207.429 200.733 208.634 208.086 209.908 215.404L210.692 219.888C211.88 226.645 213.206 233.533 215.89 239.818C216.584 241.444 216.048 242.968 214.347 243.608C212.222 244.406 210.09 245.179 207.955 245.943C209.003 250.44 209.643 255.093 210.429 259.612C212.099 269.219 214.145 278.763 215.9 288.357C216.796 293.263 217.607 298.184 218.502 303.091C218.933 305.452 219.385 307.812 219.822 310.173C220.058 311.447 220.272 312.725 220.497 313.999L220.536 314.211C220.666 314.884 220.828 315.58 220.642 316.252C220.432 317.019 219.832 317.562 219.297 318.113C218.856 318.566 218.219 318.568 217.679 318.322L217.502 318.239C216.538 317.789 215.783 317.339 215.441 316.252C215.225 315.565 215.146 314.789 215.005 314.08C214.733 312.72 214.477 311.359 214.233 309.994C213.747 307.264 213.274 304.53 212.81 301.796L212.377 299.234C210.892 290.409 209.482 281.529 208.769 272.61C208.452 268.652 208.116 264.7 207.778 260.746L207.523 257.78C207.203 254.026 206.81 250.177 206.754 246.373L205.477 246.826L199.246 249.027C197.7 249.573 195.733 250.691 194.07 250.488C193.258 250.389 192.636 250.133 192.157 249.666C192.732 257.761 193.507 265.843 194.544 273.88C195.484 281.197 196.529 288.502 197.763 295.774C198.373 299.374 199 302.973 199.682 306.561C200.023 308.354 200.375 310.146 200.738 311.936C200.918 312.829 201.134 313.724 201.273 314.624C201.435 315.656 201.15 316.289 200.574 317.137C200.102 317.835 199.155 318.192 198.388 317.712C197.372 317.073 196.841 316.522 196.542 315.361C196.269 314.306 196.104 313.205 195.895 312.136C195.506 310.166 195.132 308.192 194.769 306.215C194.013 302.081 193.313 297.938 192.691 293.782C190.493 279.142 189.1 264.378 188.395 249.592C188.048 242.296 187.94 234.993 188.002 227.69C188.034 223.946 188.156 220.193 188.422 216.458C188.69 212.677 189.248 208.975 189.747 205.23C189.764 205.098 189.949 205.091 189.957 205.23C190.193 209.428 190.563 213.62 190.745 217.828C190.917 221.843 190.992 225.864 191.131 229.881C191.311 235.161 191.562 240.445 191.894 245.724C192.494 245.068 193.399 244.689 194.306 244.837C195.617 244.561 197.03 243.873 198.282 243.455L202.998 241.881C205.477 241.053 207.956 240.231 210.444 239.434C208.219 231.952 206.696 224.361 205.394 216.658L204.815 213.193C203.665 206.376 202.426 199.553 200.346 192.949C198.159 186.007 194.886 179.554 190.544 173.709C186.263 167.948 181.055 162.876 175.694 158.132C171.104 154.07 166.193 150.404 161.512 146.454C161.561 146.716 161.571 147.005 161.528 147.322C160.533 154.603 156.733 161.385 151.435 166.429C140.795 176.564 125.043 178.665 111.425 173.914C98.2512 169.316 86.6038 158.43 82.4887 144.96C82.4182 144.729 82.7272 144.638 82.8512 144.807C83.0794 145.12 83.3088 145.432 83.5386 145.746C83.523 145.621 83.5876 145.486 83.741 145.427C88.5423 143.573 93.2571 140.946 96.8562 137.227C98.6104 135.416 100.141 133.361 101.35 131.148C101.929 130.086 102.449 128.989 102.864 127.853L102.969 127.56C103.472 126.137 103.892 124.688 104.941 123.562Z" fill="black"/>
<path fill-rule="evenodd" clip-rule="evenodd" d="M175.778 74.7103C175.667 68.3992 175.544 61.962 174.607 55.7123C173.692 49.6023 171.172 44.0794 166.844 39.6427C157.648 30.2183 144.321 27.9163 131.915 25.8068L110.704 22.2C104.233 21.0998 97.3289 19.3414 90.7909 20.9016C87.5692 21.6703 84.8334 23.4563 82.3328 25.5695C79.9226 27.6064 77.3313 29.7937 75.6981 32.5341C74.0622 35.2783 73.4994 38.4862 72.9675 41.5899C72.3677 45.0892 71.9016 48.6158 71.5706 52.1508C70.9072 59.2331 70.8166 66.3689 71.2977 73.4659C71.531 76.9082 71.902 80.3408 72.3756 83.758C72.6104 85.4525 72.8758 87.143 73.1757 88.8273C73.264 89.324 73.3312 89.8739 73.4217 90.4294C72.7526 92.3357 72.3724 94.3096 72.403 96.2752C72.4934 102.065 77.372 105.71 82.2905 107.667C85.1422 108.802 88.1236 109.573 90.9256 110.841C93.8732 112.174 95.8796 114.336 97.895 116.801C101.739 121.505 106.076 125.732 111.029 129.258C121.531 136.735 134.831 140.273 147.573 137.588C150.628 136.944 153.713 135.943 156.462 134.436C159.362 132.847 161.545 130.541 163.377 127.816C166.778 122.754 169.217 117.058 171.062 111.259C172.945 105.345 174.282 99.4195 175.01 93.2524C175.736 87.1051 175.889 80.8955 175.778 74.7103Z" fill="#D08B5B"/>
<path fill-rule="evenodd" clip-rule="evenodd" d="M108.093 0.215337C116.871 -0.994128 128.986 2.93663 133.358 10.8625C154.227 5.93417 180.548 5.77271 197.749 22.1794C215.698 41.641 193.153 67.3015 178.205 73.087C179.294 78.3853 177.597 112.328 165.59 127.47C156.059 140.297 133.868 146.218 123.599 130.894L123.518 130.768C122.419 129 123.366 129.056 124.496 130.372C134.551 139.23 148.223 139.382 158.759 130.033C178.504 112.946 176.468 71.0525 167.071 46.8158C140.317 43.8724 111.672 51.9951 93.1931 72.1689L94.4427 79.7043C94.6556 80.9881 94.8974 82.2709 95.082 83.559C95.2 84.3846 95.2133 85.2055 94.6424 85.8736C92.7573 88.0795 89.5801 84.7648 86.966 83.4464C86.1942 83.3377 85.4211 83.2958 84.6628 83.3492C72.1032 84.9697 74.5777 109.375 88.3817 105.097C89.5415 104.373 90.5379 104.594 90.9879 105.645C94.2782 108.664 96.4477 114.048 101.914 119.233C103.843 121.18 105.598 122.806 107.768 124.367C109.042 125.658 112.887 126.974 111.668 129.184C109.363 134.21 95.7705 118.42 93.3672 114.054C85.8376 117.032 77.4932 116.02 69.6901 115.292C28.5248 113.148 34.0203 69.6822 67.7625 42.2395C74.114 37.5555 81.1217 33.7347 88.4062 30.7943C89.4006 30.3928 88.966 28.7573 87.9575 29.1643C83.1377 31.1101 78.4388 33.4261 73.9598 36.1067L73.9531 34.5041C73.9465 31.8049 73.9888 28.9947 74.4569 26.5285C74.6908 24.8196 75.0843 22.9943 75.6901 21.6211C76.4391 17.4114 88.171 2.96141 108.093 0.215337ZM84.1139 88.9521C84.7494 88.3472 85.936 89.0684 86.502 89.0503C87.9489 89.2487 89.3235 89.8609 90.3956 90.6164C91.1035 91.0137 91.5997 91.3867 92.0142 91.7298L92.0254 91.7266C92.0224 91.7266 92.0175 91.729 92.0142 91.7298L92.0541 91.757C92.6576 92.1866 94.8674 94.6064 93.4714 93.9556C93.3672 93.8201 93.2607 93.69 93.1532 93.5624C93.1417 93.5798 93.1257 93.597 93.1065 93.6136L93.185 93.7303C94.3716 95.5182 92.3229 93.6345 92.0078 93.1341C91.9928 93.1463 91.9759 93.1544 91.9594 93.1631L92.3698 93.6635C92.4273 93.7346 92.4723 93.7913 92.5097 93.8393L92.5963 93.9229C93.9682 95.2738 94.0111 96.4893 92.4171 94.4922C92.48 94.5865 92.5302 94.6861 92.5373 94.7746L92.6317 94.8952C93.8831 96.5106 92.8653 95.9368 92.2434 95.247L92.1915 95.1877L92.2021 95.2037C92.7805 96.0964 91.6327 95.4701 91.4298 94.9925L91.4214 94.9709C91.2003 94.7904 91.0642 94.5876 91.0177 94.5364L91.009 94.5278C89.933 93.4235 88.3733 92.4889 87.0484 92.0644C86.8562 92.0278 86.6619 91.9985 86.4656 91.9778C85.6688 91.7996 84.8634 91.6776 84.0495 91.6117C83.9499 91.5999 83.8489 91.5267 83.7736 91.432C82.5429 91.3904 82.9228 90.8851 83.4333 90.7912L83.4422 90.7897L83.3409 90.7811C82.5511 90.7039 82.0118 90.4201 82.8104 90.2458L82.9115 90.2258C82.8992 90.2062 82.8882 90.1868 82.8776 90.1674C82.1935 90.0921 82.64 89.4262 83.0195 89.5873C82.8597 89.0642 83.5899 89.3252 83.681 89.2475C83.7505 89.1703 83.8368 89.1022 83.8867 89.0985C84.1066 88.943 83.9999 88.9571 84.1139 88.9521ZM88.2983 80.4818L88.138 80.5755C88.0082 80.6513 87.8749 80.7017 87.7411 80.7314C87.93 80.812 88.1168 80.8989 88.3017 80.992C88.2986 80.8784 88.2964 80.7648 88.2964 80.6515L88.2983 80.4818Z" fill="black"/>
<path d="M132.92 11.104L133.103 11.4364L133.473 11.3492C154.291 6.43274 180.381 6.31586 197.393 22.5301C201.793 27.3068 203.697 32.442 203.87 37.5474C204.043 42.6673 202.475 47.7912 199.875 52.5209C194.667 61.996 185.382 69.7733 178.025 72.6207L177.63 72.7733L177.715 73.1876C177.973 74.4433 178.076 77.5 177.882 81.667C177.69 85.8128 177.206 91.0066 176.315 96.5072C174.528 107.534 171.117 119.695 165.198 127.159L165.193 127.165L165.188 127.171C160.504 133.476 152.693 138.095 144.799 139.244C136.925 140.391 129.022 138.085 124.017 130.62C124.016 130.619 124.015 130.617 124.014 130.616L123.943 130.505C124 130.565 124.057 130.629 124.116 130.697L124.139 130.724L124.165 130.747C134.41 139.773 148.365 139.922 159.088 130.409C169.112 121.733 173.555 106.819 174.342 91.1307C175.13 75.4236 172.262 58.8207 167.537 46.6351L167.428 46.352L167.126 46.3188C140.247 43.3617 111.432 51.5166 92.8244 71.8312L92.66 72.0106L92.6999 72.2507L93.9494 79.7861C94.0218 80.2224 94.0967 80.6546 94.1713 81.0848C94.3189 81.9356 94.465 82.7785 94.587 83.6298C94.7024 84.4369 94.6814 85.0583 94.2623 85.5488C93.8928 85.9812 93.4887 86.1267 93.0328 86.1107C92.5429 86.0935 91.9681 85.8871 91.3113 85.5397C90.6776 85.2044 90.0185 84.7664 89.3378 84.3142L89.2798 84.2756C88.5899 83.8173 87.876 83.3454 87.1911 83L87.1174 82.9628L87.0357 82.9513C86.2365 82.8388 85.4276 82.7941 84.6277 82.8504L84.6132 82.8515L84.5988 82.8533C81.2766 83.282 78.9473 85.2259 77.5638 87.7955C76.1876 90.3518 75.7416 93.53 76.1403 96.5016C76.5387 99.4704 77.7898 102.297 79.8836 104.11C82.001 105.943 84.9266 106.691 88.5297 105.575L88.5915 105.556L88.6464 105.521C89.1603 105.201 89.5661 105.135 89.8467 105.195C90.1072 105.25 90.3537 105.434 90.5283 105.842L90.5706 105.94L90.6499 106.013C92.0662 107.313 93.2718 109.069 94.6853 111.128C94.8612 111.384 95.0403 111.645 95.2234 111.911C96.864 114.288 98.7952 116.963 101.564 119.59C103.491 121.534 105.258 123.174 107.443 124.749C107.804 125.105 108.315 125.448 108.813 125.772C108.881 125.817 108.95 125.861 109.018 125.906C109.481 126.206 109.941 126.505 110.342 126.823C110.808 127.191 111.139 127.544 111.298 127.889C111.441 128.2 111.458 128.529 111.23 128.942L111.221 128.958L111.214 128.975C111.1 129.223 110.964 129.381 110.822 129.481C110.68 129.58 110.505 129.642 110.284 129.657C109.823 129.688 109.192 129.516 108.403 129.109C106.835 128.303 104.888 126.707 102.902 124.782C98.9335 120.934 94.9733 115.935 93.8053 113.812L93.5929 113.427L93.1833 113.589C86.1906 116.354 78.4697 115.622 71.0196 114.916C70.591 114.875 70.1632 114.834 69.7366 114.794L69.7264 114.794L69.7161 114.793C59.5105 114.261 52.2679 111.173 47.6331 106.481C43.0014 101.792 40.9161 95.4429 41.1358 88.2683C41.5759 73.8958 51.2758 56.2962 68.0688 42.6349C74.3813 37.981 81.3483 34.1824 88.5933 31.2579L88.5933 31.2579C89.3827 30.9392 89.5745 30.1331 89.4156 29.5456C89.3347 29.2466 89.1527 28.9475 88.8542 28.7645C88.5386 28.5711 88.1541 28.5457 87.7704 28.7006L87.7703 28.7007C83.1968 30.547 78.7309 32.7254 74.4561 35.2316L74.4531 34.5029C74.4465 31.801 74.49 29.0353 74.9481 26.6217L74.9505 26.609L74.9522 26.5963C75.1839 24.9043 75.5697 23.1329 76.1475 21.823L76.1718 21.7679L76.1824 21.7087C76.3477 20.7793 77.1587 19.1663 78.6652 17.1898C80.1563 15.2335 82.2875 12.9749 85.017 10.7575C90.4756 6.32273 98.3059 2.06913 108.161 0.710657C112.456 0.118838 117.593 0.784152 122.196 2.579C126.802 4.37534 130.809 7.27745 132.92 11.104ZM84.1754 89.5068C84.2057 89.4853 84.2327 89.4652 84.2571 89.4462L84.323 89.4433L84.4586 89.3143C84.5721 89.2063 84.7816 89.1675 85.2223 89.2685C85.3653 89.3013 85.4995 89.3401 85.6416 89.3811C85.7075 89.4002 85.775 89.4197 85.8459 89.4394C86.0258 89.4892 86.2544 89.5483 86.4689 89.5506C87.8129 89.7416 89.0997 90.3148 90.1076 91.0251L90.1286 91.0399L90.1509 91.0525C90.4238 91.2056 90.6633 91.3546 90.8781 91.4996L90.8108 91.5165L91.7135 92.13L91.8978 92.2826L91.9071 92.2799C91.9571 92.3235 92.0143 92.3755 92.0771 92.4348L91.7189 92.7247L91.1852 93.0077L91.5728 93.4802L91.9809 93.9778C91.9812 93.9781 91.9815 93.9785 91.9818 93.9789C92.0375 94.0479 92.0803 94.1017 92.1152 94.1466L92.137 94.1745L92.1625 94.1991L92.2455 94.2792C92.2461 94.2798 92.2467 94.2803 92.2472 94.2809C92.309 94.3418 92.3676 94.4021 92.4231 94.4615L92.0012 94.7698C92.0218 94.8006 92.0342 94.8232 92.0407 94.8375L92.0509 94.9642L92.0871 95.0105C92.074 94.9999 92.0609 94.9888 92.0479 94.9773C92.0012 94.9362 91.9621 94.8958 91.9329 94.8599C91.9185 94.8422 91.9079 94.8273 91.9005 94.8156C91.8969 94.8098 91.8943 94.8053 91.8925 94.802L91.8912 94.7994L91.8872 94.7891L91.8394 94.6667L91.7376 94.5836C91.6583 94.5188 91.5908 94.4472 91.5356 94.3821C91.5082 94.3496 91.4846 94.3198 91.4629 94.2922C91.4488 94.2742 91.4154 94.2306 91.3879 94.2003L91.3781 94.1895L91.3676 94.1792L91.3629 94.1746C90.2289 93.0124 88.6004 92.0367 87.2009 91.5882L87.1719 91.5789L87.1419 91.5732C86.9465 91.536 86.7481 91.5057 86.5469 91.4836C85.7607 91.3091 84.9662 91.1877 84.1638 91.1195L84.0212 90.9401L83.7905 90.9323C83.6732 90.9283 83.5812 90.9199 83.5103 90.9099L83.4982 90.6191L83.722 90.5747L83.5966 90.3755L83.8108 90.4664L83.5961 89.7634C83.6116 89.7635 83.6274 89.7632 83.6431 89.7624C83.674 89.761 83.721 89.7572 83.7738 89.7445C83.8216 89.733 83.9154 89.7048 84.0053 89.6281L84.0306 89.6066L84.0473 89.588L84.0621 89.5869L84.1754 89.5068ZM92.3685 92.7224C92.5123 92.8698 92.6608 93.0296 92.8007 93.1888L92.7604 93.2498C92.5885 93.0714 92.4706 92.9309 92.4308 92.8677L92.2875 92.6401C92.314 92.6667 92.341 92.6942 92.3685 92.7224ZM92.1175 95.1894C92.1294 95.1841 92.1409 95.1797 92.1521 95.1759L91.9362 95.3408C91.9837 95.2713 92.0485 95.22 92.1175 95.1894ZM82.8815 89.6609C82.8815 89.6609 82.8829 89.6613 82.8854 89.6623C82.8827 89.6616 82.8815 89.661 82.8815 89.6609ZM91.7388 92.7142L91.7371 92.7152C91.7398 92.7136 91.7411 92.713 91.7388 92.7142ZM88.7982 80.4872L88.8079 79.6046L88.0459 80.0501L87.8857 80.1438C87.8857 80.1438 87.8857 80.1438 87.8856 80.1438C87.8021 80.1926 87.7176 80.2244 87.6329 80.2432L86.1121 80.5803L87.545 81.1913C87.7238 81.2676 87.901 81.3501 88.0769 81.4386L88.8238 81.8145L88.8015 80.9786C88.7985 80.8682 88.7965 80.7603 88.7964 80.6541C88.7964 80.6532 88.7964 80.6524 88.7964 80.6515L88.7982 80.4872Z" stroke="white" stroke-opacity="0.64"/>
<path fill-rule="evenodd" clip-rule="evenodd" d="M144.181 115.203C142.287 114.43 140.596 113.142 139.361 111.495C138.931 110.923 138.82 110.319 138.911 109.766C139.012 109.144 139.379 108.581 139.882 108.203C140.384 107.824 141.014 107.637 141.623 107.732C142.15 107.815 142.678 108.105 143.094 108.705L143.182 108.825C143.917 109.819 144.874 110.634 145.964 111.159C147.016 111.666 148.192 111.902 149.409 111.765C151.727 111.503 153.325 110.25 155.022 108.549C155.233 108.334 155.443 108.112 155.654 107.887C155.789 107.683 155.974 107.552 156.18 107.483C156.409 107.407 156.667 107.411 156.904 107.494C157.132 107.573 157.336 107.724 157.474 107.925C157.604 108.116 157.678 108.352 157.653 108.624C157.498 110.387 156.576 111.961 155.266 113.196C153.812 114.57 151.882 115.518 150.067 115.852C148.066 116.218 146.028 115.955 144.181 115.203ZM151.011 88.0001C153.139 89.2932 156.382 92.3084 154.091 95.5143C151.396 98.3409 147.517 95.0998 145.605 93.6342C143.832 92.4982 141.84 95.4197 143.485 96.7462C157.301 106.971 162.908 88.3382 152.088 86.4797C150.896 86.2749 150.453 87.6 151.011 88.0001ZM126.25 76.1059C126.486 73.1882 130.93 72.5257 131.374 75.4128C131.77 77.9989 131.303 80.3747 130.138 82.7032C129.024 84.9276 126.225 83.8899 126.014 81.8643C125.729 79.1491 126.105 77.9207 126.25 76.1059ZM160.088 74.8138C160.708 74.0026 161.603 73.4486 162.675 73.7616C166.026 74.7402 165.038 79.4936 163.862 81.8073C163.223 83.0638 161.157 83.3824 160.223 82.2761C158.701 80.472 157.971 76.869 159.906 75.0919C159.958 75.0001 160.017 74.9074 160.088 74.8138ZM130.091 63.3392L130.62 63.2465C132.257 62.9636 134.291 62.6917 135.449 64.0072C136.064 64.7046 136.275 66.0012 135.449 66.6688C133.998 67.8436 132.392 67.3883 130.652 67.4878C129.218 67.57 127.839 67.8073 126.459 68.2019C123.428 69.0677 120.959 70.6481 118.371 72.3834C118.031 72.6111 117.685 72.177 117.847 71.8594C119.341 68.9344 122.237 66.5316 125.136 65.067C126.685 64.2851 128.379 63.6367 130.091 63.3392ZM157.034 62.029L157.439 62.1117C161.846 63.0327 167.573 64.8721 169.66 69.1991C169.739 69.811 169.655 69.9421 169.587 70.0279L169.564 70.0564C169.508 70.1295 169.463 70.2303 169.198 70.3137C169.124 70.296 169.05 70.2775 168.974 70.2578C168.018 70.0073 167.261 69.662 166.528 69.3038L165.733 68.9126C164.813 68.4608 163.882 68.0254 162.896 67.704C160.793 67.0184 158.63 66.5353 156.433 66.2774C155.957 66.2215 155.499 66.0609 155.136 65.7856C154.794 65.5244 154.531 65.1625 154.412 64.6817C154.257 64.0594 154.302 63.5882 154.636 63.0268C154.887 62.6051 155.246 62.3128 155.659 62.1451C156.08 61.974 156.559 61.9336 157.034 62.029Z" fill="black"/>
<path fill-rule="evenodd" clip-rule="evenodd" d="M178.758 93.8151C177.824 92.5619 176.146 90.9169 174.447 91.0054C174.231 91.0165 174.148 91.2518 174.28 91.4109C174.834 92.0891 175.594 92.5713 176.151 93.2635C176.81 94.0828 177.285 95.0708 177.593 96.0701C178.043 97.5217 178.166 99.1647 177.767 100.641C177.061 103.243 174.829 105.15 172.395 106.124C169.985 107.088 167.086 107.417 164.806 106.005C161.444 103.92 158.59 100.914 154.361 100.854C153.374 100.84 152.676 101.293 152.261 101.939C151.843 101.316 151.156 100.875 150.192 100.864C145.452 100.811 141.914 104.073 137.937 106.106C135.249 107.48 131.77 107.054 128.996 106.145C126.38 105.289 123.54 103.57 122.552 100.855C122.008 99.3558 122.129 97.6052 122.689 96.1272C123.056 95.1552 123.624 94.2163 124.327 93.4526C125.055 92.6605 126.014 92.1622 126.759 91.4112C126.912 91.2577 126.791 91.019 126.592 91.0054C123.422 90.7903 120.56 94.5732 119.962 97.3178C119.372 100.021 120.251 102.716 122.03 104.779C125.647 108.972 132.343 110.355 137.556 109.123C141.775 108.126 145.781 105.829 150.192 106.159C151.159 106.231 151.852 105.828 152.271 105.218C152.691 105.846 153.389 106.257 154.361 106.163C158.472 105.765 162.141 108.675 166.131 109.385C169.308 109.95 172.739 109.188 175.461 107.477C178.306 105.689 180.309 102.821 180.44 99.4013C180.516 97.4341 179.939 95.3988 178.758 93.8151Z" fill="black"/>
</svg>
