<svg width="1709" height="488" viewBox="0 0 1709 488" fill="none" xmlns="http://www.w3.org/2000/svg">
<path opacity="0.0144928" d="M1701.48 409.855C1709.13 410.469 1715.61 409.364 1719.4 406.799L1863.91 309.117C1868.2 306.221 1868.6 301.773 1865.01 297.078L1756.19 154.821C1752.34 149.782 1744.37 145.094 1734.94 142.315L1455 59.8417C1446.93 57.4629 1438.61 56.7326 1432.15 57.834L1189.22 99.2484C1182.75 100.35 1178.76 103.178 1178.23 107.024L1159.87 240.348C1159.25 244.84 1163.43 250.174 1171.02 254.576L1385.29 378.857C1392.37 382.959 1401.57 385.769 1410.2 386.462L1701.48 409.855Z" stroke="url(#paint0_linear_1211_33)" stroke-width="4"/>
<path opacity="0.0289855" d="M1656.46 414.21C1663.41 414.907 1669.41 414.021 1673.24 411.733L1831.05 317.374C1835.76 314.56 1836.7 309.921 1833.59 304.84L1747.18 163.739C1743.65 157.986 1735.44 152.473 1725.59 149.251L1461.09 62.7039C1453.57 60.2442 1445.85 59.3692 1439.69 60.2788L1191.27 96.96C1185.11 97.8697 1181.04 100.486 1179.99 104.212L1142.88 235.296C1141.5 240.176 1145.47 246.316 1153.3 251.432L1345.45 376.919C1352.37 381.438 1361.46 384.597 1370 385.454L1656.46 414.21Z" stroke="url(#paint1_linear_1211_33)" stroke-width="4"/>
<path opacity="0.0434783" d="M1611.29 418.03C1617.6 418.793 1623.16 418.094 1626.98 416.057L1797.51 325.297C1802.61 322.582 1804.12 317.77 1801.59 312.311L1736.99 172.965C1733.96 166.441 1725.65 160.004 1715.47 156.31L1466.79 66.0696C1459.85 63.5492 1452.7 62.5546 1446.84 63.2919L1193.78 95.1157C1187.92 95.853 1183.79 98.2658 1182.24 101.854L1127.01 230.312C1124.75 235.57 1128.35 242.602 1136.31 248.504L1306.48 374.575C1313.15 379.514 1322.02 383.02 1330.42 384.037L1611.29 418.03Z" stroke="url(#paint2_linear_1211_33)" stroke-width="4"/>
<path opacity="0.057971" d="M1566.05 421.315C1571.77 422.13 1576.94 421.59 1580.75 419.778L1763.34 332.881C1768.8 330.28 1770.93 325.321 1769.09 319.505L1725.54 182.443C1723.21 175.115 1714.99 167.67 1704.59 163.488L1472.06 69.9291C1465.69 67.366 1459.09 66.2734 1453.51 66.8569L1196.67 93.7199C1191.09 94.3034 1186.91 96.5228 1184.92 99.9605L1112.24 225.442C1108.99 231.051 1112.02 239.04 1119.96 245.781L1268.45 371.867C1274.75 377.216 1283.3 381.058 1291.52 382.228L1566.05 421.315Z" stroke="url(#paint3_linear_1211_33)" stroke-width="4"/>
<path opacity="0.0724638" d="M1520.81 424.068C1526.03 424.927 1530.86 424.521 1534.64 422.906L1728.59 340.125C1734.39 337.649 1737.18 332.577 1736.11 326.442L1712.77 192.081C1711.36 183.956 1703.48 175.463 1693.02 170.791L1476.83 74.2718C1471.02 71.6793 1464.93 70.5059 1459.62 70.9528L1199.89 92.7733C1194.57 93.2202 1190.35 95.2594 1187.94 98.5416L1098.5 220.738C1094.17 226.652 1096.41 235.619 1104.11 243.216L1231.43 368.842C1237.25 374.578 1245.38 378.732 1253.38 380.048L1520.81 424.068Z" stroke="url(#paint4_linear_1211_33)" stroke-width="4"/>
<path opacity="0.0869565" d="M1478.33 426.015C1483.12 426.914 1487.67 426.623 1491.44 425.177L1695.99 346.752C1702.1 344.411 1705.58 339.267 1705.38 332.87L1701.32 201.466C1701.05 192.61 1693.83 183.099 1683.48 177.962L1483.72 78.8076C1478.45 76.1924 1472.82 74.9496 1467.73 75.2752L1206.05 91.9949C1200.95 92.3204 1196.68 94.1957 1193.89 97.3254L1088.41 215.983C1082.94 222.131 1084.12 232.027 1091.32 240.441L1198.16 365.278C1203.36 371.355 1210.98 375.79 1218.73 377.245L1478.33 426.015Z" stroke="url(#paint5_linear_1211_33)" stroke-width="4"/>
<path opacity="0.101449" d="M1433.34 427.724C1437.77 428.665 1442.12 428.473 1445.9 427.17L1660.24 353.328C1666.63 351.127 1670.82 345.961 1671.55 339.377L1685.88 210.986C1686.93 201.54 1680.71 191.143 1670.69 185.591L1487.34 84.0834C1482.57 81.4438 1477.34 80.1363 1472.42 80.3534L1209.75 91.9393C1204.83 92.1564 1200.48 93.8864 1197.34 96.875L1076.48 211.801C1069.87 218.087 1069.73 228.764 1076.14 237.881L1163.31 361.795C1167.78 368.149 1174.81 372.82 1182.3 374.41L1433.34 427.724Z" stroke="url(#paint6_linear_1211_33)" stroke-width="4"/>
<path opacity="0.115942" d="M1388.59 428.927C1392.74 429.917 1396.96 429.813 1400.79 428.627L1624.03 359.583C1630.69 357.523 1635.6 352.388 1637.3 345.708L1669.26 220.179C1671.76 210.361 1666.84 199.324 1657.35 193.437L1490.3 89.8064C1485.99 87.1322 1481.09 85.7575 1476.28 85.8755L1213.63 92.3225C1208.82 92.4405 1204.36 94.0451 1200.86 96.911L1065.24 207.971C1057.53 214.28 1055.88 225.478 1061.22 235.104L1129.58 358.17C1133.21 364.719 1139.59 369.577 1146.8 371.297L1388.59 428.927Z" stroke="url(#paint7_linear_1211_33)" stroke-width="4"/>
<path opacity="0.130435" d="M1344.13 429.634C1348.08 430.686 1352.25 430.665 1356.19 429.573L1587.39 365.52C1594.32 363.601 1599.95 358.553 1602.61 351.875L1651.66 228.898C1655.61 218.983 1652.22 207.65 1643.48 201.531L1492.56 95.9612C1488.66 93.2348 1484.02 91.7838 1479.26 91.808L1217.63 93.1407C1212.87 93.1649 1208.24 94.6631 1204.37 97.429L1054.54 204.531C1045.85 210.738 1042.58 222.105 1046.63 231.98L1096.93 354.451C1099.66 361.101 1105.35 366.091 1112.29 367.94L1344.13 429.634Z" stroke="url(#paint8_linear_1211_33)" stroke-width="4"/>
<path opacity="0.144928" d="M1301.83 429.67C1305.65 430.801 1309.84 430.861 1313.95 429.844L1552.13 370.951C1559.33 369.172 1565.66 364.266 1569.24 357.692L1635.1 236.894C1640.4 227.176 1638.61 215.933 1630.78 209.701L1495.84 102.346C1492.32 99.5454 1487.86 98.0038 1483.08 97.9353L1223.48 94.2086C1218.7 94.14 1213.84 95.5478 1209.57 98.2365L1046.01 201.307C1036.51 207.289 1031.68 218.438 1034.32 228.269L1067.13 350.484C1068.91 357.135 1073.88 362.203 1080.57 364.181L1301.83 429.67Z" stroke="url(#paint9_linear_1211_33)" stroke-width="4"/>
<path opacity="0.15942" d="M1258.19 429.411C1261.94 430.642 1266.22 430.787 1270.58 429.831L1514.74 376.237C1522.2 374.6 1529.19 369.889 1533.62 363.512L1616.23 244.578C1622.66 235.324 1622.4 224.527 1615.6 218.302L1496.51 109.315C1493.34 106.419 1489.01 104.769 1484.15 104.604L1227.56 95.9039C1222.69 95.7389 1217.53 97.067 1212.84 99.6969L1036 198.65C1025.9 204.301 1019.7 214.88 1020.92 224.393L1036.55 346.658C1037.39 353.214 1041.65 358.306 1048.07 360.414L1258.19 429.411Z" stroke="url(#paint10_linear_1211_33)" stroke-width="4"/>
<path opacity="0.173913" d="M1215.06 428.676C1218.79 430.03 1223.24 430.27 1227.91 429.366L1477.05 381.178C1484.76 379.685 1492.35 375.217 1497.52 369.116L1596.94 251.884C1604.22 243.294 1605.3 233.213 1599.58 227.105L1496.29 116.664C1493.47 113.652 1489.23 111.876 1484.22 111.607L1231.57 98.0477C1226.56 97.7786 1221.05 99.0311 1215.88 101.614L1026.26 196.334C1015.77 201.573 1008.5 211.321 1008.4 220.296L1006.94 342.785C1006.87 349.161 1010.44 354.228 1016.59 356.465L1215.06 428.676Z" stroke="url(#paint11_linear_1211_33)" stroke-width="4"/>
<path opacity="0.188406" d="M1172.54 427.472C1176.26 428.973 1180.95 429.319 1186.01 428.466L1439.12 385.758C1447.08 384.414 1455.19 380.228 1460.99 374.463L1577.24 258.958C1585.09 251.154 1587.26 241.952 1582.63 236.049L1495.11 124.369C1492.65 121.23 1488.47 119.311 1483.26 118.926L1235.46 100.648C1230.25 100.263 1224.32 101.437 1218.65 103.977L1016.79 194.311C1006.12 199.086 998.114 207.857 996.859 216.148L978.277 338.857C977.35 344.981 980.259 349.98 986.125 352.344L1172.54 427.472Z" stroke="url(#paint12_linear_1211_33)" stroke-width="4"/>
<path opacity="0.202899" d="M1130.69 425.805C1134.43 427.477 1139.42 427.947 1144.92 427.147L1401.03 389.963C1409.21 388.774 1417.75 384.9 1424.06 379.514L1557.07 265.931C1565.24 258.96 1568.24 250.698 1564.65 245.067L1492.92 132.407C1490.84 129.134 1486.71 127.055 1481.27 126.542L1239.12 103.708C1233.68 103.195 1227.29 104.281 1221.09 106.772L1007.63 192.539C996.961 196.826 988.526 204.575 986.329 212.108L950.535 334.859C948.838 340.68 951.115 345.574 956.678 348.06L1130.69 425.805Z" stroke="url(#paint13_linear_1211_33)" stroke-width="4"/>
<path opacity="0.217391" d="M1091.39 423.502C1095.15 425.368 1100.47 425.982 1106.48 425.245L1364.63 393.599C1373.01 392.572 1381.89 389.03 1388.58 384.045L1538.14 272.706C1546.4 266.56 1550 259.228 1547.38 253.913L1491.45 140.561C1489.77 137.157 1485.68 134.906 1479.98 134.249L1244.27 107.042C1238.57 106.385 1231.68 107.369 1224.95 109.801L1000.6 190.802C990.078 194.601 981.476 201.355 978.547 208.116L925.495 330.594C923.12 336.078 924.805 340.839 930.042 343.437L1091.39 423.502Z" stroke="url(#paint14_linear_1211_33)" stroke-width="4"/>
<path opacity="0.231884" d="M1051.13 420.951C1054.9 423.033 1060.6 423.816 1067.18 423.154M1051.13 420.951L1067.18 423.154M1051.13 420.951L1049.1 422.163L1067.18 423.154M1051.13 420.951L902.664 338.865C897.779 336.164 896.645 331.557 899.603 326.429L969.866 204.628C973.336 198.613 981.904 192.781 992.157 189.456L1226.6 113.422C1233.87 111.063 1241.29 110.201 1247.25 111.019L1475.83 142.396C1481.79 143.215 1485.83 145.649 1487.08 149.177L1527.23 262.906C1528.99 267.88 1524.98 274.337 1516.79 279.704L1351.07 388.401C1344.09 392.977 1334.96 396.176 1326.43 397.035L1067.18 423.154" stroke="url(#paint15_linear_1211_33)" stroke-width="4"/>
<path opacity="0.246377" d="M1011.78 417.981C1015.54 420.304 1021.66 421.284 1028.85 420.712L1288.28 400.087C1296.93 399.4 1306.21 396.547 1313.37 392.375L1494.74 286.752C1502.73 282.097 1507 276.438 1506.01 271.816L1481.56 158.038C1480.78 154.399 1476.8 151.772 1470.56 150.774L1249.77 115.445C1243.54 114.447 1235.59 115.167 1227.79 117.434L984.107 188.307C974.208 191.186 965.82 196.187 961.973 201.505L874.655 322.177C871.207 326.943 871.831 331.381 876.343 334.173L1011.78 417.981Z" stroke="url(#paint16_linear_1211_33)" stroke-width="4"/>
<path opacity="0.26087" d="M973.403 414.615C977.112 417.199 983.681 418.407 991.526 417.946L1250.24 402.759C1258.95 402.248 1268.3 399.736 1275.57 395.957L1471.92 293.84C1479.64 289.825 1484.05 284.878 1483.72 280.607L1474.87 167.115C1474.58 163.379 1470.68 160.551 1464.17 159.354L1251.77 120.31C1245.26 119.113 1236.78 119.664 1228.48 121.822L976.45 187.357C966.966 189.823 958.86 194.091 954.767 198.772L850.668 317.848C846.815 322.254 846.971 326.514 851.089 329.384L973.403 414.615Z" stroke="url(#paint17_linear_1211_33)" stroke-width="4"/>
<path opacity="0.275362" d="M936.052 410.871C939.677 413.739 946.722 415.211 955.261 414.885L1212.36 405.058C1221.1 404.724 1230.45 402.544 1237.75 399.14L1448.32 300.945C1455.72 297.498 1460.18 293.18 1460.41 289.252L1466.98 176.38C1467.2 172.563 1463.4 169.526 1456.63 168.111L1253.17 125.6C1246.4 124.185 1237.38 124.542 1228.61 126.573L969.177 186.61C960.15 188.699 952.388 192.328 948.157 196.436L827.656 313.452C823.479 317.508 823.206 321.585 826.914 324.519L936.052 410.871Z" stroke="url(#paint18_linear_1211_33)" stroke-width="4"/>
<path opacity="0.289855" d="M899.786 406.773C903.278 409.946 910.824 411.724 920.09 411.557L1174.7 406.991C1183.41 406.835 1192.69 404.974 1199.97 401.924L1423.93 308.04C1430.96 305.09 1435.41 301.325 1436.11 297.727L1457.88 185.803C1458.63 181.923 1454.95 178.67 1447.93 177.015L1253.93 131.303C1246.9 129.648 1237.36 129.784 1228.14 131.67L962.271 186.076C953.724 187.825 946.344 190.899 942.058 194.497L805.634 309.007C801.203 312.727 800.538 316.617 803.823 319.602L899.786 406.773Z" stroke="url(#paint19_linear_1211_33)" stroke-width="4"/>
<path opacity="0.304348" d="M864.655 402.343C867.959 405.84 876.028 407.972 886.05 407.995L1137.3 408.569C1145.95 408.588 1155.11 407.031 1162.31 404.314L1398.74 315.093C1405.4 312.578 1409.79 309.296 1410.88 306.011L1447.56 195.357C1448.86 191.433 1445.31 187.954 1438.05 186.037L1253.97 137.404C1246.71 135.487 1236.66 135.373 1227.03 137.099L955.705 185.762C947.65 187.207 940.672 189.804 936.393 192.95L784.609 304.533C779.987 307.931 778.966 311.636 781.819 314.656L864.655 402.343Z" stroke="url(#paint20_linear_1211_33)" stroke-width="4"/>
<path opacity="0.318841" d="M833.381 397.323C836.433 401.166 845.042 403.706 855.845 403.949L1102.89 409.521C1111.44 409.714 1120.41 408.444 1127.49 406.037L1375.44 321.795C1381.73 319.658 1386.02 316.8 1387.42 313.809L1438.68 204.737C1440.54 200.784 1437.15 197.069 1429.68 194.865L1255.92 143.61C1248.45 141.406 1237.91 141.013 1227.92 142.565L952.122 185.4C944.56 186.575 937.99 188.761 933.767 191.506L767.258 299.773C762.501 302.866 761.157 306.386 763.573 309.427L833.381 397.323Z" stroke="url(#paint21_linear_1211_33)" stroke-width="4"/>
<path opacity="0.333333" d="M800.661 392.295C803.39 396.503 812.554 399.514 824.155 400.013L1066.17 410.419C1074.57 410.78 1083.31 409.779 1090.24 407.66L1348.72 328.676C1354.63 326.868 1358.8 324.38 1360.45 321.665L1425.9 214.473C1428.32 210.509 1425.11 206.546 1417.45 204.029L1254.39 150.464C1246.73 147.946 1235.73 147.243 1225.41 148.609L946.14 185.558C939.066 186.494 932.901 188.326 928.77 190.719L748.234 295.307C743.391 298.112 741.757 301.449 743.733 304.496L800.661 392.295Z" stroke="url(#paint22_linear_1211_33)" stroke-width="4"/>
<path opacity="0.347826" d="M769.212 387.002C771.538 391.595 781.265 395.149 793.678 395.94L1029.84 410.994C1038.05 411.518 1046.53 410.766 1053.28 408.914L1321.26 335.429C1326.81 333.908 1330.83 331.743 1332.69 329.285L1411.89 224.26C1414.87 220.3 1411.88 216.076 1404.05 213.217L1252.01 157.671C1244.19 154.813 1232.76 153.766 1222.14 154.936L940.393 185.963C933.797 186.69 928.027 188.217 924.016 190.299L730.202 290.88C725.317 293.415 723.423 296.57 724.962 299.609L769.212 387.002Z" stroke="url(#paint23_linear_1211_33)" stroke-width="4"/>
<path opacity="0.362319" d="M739.074 381.466C740.909 386.462 751.199 390.643 764.429 391.766L993.956 411.259C1001.94 411.937 1010.11 411.416 1016.66 409.81L1293.1 342.031C1298.3 340.759 1302.17 338.878 1304.17 336.657L1396.65 234.072C1400.21 230.131 1397.44 225.628 1389.49 222.396L1248.73 165.219C1240.78 161.986 1228.95 160.563 1218.07 161.527L934.84 186.624C928.708 187.167 923.323 188.433 919.449 190.24L713.151 286.514C708.264 288.795 706.139 291.772 707.247 294.788L739.074 381.466Z" stroke="url(#paint24_linear_1211_33)" stroke-width="4"/>
<path opacity="0.376812" d="M710.287 375.711C711.533 381.126 722.378 386.03 736.421 387.528L958.551 411.226C966.275 412.05 974.111 411.74 980.436 410.36L1264.29 348.46C1269.13 347.403 1272.84 345.772 1274.95 343.771L1380.2 243.882C1384.32 239.973 1381.82 235.174 1373.77 231.534L1244.52 173.091C1236.47 169.451 1224.29 167.614 1213.18 168.364L929.441 187.545C923.756 187.93 918.739 188.97 915.017 190.536L697.067 282.234C692.21 284.277 689.884 287.078 690.57 290.057L710.287 375.711Z" stroke="url(#paint25_linear_1211_33)" stroke-width="4"/>
<path opacity="0.391304" d="M682.889 369.761C683.442 375.608 694.817 381.346 709.659 383.263L923.66 410.908C931.087 411.868 938.565 411.75 944.649 410.578L1234.85 354.695C1239.37 353.825 1242.91 352.414 1245.09 350.615L1362.55 253.666C1367.23 249.801 1365.03 244.683 1356.93 240.597L1239.32 181.274C1231.22 177.188 1218.74 174.899 1207.45 175.429L924.152 188.733C918.895 188.979 914.231 189.826 910.67 191.178L681.93 278.061C677.134 279.883 674.633 282.51 674.91 285.437L682.889 369.761Z" stroke="url(#paint26_linear_1211_33)" stroke-width="4"/>
<path opacity="0.405797" d="M656.917 363.638C656.664 369.929 668.526 376.628 684.137 379.01L889.316 410.32C896.414 411.403 903.515 411.459 909.346 410.477L1204.82 360.72C1209.03 360.012 1212.4 358.793 1214.62 357.18L1343.72 263.396C1348.96 259.589 1347.09 254.126 1339 249.552L1233.11 189.754C1225.01 185.181 1212.27 182.397 1200.83 182.701L918.93 190.189C914.082 190.318 909.753 190.997 906.359 192.162L667.716 274.017C663.007 275.632 660.357 278.09 660.242 280.951L656.917 363.638Z" stroke="url(#paint27_linear_1211_33)" stroke-width="4"/>
<path opacity="0.42029" d="M632.409 357.37C631.23 364.11 643.504 371.912 659.839 374.806L855.549 409.475C862.291 410.669 868.999 410.879 874.567 410.07L1174.26 366.517C1178.17 365.95 1181.37 364.901 1183.61 363.458L1323.72 273.047C1329.51 269.309 1328.03 263.474 1320 258.369L1225.84 198.515C1217.8 193.41 1204.88 190.089 1193.32 190.162L913.733 191.917C909.272 191.945 905.261 192.481 902.034 193.48L654.398 270.123C649.798 271.546 647.025 273.838 646.539 276.62L632.409 357.37Z" stroke="url(#paint28_linear_1211_33)" stroke-width="4"/>
<path opacity="0.434783" d="M609.397 350.987C607.166 358.175 619.742 367.238 636.737 370.689L822.387 408.387C828.748 409.679 835.056 410.025 840.354 409.372L1143.2 372.074C1146.82 371.628 1149.86 370.728 1152.09 369.441L1302.58 282.596C1308.92 278.938 1307.88 272.702 1299.99 267.018L1217.46 207.541C1209.57 201.857 1196.53 197.953 1184.89 197.79L908.518 193.918C904.422 193.861 900.708 194.274 897.648 195.127L641.948 266.398C637.474 267.645 634.602 269.775 633.767 272.466L609.397 350.987Z" stroke="url(#paint29_linear_1211_33)" stroke-width="4"/>
<path opacity="0.449275" d="M587.909 344.525C584.5 352.151 597.216 362.641 614.78 366.692L789.852 407.07C795.815 408.446 801.719 408.91 806.747 408.398L1111.69 377.377C1115.05 377.035 1117.92 376.267 1120.13 375.12L1280.33 292.017C1287.21 288.451 1286.68 281.783 1279.04 275.473L1207.93 216.81C1200.28 210.5 1187.23 205.968 1175.54 205.566L903.243 196.192C899.486 196.062 896.051 196.37 893.154 197.095L630.332 262.861C625.999 263.946 623.049 265.919 621.892 268.509L587.909 344.525Z" stroke="url(#paint30_linear_1211_33)" stroke-width="4"/>
<path opacity="0.463768" d="M567.962 338.028C563.25 346.072 575.877 358.156 593.893 362.844L757.964 405.539C763.519 406.985 769.024 407.551 773.785 407.166L1079.77 382.417C1082.88 382.165 1085.61 381.511 1087.79 380.492L1257.02 301.287C1264.42 297.824 1264.49 290.698 1257.19 283.717L1197.19 226.295C1189.9 219.315 1176.95 214.112 1165.25 213.468L897.866 198.736C894.424 198.546 891.245 198.764 888.504 199.377L619.518 259.53C615.332 260.466 612.324 262.289 610.871 264.769L567.962 338.028Z" stroke="url(#paint31_linear_1211_33)" stroke-width="4"/>
<path opacity="0.478261" d="M549.549 331.553C543.421 339.98 555.653 353.808 573.969 359.161L726.742 403.808C731.886 405.311 737.003 405.964 741.507 405.692L1047.49 387.186C1050.38 387.011 1052.96 386.457 1055.1 385.551L1232.67 310.385C1240.58 307.036 1241.35 299.432 1234.55 291.746L1185.2 235.957C1178.4 228.272 1165.69 222.364 1154.03 221.476L892.347 201.548C889.192 201.307 886.245 201.448 883.65 201.964L609.469 256.418C605.433 257.219 602.38 258.899 600.659 261.266L549.549 331.553Z" stroke="url(#paint32_linear_1211_33)" stroke-width="4"/>
<path opacity="0.492754" d="M532.631 325.178C524.993 333.936 536.43 349.608 554.862 355.64L696.198 401.891C700.939 403.442 705.687 404.169 709.95 403.997L1014.89 391.679C1017.59 391.57 1020.04 391.102 1022.15 390.296L1207.33 319.291C1215.74 316.067 1217.32 307.981 1211.19 299.574L1171.9 245.738C1165.76 237.331 1153.44 230.699 1141.86 229.566L886.647 204.622C883.749 204.339 881.009 204.414 878.546 204.845L600.15 253.538C596.258 254.219 593.169 255.766 591.205 258.018L532.631 325.178Z" stroke="url(#paint33_linear_1211_33)" stroke-width="4"/>
<path opacity="0.507246" d="M517.113 318.998C507.9 328.016 518.059 345.548 536.384 352.252L666.344 399.803C670.696 401.395 675.105 402.188 679.151 402.105L982.026 395.893C984.555 395.841 986.899 395.448 988.969 394.729L1181.06 327.988C1189.95 324.901 1192.47 316.353 1187.19 307.24L1157.24 255.556C1151.96 246.443 1140.22 239.093 1128.75 237.716L880.728 207.951C878.055 207.63 875.494 207.649 873.143 208.007L591.525 250.9C587.764 251.473 584.64 252.899 582.452 255.041L517.113 318.998Z" stroke="url(#paint34_linear_1211_33)" stroke-width="4"/>
<path opacity="0.521739" d="M504.605 312.949C493.798 322.135 502.136 341.401 520.1 348.749L638.967 397.372C642.957 399.005 647.064 399.857 650.926 399.854L950.717 399.643C953.106 399.641 955.365 399.312 957.415 398.667L1155.7 336.276C1165.03 333.339 1168.63 324.387 1164.41 314.627L1142.98 265.116C1138.76 255.356 1127.81 247.333 1116.5 245.715L876.34 211.338C873.856 210.982 871.441 210.952 869.179 211.247L585.344 248.326C581.688 248.803 578.52 250.12 576.12 252.161L504.605 312.949Z" stroke="url(#paint35_linear_1211_33)" stroke-width="4"/>
<path opacity="0.536232" d="M491.291 307.532C478.926 316.775 484.902 337.47 502.225 345.403L610.51 394.989C614.17 396.665 618.019 397.577 621.738 397.648L917.438 403.304C919.723 403.348 921.926 403.073 923.976 402.49L1127.72 344.518C1137.47 341.743 1142.28 332.49 1139.31 322.203L1125.58 274.654C1122.61 264.366 1112.65 255.765 1101.56 253.909L869.887 215.143C867.555 214.753 865.251 214.678 863.049 214.919L578.01 246.191C574.426 246.584 571.193 247.808 568.581 249.761L491.291 307.532Z" stroke="url(#paint36_linear_1211_33)" stroke-width="4"/>
<path opacity="0.550725" d="M478.633 302.684C464.812 311.855 467.978 333.482 484.376 341.911L582.757 392.484C586.123 394.213 589.764 395.188 593.388 395.33L884.007 406.695C886.225 406.782 888.407 406.555 890.484 406.022L1098.96 352.52C1109.1 349.918 1115.2 340.518 1113.64 329.883L1106.9 283.845C1105.34 273.21 1096.55 264.175 1085.72 262.088L863.127 219.167C860.908 218.74 858.676 218.621 856.499 218.816L571.277 244.315C567.721 244.633 564.39 245.779 561.554 247.661L478.633 302.684Z" stroke="url(#paint37_linear_1211_33)" stroke-width="4"/>
<path opacity="0.565217" d="M466.296 298.482C451.188 307.446 451.299 329.353 466.498 338.162L555.711 389.871C558.816 391.67 562.299 392.719 565.882 392.931L850.456 409.819C852.647 409.949 854.847 409.765 856.986 409.272L1069.49 360.275C1079.97 357.858 1087.37 348.501 1087.32 337.745L1087.09 292.575C1087.03 281.819 1079.53 272.538 1069.03 270.228L856.039 223.398C853.895 222.927 851.694 222.765 849.504 222.917L565.117 242.704C561.537 242.953 558.064 244.036 554.978 245.867L466.296 298.482Z" stroke="url(#paint38_linear_1211_33)" stroke-width="4"/>
<path opacity="0.57971" d="M454.012 294.937C437.843 303.561 434.922 325.039 448.686 334.092L529.377 387.165C532.248 389.054 535.62 390.189 539.216 390.476L816.815 412.676C819.021 412.853 821.28 412.708 823.52 412.246L1039.33 367.771C1050.11 365.55 1058.77 356.44 1060.22 345.812L1066.34 300.786C1067.79 290.158 1061.63 280.835 1051.5 278.314L848.605 227.829C846.498 227.304 844.288 227.095 842.043 227.208L559.498 241.367C555.838 241.55 552.171 242.584 548.798 244.383L454.012 294.937Z" stroke="url(#paint39_linear_1211_33)" stroke-width="4"/>
<path opacity="0.594203" d="M441.64 291.987C424.679 300.151 419.012 320.557 431.165 329.709L503.762 384.378C506.416 386.377 509.715 387.614 513.373 387.984L783.118 415.26C785.377 415.488 787.739 415.383 790.124 414.946L1008.54 374.997C1019.56 372.981 1029.36 364.304 1032.21 354.033L1044.86 308.496C1047.71 298.225 1042.87 289.051 1033.16 286.332L840.804 232.455C838.703 231.866 836.443 231.604 834.101 231.676L554.381 240.321C550.587 240.439 546.668 241.432 542.964 243.214L441.64 291.987Z" stroke="url(#paint40_linear_1211_33)" stroke-width="4"/>
<path opacity="0.608696" d="M429.183 289.521C411.715 297.13 403.784 315.98 414.218 325.087L478.881 381.522C481.316 383.648 484.569 385.006 488.335 385.469L749.403 417.561C751.751 417.85 754.259 417.786 756.834 417.372L977.151 381.937C988.373 380.132 999.123 372.034 1003.22 362.301L1022.79 315.779C1026.89 306.046 1023.28 297.178 1014.04 294.274L832.611 237.277C830.489 236.611 828.145 236.286 825.664 236.316L549.716 239.586C545.736 239.633 541.509 240.59 537.432 242.366L429.183 289.521Z" stroke="url(#paint41_linear_1211_33)" stroke-width="4"/>
<path opacity="0.623188" d="M416.744 287.419C399.053 294.405 389.427 311.412 398.109 320.343L454.748 378.61C456.952 380.877 460.172 382.372 464.078 382.94L715.715 419.571C718.183 419.93 720.878 419.913 723.69 419.52L945.217 388.573C956.588 386.984 968.079 379.561 973.216 370.485L1000.24 322.738C1005.38 313.663 1002.87 305.207 994.14 302.135L823.996 242.297C821.837 241.538 819.376 241.14 816.716 241.121L545.444 239.181C541.233 239.151 536.647 240.069 532.156 241.843L416.744 287.419Z" stroke="url(#paint42_linear_1211_33)" stroke-width="4"/>
<path opacity="0.637681" d="M404.474 285.575C386.822 291.898 376.062 306.962 383.023 315.606L431.378 375.657C433.323 378.074 436.512 379.72 440.582 380.408L682.104 421.28C684.718 421.723 687.641 421.76 690.731 421.391L912.789 394.891C924.259 393.522 936.281 386.817 942.25 378.461L977.243 329.47C983.211 321.114 981.68 313.131 973.489 309.908L814.926 247.514C812.719 246.646 810.115 246.162 807.238 246.087L541.497 239.123C537.02 239.005 532.03 239.88 527.096 241.648L404.474 285.575Z" stroke="url(#paint43_linear_1211_33)" stroke-width="4"/>
<path opacity="0.652174" d="M392.517 283.919C375.136 289.566 363.735 302.723 369.058 310.991L408.781 372.683C410.433 375.249 413.581 377.059 417.825 377.883L648.619 422.684C651.402 423.224 654.589 423.327 658.002 422.987L879.919 400.879C891.441 399.731 903.799 393.752 910.403 386.131L953.803 336.047C960.407 328.426 959.715 320.941 952.097 317.584L805.367 252.925C803.11 251.931 800.341 251.347 797.212 251.204L537.804 239.425C533.033 239.209 527.606 240.029 522.211 241.782L392.517 283.919Z" stroke="url(#paint44_linear_1211_33)" stroke-width="4"/>
<path opacity="0.666667" d="M380.988 282.41C364.069 287.389 352.424 298.764 356.233 306.588L386.959 369.706C388.279 372.417 391.367 374.4 395.788 375.374L615.315 423.779C618.283 424.434 621.77 424.615 625.546 424.312L846.664 406.527C858.191 405.6 870.715 400.326 877.781 393.425L929.905 342.515C936.97 335.614 937 328.625 929.978 325.152L795.283 258.525C792.983 257.387 790.03 256.685 786.618 256.463L534.29 240.097C529.208 239.768 523.321 240.518 517.459 242.244L380.988 282.41Z" stroke="url(#paint45_linear_1211_33)" stroke-width="4"/>
<path opacity="0.681159" d="M369.961 281.033C353.658 285.37 342.069 295.131 344.511 302.467L365.91 366.748C366.857 369.593 369.861 371.755 374.451 372.896L582.239 424.567C585.407 425.355 589.226 425.63 593.405 425.373L813.084 411.829C824.571 411.121 837.114 406.517 844.495 400.301L905.529 348.896C912.91 342.68 913.558 336.173 907.152 332.602L784.644 264.305C782.313 263.006 779.163 262.166 775.435 261.851L530.884 241.143C525.481 240.686 519.122 241.35 512.801 243.032L369.961 281.033Z" stroke="url(#paint46_linear_1211_33)" stroke-width="4"/>
<path opacity="0.695652" d="M359.473 279.79C343.904 283.521 332.585 291.854 333.82 298.676L345.622 363.83C346.158 366.792 349.048 369.138 353.792 370.461L549.442 425.049C552.817 425.991 557.003 426.38 561.623 426.18L779.237 416.782C790.638 416.29 803.079 412.311 810.652 406.736L880.662 355.194C888.236 349.619 889.415 343.57 883.641 339.92L773.417 270.256C771.077 268.777 767.72 267.779 763.647 267.351L527.515 242.566C521.789 241.965 514.956 242.523 508.194 244.144L359.473 279.79Z" stroke="url(#paint47_linear_1211_33)" stroke-width="4"/>
<path opacity="0.710145" d="M349.536 278.692C334.781 281.864 323.879 288.951 324.071 295.245L326.077 360.971C326.17 364.032 328.914 366.562 333.79 368.083L516.969 425.229C520.556 426.348 525.14 426.872 530.238 426.745L745.184 421.383C756.453 421.102 768.691 417.7 776.357 412.718L855.298 361.403C862.963 356.42 864.6 350.803 859.468 347.095L761.577 276.367C759.255 274.689 755.682 273.508 751.235 272.949L524.116 244.364C518.071 243.603 510.772 244.035 503.598 245.576L349.536 278.692Z" stroke="url(#paint48_linear_1211_33)" stroke-width="4"/>
<path opacity="0.724638" d="M340.134 277.758C326.247 280.418 315.855 286.428 315.164 292.197L307.252 358.19C306.876 361.327 309.441 364.04 314.42 365.774L484.864 425.11C488.664 426.433 493.678 427.118 499.289 427.079L710.984 425.633C722.077 425.557 734.028 422.683 741.702 418.245L829.439 367.51C837.113 363.072 839.145 357.861 834.662 354.115L749.096 282.625C746.828 280.73 743.036 279.34 738.185 278.624L520.622 246.535C514.266 245.597 506.519 245.881 498.969 247.327L340.134 277.758Z" stroke="url(#paint49_linear_1211_33)" stroke-width="4"/>
<path opacity="0.73913" d="M331.241 277.006C318.25 279.206 308.422 284.289 306.998 289.545L289.122 355.503C288.258 358.693 290.61 361.587 295.658 363.547L453.17 424.697C457.179 426.253 462.654 427.129 468.812 427.198L676.697 429.533C687.568 429.655 699.162 427.261 706.777 423.322L803.096 373.501C810.712 369.562 813.084 364.731 809.251 360.969L735.951 289.02C733.78 286.888 729.766 285.257 724.485 284.359L516.968 249.074C510.317 247.943 502.147 248.058 494.264 249.393L331.241 277.006Z" stroke="url(#paint50_linear_1211_33)" stroke-width="4"/>
<path opacity="0.753623" d="M322.815 276.454C310.728 278.245 301.491 282.535 299.473 287.296L271.657 352.926C270.293 356.144 272.399 359.216 277.478 361.416L421.929 423.993C426.137 425.816 432.105 426.917 438.841 427.115L642.382 433.085C652.984 433.396 664.164 431.437 671.664 427.953L776.288 379.358C783.788 375.874 786.453 371.403 783.267 367.647L722.12 295.537C720.097 293.151 715.863 291.243 710.124 290.132L513.094 251.976C506.167 250.635 497.607 250.56 489.438 251.77L322.815 276.454Z" stroke="url(#paint51_linear_1211_33)" stroke-width="4"/>
<path opacity="0.768116" d="M314.809 276.121C303.619 277.55 294.979 281.163 292.494 285.452L254.824 350.471C252.957 353.693 254.785 356.937 259.85 359.391L391.182 423C395.573 425.127 402.064 426.497 409.406 426.846L608.095 436.294C618.384 436.784 629.103 435.215 636.44 432.148L749.038 385.065C756.375 381.997 759.288 377.865 756.742 374.137L707.581 302.164C705.765 299.504 701.316 297.281 695.092 295.92L508.942 255.233C501.762 253.664 492.853 253.381 484.446 254.454L314.809 276.121Z" stroke="url(#paint52_linear_1211_33)" stroke-width="4"/>
<path opacity="0.782609" d="M307.172 276.022C296.857 277.136 288.808 280.17 285.968 284.015L238.589 348.152C236.223 351.354 237.742 354.764 242.746 357.483L360.97 421.722C365.521 424.196 372.562 425.882 380.534 426.408L573.892 439.166C583.824 439.821 594.043 438.603 601.177 435.914L721.374 390.608C728.508 387.919 731.63 384.108 729.709 380.433L692.314 308.887C690.773 305.937 686.12 303.351 679.385 301.701L504.452 258.838C497.048 257.023 487.836 256.513 479.244 257.441L307.172 276.022Z" stroke="url(#paint53_linear_1211_33)" stroke-width="4"/>
<path opacity="0.797101" d="M299.846 276.171C290.377 277.012 282.904 279.552 279.807 282.981L222.918 345.979C220.064 349.139 221.244 352.707 226.133 355.703L331.335 420.16C336.014 423.027 343.629 425.086 352.25 425.817L539.828 441.706C549.358 442.513 559.047 441.607 565.945 439.262L693.328 395.973C700.226 393.629 703.519 390.124 702.203 386.525L676.301 315.692C675.111 312.437 670.267 309.435 663 307.449L499.569 262.779C491.974 260.703 482.514 259.949 473.788 260.724L299.846 276.171Z" stroke="url(#paint54_linear_1211_33)" stroke-width="4"/>
<path opacity="0.811594" d="M292.775 276.579C284.115 277.186 277.195 279.304 273.926 282.348L207.773 343.962C204.449 347.058 205.26 350.776 209.977 354.057L302.322 418.314C307.083 421.627 315.293 424.127 324.575 425.091L505.951 443.922C515.041 444.866 524.176 444.234 530.812 442.203L664.933 401.149C671.568 399.118 674.994 395.905 674.256 392.405L659.524 322.565C658.77 318.99 653.757 315.512 645.937 313.136L494.238 267.047C486.49 264.693 476.84 263.68 468.033 264.298L292.775 276.579Z" stroke="url(#paint55_linear_1211_33)" stroke-width="4"/>
<path opacity="0.826087" d="M285.9 277.254C278.007 277.662 271.615 279.421 268.247 282.111L193.118 342.11C189.347 345.121 189.763 348.979 194.243 352.554L273.98 416.184C278.763 420.001 287.578 423.019 297.526 424.247L472.311 445.822C480.924 446.885 489.49 446.493 495.841 444.746L636.225 406.125C642.576 404.378 646.1 401.443 645.906 398.064L641.965 329.488C641.741 325.585 636.589 321.559 628.202 318.733L488.404 271.627C480.548 268.98 470.773 267.698 461.937 268.155L285.9 277.254Z" stroke="url(#paint56_linear_1211_33)" stroke-width="4"/>
<path opacity="0.84058" d="M279.161 278.205C271.99 278.445 266.1 279.897 262.692 282.263L178.914 340.43C174.725 343.338 174.718 347.323 178.895 351.197L246.359 413.767C251.087 418.152 260.506 421.781 271.114 423.305L438.953 447.415C447.057 448.579 455.046 448.395 461.094 446.905L607.241 410.893C613.289 409.402 616.879 406.733 617.189 403.496L623.611 336.446C624.017 332.209 618.766 327.553 609.809 324.21L482.013 276.506C474.1 273.553 464.272 271.991 455.458 272.287L279.161 278.205Z" stroke="url(#paint57_linear_1211_33)" stroke-width="4"/>
<path opacity="0.855072" d="M272.501 279.434C266.005 279.536 260.586 280.726 257.189 282.797L165.121 338.929C160.549 341.717 160.095 345.815 163.896 349.989L219.521 411.063C224.094 416.085 234.095 420.429 245.345 422.281L405.918 448.71C413.488 449.956 420.9 449.949 426.634 448.69L578.018 415.445C583.752 414.186 587.374 411.77 588.143 408.693L604.448 343.42C605.591 338.847 600.297 333.469 590.779 329.534L475.012 281.666C467.102 278.396 457.297 276.55 448.554 276.687L272.501 279.434Z" stroke="url(#paint58_linear_1211_33)" stroke-width="4"/>
<path opacity="0.869565" d="M265.863 280.946C259.992 280.932 255.013 281.9 251.666 283.705L151.702 337.612C146.785 340.264 145.861 344.459 149.209 348.927L193.53 408.073C197.823 413.802 208.361 418.982 220.221 421.192L373.244 449.716C380.265 451.025 387.106 451.166 392.519 450.114L548.594 419.776C554.007 418.724 557.632 416.548 558.81 413.646L584.468 350.39C586.457 345.487 581.196 339.282 571.144 334.673L467.351 287.087C459.51 283.492 449.808 281.362 441.185 281.343L265.863 280.946Z" stroke="url(#paint59_linear_1211_33)" stroke-width="4"/>
<path opacity="0.884058" d="M259.191 282.74C253.894 282.633 249.323 283.412 246.055 284.979L138.618 336.483C133.398 338.985 131.983 343.256 134.799 348.008L168.465 404.804C172.32 411.309 183.313 417.457 195.733 420.056L340.967 450.444C347.432 451.797 353.716 452.06 358.807 451.192L519.006 423.883C524.097 423.015 527.699 421.066 529.232 418.35L563.668 357.333C566.613 352.115 561.487 344.966 550.954 339.6L458.977 292.745C451.281 288.825 441.768 286.416 433.309 286.246L259.191 282.74Z" stroke="url(#paint60_linear_1211_33)" stroke-width="4"/>
<path opacity="0.898551" d="M252.429 284.814C247.655 284.632 243.459 285.252 240.29 286.606L125.831 335.541C120.352 337.883 118.429 342.208 120.636 347.224L144.407 401.273C147.637 408.615 158.951 415.873 171.864 418.885L309.118 450.902C315.031 452.282 320.782 452.645 325.557 451.939L489.29 427.762C494.066 427.057 497.623 425.32 499.458 422.796L542.051 364.222C546.058 358.712 541.207 350.499 530.281 344.294L449.843 298.613C442.377 294.373 433.139 291.696 424.884 291.382L252.429 284.814Z" stroke="url(#paint61_linear_1211_33)" stroke-width="4"/>
<path opacity="0.913043" d="M245.527 287.165C241.221 286.923 237.364 287.408 234.306 288.576L113.308 334.787C107.614 336.961 105.17 341.311 106.691 346.563L121.446 397.516C123.827 405.74 135.269 414.246 148.584 417.69L277.726 451.102C283.103 452.493 288.354 452.935 292.825 452.373L459.484 431.414C463.956 430.852 467.451 429.31 469.537 426.981L519.634 371.028C524.799 365.259 520.409 355.867 509.222 348.751L439.907 304.659C432.762 300.114 423.883 297.188 415.867 296.738L245.527 287.165Z" stroke="url(#paint62_linear_1211_33)" stroke-width="4"/>
<path opacity="0.927536" d="M238.433 289.786C234.542 289.496 230.985 289.868 228.04 290.873L101.02 334.215C95.1526 336.217 92.1793 340.562 92.9477 346.01L99.6599 393.599C100.946 402.718 112.244 412.588 125.845 416.475L246.821 451.054C251.689 452.446 256.478 452.95 260.666 452.512L429.621 434.841C433.809 434.403 437.235 433.04 439.526 430.899L496.454 377.714C502.855 371.734 499.166 361.068 487.905 352.993L429.133 310.849C422.404 306.024 413.961 302.873 406.212 302.295L238.433 289.786Z" stroke="url(#paint63_linear_1211_33)" stroke-width="4"/>
<path opacity="0.942029" d="M231.101 292.668C227.568 292.338 224.271 292.615 221.43 293.48L88.9438 333.819C82.9392 335.647 79.4325 339.955 79.3951 345.55L79.1001 389.63C79.0334 399.61 89.8348 410.908 103.582 415.237L216.426 450.771C220.824 452.156 225.2 452.71 229.134 452.38L399.733 438.047C403.666 437.717 407.024 436.513 409.483 434.552L472.576 384.236C480.262 378.107 477.574 366.128 466.483 357.085L417.497 317.145C411.28 312.076 403.338 308.73 395.87 308.034L231.101 292.668Z" stroke="url(#paint64_linear_1211_33)" stroke-width="4"/>
<path opacity="0.956522" d="M223.489 295.797C220.256 295.434 217.173 295.63 214.421 296.376L77.0673 333.587C70.9502 335.245 66.9101 339.485 66.0317 345.169L59.7583 385.764C58.098 396.507 67.9835 409.205 81.7088 413.957L186.566 450.267C190.542 451.645 194.561 452.24 198.276 452.003L369.85 441.04C373.565 440.803 376.866 439.74 379.468 437.942L448.098 390.547C457.081 384.344 455.74 371.101 445.119 361.142L404.99 323.512C399.371 318.242 391.977 314.733 384.793 313.926L223.489 295.797Z" stroke="url(#paint65_linear_1211_33)" stroke-width="4"/>
<path opacity="0.971014" d="M215.557 299.158C212.567 298.764 209.65 298.892 206.96 299.538L65.3873 333.508C59.1689 335 54.5969 339.143 52.8632 344.857L41.535 382.194C38.0953 393.532 46.617 407.468 60.1324 412.61L157.263 449.559C160.873 450.933 164.594 451.566 168.135 451.41L339.998 443.829C343.539 443.673 346.806 442.731 349.542 441.078L423.162 396.597C433.406 390.407 433.767 376.079 423.95 365.326L391.618 329.915C386.67 324.495 379.851 320.855 372.938 319.942L215.557 299.158Z" stroke="url(#paint66_linear_1211_33)" stroke-width="4"/>
<path opacity="0.985507" d="M207.275 302.736C204.469 302.308 201.667 302.377 199.005 302.939L53.9085 333.568C47.5843 334.903 42.4809 338.926 39.8985 344.611L24.2212 379.126C18.9114 390.815 25.6631 405.682 38.7689 411.158L128.537 448.665C131.838 450.044 135.325 450.716 138.744 450.632L310.198 446.424C313.617 446.34 316.883 445.502 319.758 443.971L397.939 402.342C409.353 396.264 411.719 381.174 403.037 369.827L377.401 336.327C373.178 330.808 366.938 327.064 360.27 326.048L207.275 302.736Z" stroke="url(#paint67_linear_1211_33)" stroke-width="4"/>
<path d="M198.615 306.512C195.936 306.048 193.196 306.062 190.522 306.554L42.6367 333.763C36.188 334.949 30.5523 338.831 27.1459 344.434L7.51864 376.716C0.372362 388.469 5.07256 403.826 17.5733 409.566L100.407 447.603C103.454 449.002 106.769 449.718 110.122 449.701L280.469 448.833C283.822 448.816 287.13 448.067 290.162 446.636L372.604 407.758C385.046 401.89 389.589 386.487 382.324 374.807L362.369 342.727C358.905 337.159 353.23 333.334 346.77 332.213L198.615 306.512Z" stroke="url(#paint68_linear_1211_33)" stroke-width="4"/>
<defs>
<linearGradient id="paint0_linear_1211_33" x1="1715.14" y1="412.203" x2="1642.06" y2="-16.4839" gradientUnits="userSpaceOnUse">
<stop stop-color="#FF1CF7"/>
<stop offset="1" stop-color="#00F0FF"/>
</linearGradient>
<linearGradient id="paint1_linear_1211_33" x1="1668.83" y1="416.783" x2="1607.01" y2="-1.90592" gradientUnits="userSpaceOnUse">
<stop stop-color="#FF1CF7"/>
<stop offset="1" stop-color="#00F0FF"/>
</linearGradient>
<linearGradient id="paint2_linear_1211_33" x1="1622.47" y1="420.807" x2="1570.95" y2="11.1153" gradientUnits="userSpaceOnUse">
<stop stop-color="#FF1CF7"/>
<stop offset="1" stop-color="#00F0FF"/>
</linearGradient>
<linearGradient id="paint3_linear_1211_33" x1="1576.12" y1="424.278" x2="1534.12" y2="22.6332" gradientUnits="userSpaceOnUse">
<stop stop-color="#FF1CF7"/>
<stop offset="1" stop-color="#00F0FF"/>
</linearGradient>
<linearGradient id="paint4_linear_1211_33" x1="1529.88" y1="427.203" x2="1496.74" y2="32.6986" gradientUnits="userSpaceOnUse">
<stop stop-color="#FF1CF7"/>
<stop offset="1" stop-color="#00F0FF"/>
</linearGradient>
<linearGradient id="paint5_linear_1211_33" x1="1486.5" y1="429.308" x2="1461.69" y2="41.0811" gradientUnits="userSpaceOnUse">
<stop stop-color="#FF1CF7"/>
<stop offset="1" stop-color="#00F0FF"/>
</linearGradient>
<linearGradient id="paint6_linear_1211_33" x1="1440.7" y1="431.16" x2="1423.81" y2="48.3855" gradientUnits="userSpaceOnUse">
<stop stop-color="#FF1CF7"/>
<stop offset="1" stop-color="#00F0FF"/>
</linearGradient>
<linearGradient id="paint7_linear_1211_33" x1="1395.23" y1="432.492" x2="1385.95" y2="54.3748" gradientUnits="userSpaceOnUse">
<stop stop-color="#FF1CF7"/>
<stop offset="1" stop-color="#00F0FF"/>
</linearGradient>
<linearGradient id="paint8_linear_1211_33" x1="1350.18" y1="433.313" x2="1348.27" y2="59.088" gradientUnits="userSpaceOnUse">
<stop stop-color="#FF1CF7"/>
<stop offset="1" stop-color="#00F0FF"/>
</linearGradient>
<linearGradient id="paint9_linear_1211_33" x1="1307.39" y1="433.452" x2="1312.71" y2="62.3753" gradientUnits="userSpaceOnUse">
<stop stop-color="#FF1CF7"/>
<stop offset="1" stop-color="#00F0FF"/>
</linearGradient>
<linearGradient id="paint10_linear_1211_33" x1="1263.36" y1="433.294" x2="1275.86" y2="64.6421" gradientUnits="userSpaceOnUse">
<stop stop-color="#FF1CF7"/>
<stop offset="1" stop-color="#00F0FF"/>
</linearGradient>
<linearGradient id="paint11_linear_1211_33" x1="1219.95" y1="432.67" x2="1239.65" y2="65.732" gradientUnits="userSpaceOnUse">
<stop stop-color="#FF1CF7"/>
<stop offset="1" stop-color="#00F0FF"/>
</linearGradient>
<linearGradient id="paint12_linear_1211_33" x1="1177.22" y1="431.596" x2="1204.21" y2="65.6725" gradientUnits="userSpaceOnUse">
<stop stop-color="#FF1CF7"/>
<stop offset="1" stop-color="#00F0FF"/>
</linearGradient>
<linearGradient id="paint13_linear_1211_33" x1="1135.23" y1="430.09" x2="1169.7" y2="64.4884" gradientUnits="userSpaceOnUse">
<stop stop-color="#FF1CF7"/>
<stop offset="1" stop-color="#00F0FF"/>
</linearGradient>
<linearGradient id="paint14_linear_1211_33" x1="1095.81" y1="427.985" x2="1138.05" y2="62.0163" gradientUnits="userSpaceOnUse">
<stop stop-color="#FF1CF7"/>
<stop offset="1" stop-color="#00F0FF"/>
</linearGradient>
<linearGradient id="paint15_linear_1211_33" x1="1055.45" y1="425.675" x2="1105.83" y2="58.6502" gradientUnits="userSpaceOnUse">
<stop stop-color="#FF1CF7"/>
<stop offset="1" stop-color="#00F0FF"/>
</linearGradient>
<linearGradient id="paint16_linear_1211_33" x1="1015.99" y1="422.993" x2="1074.99" y2="54.2248" gradientUnits="userSpaceOnUse">
<stop stop-color="#FF1CF7"/>
<stop offset="1" stop-color="#00F0FF"/>
</linearGradient>
<linearGradient id="paint17_linear_1211_33" x1="977.463" y1="419.963" x2="1045.7" y2="48.7613" gradientUnits="userSpaceOnUse">
<stop stop-color="#FF1CF7"/>
<stop offset="1" stop-color="#00F0FF"/>
</linearGradient>
<linearGradient id="paint18_linear_1211_33" x1="939.922" y1="416.606" x2="1018.14" y2="42.2834" gradientUnits="userSpaceOnUse">
<stop stop-color="#FF1CF7"/>
<stop offset="1" stop-color="#00F0FF"/>
</linearGradient>
<linearGradient id="paint19_linear_1211_33" x1="903.401" y1="412.945" x2="992.499" y2="34.8196" gradientUnits="userSpaceOnUse">
<stop stop-color="#FF1CF7"/>
<stop offset="1" stop-color="#00F0FF"/>
</linearGradient>
<linearGradient id="paint20_linear_1211_33" x1="867.934" y1="409.006" x2="969.01" y2="26.4069" gradientUnits="userSpaceOnUse">
<stop stop-color="#FF1CF7"/>
<stop offset="1" stop-color="#00F0FF"/>
</linearGradient>
<linearGradient id="paint21_linear_1211_33" x1="836.222" y1="404.533" x2="950.594" y2="16.8168" gradientUnits="userSpaceOnUse">
<stop stop-color="#FF1CF7"/>
<stop offset="1" stop-color="#00F0FF"/>
</linearGradient>
<linearGradient id="paint22_linear_1211_33" x1="802.947" y1="400.11" x2="932.193" y2="6.68098" gradientUnits="userSpaceOnUse">
<stop stop-color="#FF1CF7"/>
<stop offset="1" stop-color="#00F0FF"/>
</linearGradient>
<linearGradient id="paint23_linear_1211_33" x1="770.802" y1="395.482" x2="916.814" y2="-4.17363" gradientUnits="userSpaceOnUse">
<stop stop-color="#FF1CF7"/>
<stop offset="1" stop-color="#00F0FF"/>
</linearGradient>
<linearGradient id="paint24_linear_1211_33" x1="739.806" y1="390.676" x2="904.844" y2="-15.5902" gradientUnits="userSpaceOnUse">
<stop stop-color="#FF1CF7"/>
<stop offset="1" stop-color="#00F0FF"/>
</linearGradient>
<linearGradient id="paint25_linear_1211_33" x1="709.971" y1="385.716" x2="896.735" y2="-27.3365" gradientUnits="userSpaceOnUse">
<stop stop-color="#FF1CF7"/>
<stop offset="1" stop-color="#00F0FF"/>
</linearGradient>
<linearGradient id="paint26_linear_1211_33" x1="681.308" y1="380.629" x2="893.007" y2="-39.0696" gradientUnits="userSpaceOnUse">
<stop stop-color="#FF1CF7"/>
<stop offset="1" stop-color="#00F0FF"/>
</linearGradient>
<linearGradient id="paint27_linear_1211_33" x1="653.822" y1="375.44" x2="894.25" y2="-50.2858" gradientUnits="userSpaceOnUse">
<stop stop-color="#FF1CF7"/>
<stop offset="1" stop-color="#00F0FF"/>
</linearGradient>
<linearGradient id="paint28_linear_1211_33" x1="627.514" y1="370.175" x2="901.108" y2="-60.2502" gradientUnits="userSpaceOnUse">
<stop stop-color="#FF1CF7"/>
<stop offset="1" stop-color="#00F0FF"/>
</linearGradient>
<linearGradient id="paint29_linear_1211_33" x1="602.382" y1="364.859" x2="914.236" y2="-67.9043" gradientUnits="userSpaceOnUse">
<stop stop-color="#FF1CF7"/>
<stop offset="1" stop-color="#00F0FF"/>
</linearGradient>
<linearGradient id="paint30_linear_1211_33" x1="578.419" y1="359.517" x2="934.203" y2="-71.7538" gradientUnits="userSpaceOnUse">
<stop stop-color="#FF1CF7"/>
<stop offset="1" stop-color="#00F0FF"/>
</linearGradient>
<linearGradient id="paint31_linear_1211_33" x1="555.615" y1="354.174" x2="961.314" y2="-69.7486" gradientUnits="userSpaceOnUse">
<stop stop-color="#FF1CF7"/>
<stop offset="1" stop-color="#00F0FF"/>
</linearGradient>
<linearGradient id="paint32_linear_1211_33" x1="533.956" y1="348.853" x2="995.288" y2="-59.2098" gradientUnits="userSpaceOnUse">
<stop stop-color="#FF1CF7"/>
<stop offset="1" stop-color="#00F0FF"/>
</linearGradient>
<linearGradient id="paint33_linear_1211_33" x1="513.425" y1="343.58" x2="1034.8" y2="-36.8994" gradientUnits="userSpaceOnUse">
<stop stop-color="#FF1CF7"/>
<stop offset="1" stop-color="#00F0FF"/>
</linearGradient>
<linearGradient id="paint34_linear_1211_33" x1="494" y1="338.377" x2="1076.88" y2="0.59023" gradientUnits="userSpaceOnUse">
<stop stop-color="#FF1CF7"/>
<stop offset="1" stop-color="#00F0FF"/>
</linearGradient>
<linearGradient id="paint35_linear_1211_33" x1="477.439" y1="333.079" x2="1118.23" y2="55.7465" gradientUnits="userSpaceOnUse">
<stop stop-color="#FF1CF7"/>
<stop offset="1" stop-color="#00F0FF"/>
</linearGradient>
<linearGradient id="paint36_linear_1211_33" x1="460.151" y1="328.083" x2="1148.19" y2="129.436" gradientUnits="userSpaceOnUse">
<stop stop-color="#FF1CF7"/>
<stop offset="1" stop-color="#00F0FF"/>
</linearGradient>
<linearGradient id="paint37_linear_1211_33" x1="443.887" y1="323.221" x2="1160.71" y2="218.269" gradientUnits="userSpaceOnUse">
<stop stop-color="#FF1CF7"/>
<stop offset="1" stop-color="#00F0FF"/>
</linearGradient>
<linearGradient id="paint38_linear_1211_33" x1="428.612" y1="318.515" x2="1149.68" y2="314.842" gradientUnits="userSpaceOnUse">
<stop stop-color="#FF1CF7"/>
<stop offset="1" stop-color="#00F0FF"/>
</linearGradient>
<linearGradient id="paint39_linear_1211_33" x1="414.291" y1="313.983" x2="1113.33" y2="409.067" gradientUnits="userSpaceOnUse">
<stop stop-color="#FF1CF7"/>
<stop offset="1" stop-color="#00F0FF"/>
</linearGradient>
<linearGradient id="paint40_linear_1211_33" x1="400.884" y1="309.643" x2="1055.21" y2="491.355" gradientUnits="userSpaceOnUse">
<stop stop-color="#FF1CF7"/>
<stop offset="1" stop-color="#00F0FF"/>
</linearGradient>
<linearGradient id="paint41_linear_1211_33" x1="388.349" y1="305.514" x2="982.612" y2="555.555" gradientUnits="userSpaceOnUse">
<stop stop-color="#FF1CF7"/>
<stop offset="1" stop-color="#00F0FF"/>
</linearGradient>
<linearGradient id="paint42_linear_1211_33" x1="376.644" y1="301.61" x2="903.785" y2="599.966" gradientUnits="userSpaceOnUse">
<stop stop-color="#FF1CF7"/>
<stop offset="1" stop-color="#00F0FF"/>
</linearGradient>
<linearGradient id="paint43_linear_1211_33" x1="365.721" y1="297.948" x2="825.536" y2="626.378" gradientUnits="userSpaceOnUse">
<stop stop-color="#FF1CF7"/>
<stop offset="1" stop-color="#00F0FF"/>
</linearGradient>
<linearGradient id="paint44_linear_1211_33" x1="355.534" y1="294.54" x2="752.296" y2="638.349" gradientUnits="userSpaceOnUse">
<stop stop-color="#FF1CF7"/>
<stop offset="1" stop-color="#00F0FF"/>
</linearGradient>
<linearGradient id="paint45_linear_1211_33" x1="346.033" y1="291.4" x2="686.285" y2="639.761" gradientUnits="userSpaceOnUse">
<stop stop-color="#FF1CF7"/>
<stop offset="1" stop-color="#00F0FF"/>
</linearGradient>
<linearGradient id="paint46_linear_1211_33" x1="337.166" y1="288.539" x2="628.148" y2="634.026" gradientUnits="userSpaceOnUse">
<stop stop-color="#FF1CF7"/>
<stop offset="1" stop-color="#00F0FF"/>
</linearGradient>
<linearGradient id="paint47_linear_1211_33" x1="328.883" y1="285.967" x2="577.603" y2="623.809" gradientUnits="userSpaceOnUse">
<stop stop-color="#FF1CF7"/>
<stop offset="1" stop-color="#00F0FF"/>
</linearGradient>
<linearGradient id="paint48_linear_1211_33" x1="321.128" y1="283.694" x2="533.919" y2="611.048" gradientUnits="userSpaceOnUse">
<stop stop-color="#FF1CF7"/>
<stop offset="1" stop-color="#00F0FF"/>
</linearGradient>
<linearGradient id="paint49_linear_1211_33" x1="313.849" y1="281.726" x2="496.208" y2="597.083" gradientUnits="userSpaceOnUse">
<stop stop-color="#FF1CF7"/>
<stop offset="1" stop-color="#00F0FF"/>
</linearGradient>
<linearGradient id="paint50_linear_1211_33" x1="306.991" y1="280.071" x2="463.583" y2="582.81" gradientUnits="userSpaceOnUse">
<stop stop-color="#FF1CF7"/>
<stop offset="1" stop-color="#00F0FF"/>
</linearGradient>
<linearGradient id="paint51_linear_1211_33" x1="300.498" y1="278.735" x2="435.231" y2="568.806" gradientUnits="userSpaceOnUse">
<stop stop-color="#FF1CF7"/>
<stop offset="1" stop-color="#00F0FF"/>
</linearGradient>
<linearGradient id="paint52_linear_1211_33" x1="294.315" y1="277.719" x2="410.441" y2="555.432" gradientUnits="userSpaceOnUse">
<stop stop-color="#FF1CF7"/>
<stop offset="1" stop-color="#00F0FF"/>
</linearGradient>
<linearGradient id="paint53_linear_1211_33" x1="288.387" y1="277.029" x2="388.603" y2="542.902" gradientUnits="userSpaceOnUse">
<stop stop-color="#FF1CF7"/>
<stop offset="1" stop-color="#00F0FF"/>
</linearGradient>
<linearGradient id="paint54_linear_1211_33" x1="282.659" y1="276.664" x2="369.203" y2="531.331" gradientUnits="userSpaceOnUse">
<stop stop-color="#FF1CF7"/>
<stop offset="1" stop-color="#00F0FF"/>
</linearGradient>
<linearGradient id="paint55_linear_1211_33" x1="277.074" y1="276.626" x2="351.806" y2="520.773" gradientUnits="userSpaceOnUse">
<stop stop-color="#FF1CF7"/>
<stop offset="1" stop-color="#00F0FF"/>
</linearGradient>
<linearGradient id="paint56_linear_1211_33" x1="271.581" y1="276.912" x2="336.047" y2="511.24" gradientUnits="userSpaceOnUse">
<stop stop-color="#FF1CF7"/>
<stop offset="1" stop-color="#00F0FF"/>
</linearGradient>
<linearGradient id="paint57_linear_1211_33" x1="266.124" y1="277.521" x2="321.615" y2="502.721" gradientUnits="userSpaceOnUse">
<stop stop-color="#FF1CF7"/>
<stop offset="1" stop-color="#00F0FF"/>
</linearGradient>
<linearGradient id="paint58_linear_1211_33" x1="260.651" y1="278.45" x2="308.247" y2="495.186" gradientUnits="userSpaceOnUse">
<stop stop-color="#FF1CF7"/>
<stop offset="1" stop-color="#00F0FF"/>
</linearGradient>
<linearGradient id="paint59_linear_1211_33" x1="255.112" y1="279.694" x2="295.719" y2="488.597" gradientUnits="userSpaceOnUse">
<stop stop-color="#FF1CF7"/>
<stop offset="1" stop-color="#00F0FF"/>
</linearGradient>
<linearGradient id="paint60_linear_1211_33" x1="249.455" y1="281.246" x2="283.834" y2="482.914" gradientUnits="userSpaceOnUse">
<stop stop-color="#FF1CF7"/>
<stop offset="1" stop-color="#00F0FF"/>
</linearGradient>
<linearGradient id="paint61_linear_1211_33" x1="243.633" y1="283.101" x2="272.426" y2="478.092" gradientUnits="userSpaceOnUse">
<stop stop-color="#FF1CF7"/>
<stop offset="1" stop-color="#00F0FF"/>
</linearGradient>
<linearGradient id="paint62_linear_1211_33" x1="237.599" y1="285.251" x2="261.346" y2="474.084" gradientUnits="userSpaceOnUse">
<stop stop-color="#FF1CF7"/>
<stop offset="1" stop-color="#00F0FF"/>
</linearGradient>
<linearGradient id="paint63_linear_1211_33" x1="231.307" y1="287.686" x2="250.464" y2="470.848" gradientUnits="userSpaceOnUse">
<stop stop-color="#FF1CF7"/>
<stop offset="1" stop-color="#00F0FF"/>
</linearGradient>
<linearGradient id="paint64_linear_1211_33" x1="224.715" y1="290.397" x2="239.664" y2="468.339" gradientUnits="userSpaceOnUse">
<stop stop-color="#FF1CF7"/>
<stop offset="1" stop-color="#00F0FF"/>
</linearGradient>
<linearGradient id="paint65_linear_1211_33" x1="217.781" y1="293.374" x2="228.843" y2="466.517" gradientUnits="userSpaceOnUse">
<stop stop-color="#FF1CF7"/>
<stop offset="1" stop-color="#00F0FF"/>
</linearGradient>
<linearGradient id="paint66_linear_1211_33" x1="210.467" y1="296.605" x2="217.909" y2="465.34" gradientUnits="userSpaceOnUse">
<stop stop-color="#FF1CF7"/>
<stop offset="1" stop-color="#00F0FF"/>
</linearGradient>
<linearGradient id="paint67_linear_1211_33" x1="202.736" y1="300.077" x2="206.779" y2="464.769" gradientUnits="userSpaceOnUse">
<stop stop-color="#FF1CF7"/>
<stop offset="1" stop-color="#00F0FF"/>
</linearGradient>
<linearGradient id="paint68_linear_1211_33" x1="194.555" y1="303.778" x2="195.375" y2="464.77" gradientUnits="userSpaceOnUse">
<stop stop-color="#FF1CF7"/>
<stop offset="1" stop-color="#00F0FF"/>
</linearGradient>
</defs>
</svg>
