<svg width="304" height="336" viewBox="0 0 304 336" fill="none" xmlns="http://www.w3.org/2000/svg">
<path fill-rule="evenodd" clip-rule="evenodd" d="M296.368 183.825C292.036 184.25 287.705 184.673 283.375 185.095C262.631 186.673 241.895 189.97 221.31 191.949C220.799 191.118 219.795 191.255 219.186 191.832C217.131 191.653 214.831 190.089 212.969 191.716C212.909 191.707 212.848 191.698 212.788 191.693C209.475 185.359 207.185 178.603 204.962 171.84C203.543 167.681 201.635 163.656 198.108 160.864C192.09 156.703 178.297 148.264 171.23 148.618C171.113 147.359 170.522 146.059 169.555 145.219C171.689 141.595 163.153 139.229 162.551 139.65C162.936 127.539 157.218 117.021 144.605 114.608C133.306 112.264 117.236 111.87 111.159 123.631C110.491 123.557 103.663 123.521 103.002 123.595C101.975 122.299 90.6947 134.577 95.3181 138.851C53.9839 157.063 30.4813 154.89 19.0407 206.089C17.4939 210.898 17.3813 216.161 15.7482 220.864C9.93771 234.376 5.22471 248.767 4.05188 263.47C1.21913 264.193 0.893255 269.169 4.17461 269.888C5.42786 270.163 6.47598 270.539 7.38999 271.253C6.67552 283.303 9.60153 310.828 11.4451 310.743C15.2043 322.659 31.9724 326.023 43.8434 321.835C41.7971 325.67 43.8434 328.081 43.8434 330.129C86.5592 331.74 133.264 330.812 175.968 333.019C181.43 332.943 187.175 334.357 192.563 333.542C195.849 332.757 195.855 327.611 192.522 326.975L207.086 323.825C206.76 323.704 213.088 319.511 217.872 311.676C222.324 302.911 219.293 292.333 221.31 282.799C237.067 281.515 253.083 280.968 268.666 278.309C270.792 284.642 279.989 277.069 282.912 274.022C282.908 274.018 282.905 274.013 282.901 274.009C284.316 273.622 285.451 272.301 285.489 270.738C286.482 269.326 286.689 267.336 285.737 265.972C290.098 240.906 296.748 215.314 299.152 190.013C300.001 189.825 300.8 189.455 301.479 188.882L301.423 188.828C302.573 187.552 302.797 185.349 300.881 184.266C299.336 183.389 298.045 183.66 296.368 183.825Z" fill="#EDB98A"/>
<path fill-rule="evenodd" clip-rule="evenodd" d="M131.641 277.637L134.977 279.752L162.276 288.514L178.959 290.629L192.608 288.514V311.775L195.337 333.527C194.125 335.743 182.599 335.743 160.76 333.527C146.837 332.116 95.9575 331.431 84.373 331.129L83.7168 331.111C70.1039 330.719 56.6566 330.719 43.3752 331.111V322.954L81.2901 304.222L115.262 285.19L131.641 277.637ZM112.299 121.728L114.806 123.593L109.332 132.551L135.998 154.034V171.193L144.439 179.146L149.265 171.193L156.064 162.187L160.897 147.588L159.251 137.969L162.56 137.66C162.576 138.316 162.573 138.98 162.553 139.648C163.155 139.227 171.689 141.593 169.555 145.219C170.524 146.058 171.115 147.357 171.23 148.617C178.299 148.263 192.09 156.701 198.11 160.862C201.636 163.654 203.545 167.68 204.964 171.838L205.298 172.854L205.642 173.895L205.99 174.935C207.91 180.657 209.981 186.325 212.788 191.691C212.849 191.696 212.911 191.707 212.971 191.715C214.83 190.088 217.133 191.651 219.188 191.832C219.783 191.268 220.753 191.123 221.276 191.892L221.312 191.948L195.721 196.969L178.838 255.953L164.134 244.068L156.243 245.236L135.402 252.724L111.163 258.993L55.8286 274.188H48.7819L7.77776 264.325L4.08252 263.111C5.3027 248.532 9.98624 234.266 15.7495 220.863C17.3827 216.16 17.4953 210.897 19.0419 206.087C30.4826 154.889 53.9852 157.063 95.3194 138.85C90.6961 134.575 101.976 122.297 103.003 123.593L103.068 123.588L103.208 123.581L103.389 123.573C105.001 123.526 110.561 123.563 111.16 123.629C111.508 122.957 111.888 122.324 112.299 121.728Z" fill="#C25FFF"/>
<path fill-rule="evenodd" clip-rule="evenodd" d="M300.46 185.615L299.697 189.846C299.517 189.906 299.332 189.954 299.146 189.996C298.906 192.519 298.624 195.044 298.308 197.571L293.581 223.805C292.766 228.447 291.992 233.099 291.224 237.751L290.207 242.749L289.576 245.856C288.215 252.581 286.892 259.287 285.733 265.954C285.907 266.205 286.044 266.478 286.142 266.764L286.053 267.14L285.992 267.391L285.927 267.639C285.012 271.143 283.42 274.541 279.666 275.573C276.836 276.35 273.729 276.421 270.804 276.728L270.481 276.762L219.324 282.492C213.142 283.184 206.963 283.898 200.785 284.619L195.43 285.245C187.965 286.105 180.457 286.783 173.103 288.341C172.832 288.398 172.608 288.507 172.425 288.648C173.907 283.063 175.324 277.487 176.609 271.846C178.055 265.499 179.429 259.138 180.974 252.812C184.092 240.07 187.584 227.411 191.408 214.86C192.211 212.225 193.033 209.597 193.872 206.975L194.461 205.14L194.913 203.68C195.614 201.451 196.482 199.163 198.539 197.934C200.944 196.495 204.226 196.257 206.956 195.76L208.805 195.415C211.57 194.901 214.337 194.406 217.11 193.931C230.382 191.657 243.729 189.833 257.126 188.463C271.066 187.037 285.054 186.112 299.059 185.658L300.46 185.615ZM173.484 273.088L173.616 273.099L171.704 288.314C171.399 288.1 171.012 287.97 170.538 287.972C164.27 287.99 158.262 285.995 152.45 283.8L151.564 283.464L149.097 282.521C146.59 281.563 144.069 280.627 141.499 279.851L140.461 279.539L139.933 279.383C137.989 278.817 135.943 278.304 133.92 278.176L133.644 278.161L134.233 277.854C134.32 277.809 134.395 277.758 134.462 277.704C135.576 277.785 136.691 277.764 137.866 277.552C140.074 277.156 142.222 276.392 144.193 275.325L145.075 274.85L145.435 274.659L145.674 274.536L145.91 274.416C147.604 273.576 149.223 273.05 151.363 273.498C153.791 274.006 155.918 275.309 158.107 276.412L158.495 276.603L158.756 276.73L159.023 276.855L159.292 276.976C162.251 278.302 166.961 279.734 168.096 275.727C168.552 274.116 168.196 272.609 167.404 271.286C168.879 271.159 171.512 272.891 173.484 273.088ZM247.154 222.959L247.19 223.142C247.61 225.387 246.56 227.532 244.971 229.097C243.668 230.381 241.363 231.095 240.711 232.94C240.339 233.992 240.734 234.988 241.497 235.682L241.322 235.769L241.15 235.855L240.982 235.944L240.817 236.034L240.658 236.123C238.065 237.608 235.95 240.021 238.291 242.939C240.946 246.246 246.493 246.355 250.4 246.094L250.664 246.076C254.453 245.794 258.942 244.525 260.997 241.041C261.939 239.443 261.836 237.509 260.522 236.141C259.73 235.315 258.315 234.467 257.019 234.368C257.075 233.639 256.988 232.936 256.732 232.344C256.177 231.062 254.698 230.198 253.271 230.167C253.386 227.445 251.197 224.76 249.587 222.583L249.423 222.359L249.262 222.141C248.522 221.116 246.941 221.689 247.154 222.959Z" fill="white"/>
<path fill-rule="evenodd" clip-rule="evenodd" d="M111.947 120.898C113.234 117.676 117.584 118.928 117.099 122.314C116.809 124.34 115.694 126.481 114.693 128.258C113.878 129.704 112.948 131.116 111.687 132.2C113.931 134.286 116.261 136.296 118.65 138.202C121.257 140.285 123.998 142.204 126.831 143.968C129.316 145.515 131.912 146.885 134.254 148.649C136.432 150.29 138.415 152.264 139.425 154.84C140.501 157.583 140.033 160.416 139.241 163.157L139.151 163.468C138.341 166.183 136.94 169.458 138.883 172.015C139.872 173.319 141.309 174.242 142.549 175.283C143.653 176.209 144.687 177.215 145.637 178.296C147.707 180.653 149.391 183.306 150.452 186.261L150.548 186.529C151.459 189.146 152.124 192.351 150.893 194.919C150.541 195.655 149.402 195.416 149.205 194.698C148.757 193.075 148.78 191.375 148.406 189.726C148.016 188.015 147.367 186.388 146.519 184.85C144.878 181.873 142.657 179.332 140.033 177.183L139.246 176.547C137.199 174.873 135.319 173.096 134.903 170.327C134.459 167.363 135.65 164.542 136.416 161.737C136.951 159.781 137.124 157.909 136.548 156.141C135.843 157.289 134.88 158.377 134.119 159.347C132.604 161.281 131.073 163.203 129.548 165.127C127.983 167.103 126.457 169.109 125.004 171.166C124.354 172.086 123.711 173.013 123.07 173.94C122.588 174.636 121.916 175.332 121.39 176.042C121.518 176.424 121.508 176.861 121.277 177.172C118.491 180.921 114.528 173.098 113.494 171.123C111.389 167.098 109.822 162.821 107.71 158.796C105.522 154.625 103.03 150.565 100.252 146.757C98.5721 144.452 96.6891 142.289 95.1521 139.912C91.5315 143.182 86.7668 145.374 82.3905 147.362C77.5823 149.546 72.5868 151.33 67.6569 153.226L66.2007 153.788C57.7062 157.09 49.0042 160.717 41.9438 166.582C33.6471 173.474 28.7389 183.08 25.0848 193.028C20.8783 204.478 17.3983 216.239 14.1543 227.993C12.4942 234.006 10.9191 240.046 9.43826 246.107C8.13349 251.446 7.05176 256.837 5.54131 262.122C8.60469 262.014 12.0988 263.196 14.7143 263.535C26.6343 265.09 38.394 267.568 49.6482 271.857C51.0383 272.386 51.4405 273.769 51.1377 274.89C51.9395 274.664 52.7405 274.436 53.5421 274.212C52.6639 272.871 53.083 270.476 53.1521 268.99L53.1564 268.887C53.2273 266.908 53.4431 264.925 53.5828 262.95C53.849 259.183 54.1957 255.444 54.6566 251.699L54.7742 250.761C55.2966 246.687 55.6826 242.588 56.2527 238.519L56.3199 238.055C56.0466 237.014 55.7285 235.985 55.3945 234.962C54.5046 232.235 53.2486 229.668 52.1479 227.028C52.0179 226.717 52.4627 226.54 52.6704 226.726C54.5346 228.396 56.0154 230.514 57.205 232.732C57.2256 232.627 57.2439 232.522 57.2654 232.417L57.4011 231.752C57.7358 230.129 58.1431 228.421 59.1427 227.105C59.2492 226.964 59.4596 226.935 59.5604 227.105C60.5171 228.717 60.6241 230.76 60.7712 232.594C60.9377 234.669 60.9586 236.771 60.9292 238.852C60.8719 242.92 60.584 246.998 60.3548 251.059C60.1298 255.05 59.688 258.988 59.1187 262.941L59.0104 263.682C58.7321 265.562 58.5042 267.467 58.1371 269.334L58.0333 269.841C57.8372 270.769 57.7165 272.074 57.3257 273.16C67.3771 270.367 77.444 267.638 87.5301 264.958C94.8197 263.02 102.117 261.112 109.411 259.19C109.796 258.5 110.275 257.855 110.873 257.276C112.844 255.377 115.456 254.529 117.851 255.991C118.046 256.111 118.062 256.414 117.851 256.53C117.392 256.779 116.932 257.036 116.481 257.303L120.861 256.121C124.134 255.238 127.447 254.133 130.799 253.517C136.969 250.484 143.608 248.288 150.109 246.117L150.875 245.861C154.204 244.729 157.648 243.464 161.087 242.837C163.605 242.38 166.56 242.933 167.572 245.501C168.854 246.343 170.059 247.332 171.223 248.304C172.065 249.007 172.871 249.754 173.692 250.482L173.844 250.614C174.514 251.193 175.044 251.581 175.21 252.503C175.295 252.98 174.99 253.624 174.4 253.56C172.595 253.369 171.127 251.285 169.904 250.04C168.958 249.078 168.004 248.084 167.142 247.027C166.638 247.299 165.949 247.251 165.627 246.647C163.966 243.513 159.417 245.684 156.899 246.426L153.294 247.491C151.49 248.022 149.688 248.557 147.888 249.101C142.943 250.598 138.021 252.272 133.031 253.645C133.477 254.135 133.416 255.004 132.568 255.335C128.662 256.861 124.377 257.65 120.319 258.699C117.756 259.36 115.196 260.025 112.636 260.696C112.197 261.405 111.881 262.205 111.749 263.138C111.26 266.566 112.202 270.523 113.12 273.839L113.258 274.335C114.013 277.001 115.122 280.27 117.432 281.953C117.996 282.363 118.714 282.651 119.438 282.714C123.959 280.397 128.481 278.078 133.005 275.764C133.842 275.336 134.618 275.916 134.806 276.607C136.4 276.346 137.992 275.936 139.442 275.444C141.876 274.622 143.779 273.05 146.062 271.963C150.481 269.861 154.993 272.444 158.947 274.407L159.86 274.853C161.633 275.71 165.324 277.357 166.175 275.012C166.999 272.744 164.396 270.32 162.716 269.299C160.711 268.081 158.378 267.43 156.113 266.888C154.821 266.577 153.512 266.324 152.195 266.14C150.702 265.93 149.158 265.963 147.721 265.48C147.006 265.242 146.895 264.11 147.721 263.924C149.934 263.422 152.576 263.969 154.886 264.528L156.093 264.824C158.421 265.393 160.771 266.107 162.891 267.242C164.433 268.068 166.059 269.321 167.122 270.855C168.046 270.002 169.193 270.031 170.39 270.348L171.041 270.528C172.112 270.823 172.982 271.027 174.025 270.823C174.166 270.066 174.306 269.31 174.458 268.553C175.944 261.117 177.576 253.709 179.374 246.342C182.48 233.632 186.071 221.063 190.121 208.621L190.526 207.377C191.461 204.533 192.212 201.433 193.718 198.818C195.142 196.347 197.423 194.923 200.134 194.169C203.211 193.312 206.444 192.866 209.582 192.287C210.281 192.159 210.984 192.036 211.684 191.91C211.093 190.845 210.65 189.636 210.252 188.709L210.182 188.548C209.327 186.605 208.559 184.628 207.816 182.641L207.261 181.147C205.922 177.548 204.539 174.009 202.656 170.644C200.673 167.101 198.043 164.206 194.765 161.809C188.081 156.922 180.023 154.429 173.54 149.206C173.274 148.993 173.614 148.628 173.884 148.763C178.263 150.954 182.987 152.443 187.542 154.227L188.44 154.579C192.039 156 195.694 157.547 198.81 159.848C202.282 162.415 205.018 165.599 207.073 169.389C209.099 173.123 210.395 177.304 211.825 181.293L212.208 182.356C212.784 183.95 213.379 185.538 214.062 187.089C214.604 188.32 215.615 189.726 216.074 191.132C217.332 190.916 218.588 190.699 219.846 190.489C247.105 185.956 274.668 183.292 302.293 182.513C303.374 182.482 303.932 183.511 303.773 184.449C301.122 200.063 298.766 215.729 296.182 231.355C295.052 238.174 293.903 244.988 292.724 251.8C292.128 255.25 291.437 258.688 290.874 262.144C290.416 264.934 290.086 267.747 289.303 270.472C288.6 272.918 287.523 275.275 285.751 277.14C283.843 279.15 281.179 280.122 278.498 280.583C271.691 281.749 264.71 282.226 257.847 283.003L221.314 287.142C221.847 291.975 221.887 296.734 221.643 301.623L221.502 304.293C221.388 306.44 221.252 308.591 220.941 310.714C220.554 313.38 219.329 315.638 217.527 317.628C215.871 319.457 213.86 321.016 211.902 322.511C209.871 324.064 207.772 325.562 205.385 326.522L205.074 326.645C202.979 327.46 199.05 328.721 196.187 328.259C196.561 330.128 197.284 332.136 196.642 333.985C196.344 334.843 195.218 335.27 194.528 334.54C193.16 333.094 193.053 331.181 192.729 329.293C192.391 327.328 192.102 325.356 191.844 323.379C191.345 319.558 190.956 315.701 190.837 311.846C190.716 307.887 190.763 303.924 190.976 299.971C191.086 297.939 191.222 295.91 191.482 293.893C191.593 293.032 191.705 292.172 191.833 291.314C191.88 291.001 191.932 290.688 191.988 290.377L188.71 290.746C183.682 291.306 178.652 291.811 173.587 291.888C172.989 291.897 172.526 291.626 172.226 291.23C171.904 291.751 171.344 292.123 170.543 292.121C163.473 292.094 156.887 289.792 150.456 287.077C147.213 285.709 144.022 284.227 140.775 282.871C137.744 281.604 134.506 280.7 131.549 279.274L123.777 283.334C123.72 283.534 123.647 283.722 123.569 283.88C123.063 284.91 122.066 285.467 121.047 285.888C120.069 286.291 119.056 286.417 118.07 286.314C112.176 289.39 106.281 292.465 100.382 295.53L94.4817 298.594C82.7263 304.69 71.0174 310.886 59.1879 316.84L58.3169 317.275C54.2311 319.316 49.8436 321.385 45.3092 322.929C45.2286 324.071 45.2794 325.184 45.3755 326.394L45.3988 326.657C45.5338 328.087 45.8238 329.878 44.6723 330.896C44.0731 331.425 43.0031 331.427 42.5957 330.63C41.8565 329.182 42.5202 326.9 42.7542 325.327C42.8374 324.769 42.9388 324.194 43.0886 323.635C37.8903 325.177 32.5346 325.925 27.2447 325.06C22.0943 324.217 18.1053 320.986 14.8896 317.033C11.4956 312.861 9.08401 308.001 7.79009 302.789C6.31741 296.86 6.22126 290.735 6.25578 284.662C6.29265 278.194 6.53285 271.694 7.32269 265.271C6.4573 265.066 5.49757 264.891 4.62314 264.952C4.18991 265.643 3.34982 265.934 2.59053 265.843C0.939644 267.656 5.12723 269.511 6.46544 269.975C6.93012 270.136 6.88042 270.888 6.34452 270.864L6.0069 270.848C3.93904 270.74 1.80268 270.387 0.586837 268.473C-0.387356 266.939 -0.094735 265.122 1.06671 263.872C1.83377 256.647 3.66757 249.613 5.37448 242.566C7.04941 235.649 8.91195 228.777 10.8864 221.938L11.7714 218.878C14.88 208.156 18.1292 197.348 22.4171 187.053C24.5581 181.913 27.0247 176.867 30.3682 172.384C33.4849 168.205 37.1645 164.63 41.394 161.576C49.2788 155.883 58.5307 152.443 67.6211 149.166L68.0281 149.018C72.739 147.321 77.4382 145.604 82.0954 143.766C86.2143 142.139 90.16 140.077 94.2594 138.427C94.1264 138.186 93.9977 137.942 93.8739 137.696L93.7982 137.76C93.7852 137.77 93.772 137.78 93.758 137.789C93.346 138.074 92.739 137.933 92.3992 137.615C91.44 136.713 91.7648 135.712 92.405 134.777L92.4883 134.658C93.2715 133.565 93.9701 132.41 94.693 131.278L95.1456 130.57C96.3589 128.677 97.6339 126.774 99.2515 125.211C100.001 124.486 100.821 123.944 101.69 123.541C101.616 123.384 102.267 123.064 102.452 123.224C105.205 122.221 108.373 122.431 111.374 122.708M219.546 287.343L215.718 287.776C211.507 288.254 207.294 288.714 203.08 289.172L193.928 290.162C193.904 290.683 193.841 291.191 193.83 291.583C193.77 293.605 193.725 295.63 193.684 297.654C193.599 301.71 193.691 305.771 193.958 309.82C194.219 313.743 194.562 317.667 195.094 321.564L195.202 322.343L195.265 322.752C195.699 322.795 196.126 322.999 196.48 323.422C197.255 324.342 200.057 323.447 201.152 323.059C202.952 322.421 204.647 321.344 206.213 320.263C207.74 319.207 209.115 317.976 210.437 316.68L211.517 315.614C212.595 314.55 213.672 313.415 214.33 312.075C215.224 310.259 215.34 308.03 215.602 306.051C215.924 303.618 216.309 301.186 216.716 298.765M108.423 261.802L108.026 261.905C93.6028 265.722 79.2012 269.652 64.7338 273.301C57.5741 275.106 50.3806 276.782 43.2122 278.553L42.0517 278.842C36.3967 280.265 30.6737 281.978 26.3431 286.065C26.1834 286.215 25.9513 285.983 26.1017 285.824C30.7689 280.876 37.4066 278.781 43.7801 276.964C44.9582 276.628 46.1377 276.301 47.3161 275.967C38.6485 272.889 29.8441 270.212 20.8363 268.302C18.5169 267.81 16.1705 267.448 13.8527 266.955C12.2363 266.612 10.6579 266.113 9.05853 265.701L7.80057 265.384L7.78394 269.344C7.76298 274.953 7.77291 280.558 8.06029 286.166L8.1147 287.205C8.44979 293.444 8.97304 299.816 11.1965 305.7C13.0034 310.481 15.8835 314.987 19.6498 318.47C21.5555 320.232 23.6046 321.604 26.1373 322.282C28.4889 322.909 30.9528 322.983 33.3702 322.815C44.9658 322.011 55.2877 315.735 65.3604 310.541C81.8358 302.046 98.3131 293.553 114.805 285.091C114.359 284.787 113.939 284.436 113.557 284.044C111.346 281.769 110.179 278.654 109.413 275.638C108.598 272.428 108.11 268.987 108.053 265.674M129.407 288.369C129.553 288.292 129.721 288.389 129.729 288.554C129.779 289.808 129.083 291.044 128.563 292.176L128.508 292.297C127.876 293.696 127.184 295.077 126.469 296.436C125.039 299.152 123.552 301.84 122.001 304.49C118.882 309.82 115.416 314.924 111.318 319.563C110.393 320.613 108.871 319.269 109.465 318.139C112.328 312.699 115.666 307.562 119.102 302.469C120.822 299.919 122.541 297.367 124.278 294.829C125.003 293.77 125.737 292.714 126.491 291.675L126.945 291.053M300.467 185.631C285.994 186.064 271.536 187.006 257.131 188.479C243.736 189.849 230.389 191.673 217.117 193.947C214.344 194.422 211.575 194.915 208.81 195.429L207.151 195.74C204.385 196.262 201.007 196.477 198.546 197.948C195.948 199.501 195.247 202.743 194.383 205.416C193.367 208.561 192.379 211.713 191.415 214.875C187.591 227.425 184.097 240.084 180.981 252.828C179.434 259.152 178.062 265.513 176.615 271.862C175.331 277.501 173.912 283.079 172.432 288.662C172.615 288.521 172.839 288.414 173.108 288.357C180.463 286.799 187.97 286.121 195.435 285.259L196.158 285.176C203.879 284.27 211.602 283.374 219.329 282.508L270.486 276.778C273.504 276.44 276.736 276.393 279.673 275.587C284.663 274.215 285.834 268.658 286.671 264.231L286.697 264.098C289.222 250.721 291.231 237.23 293.586 223.821M173.621 273.115C171.635 272.983 168.917 271.172 167.411 271.302C168.201 272.623 168.559 274.132 168.102 275.743C166.835 280.223 161.096 277.904 158.333 276.536C156.066 275.412 153.877 274.038 151.369 273.512C148.527 272.918 146.601 274.044 144.2 275.341C142.229 276.406 140.08 277.171 137.871 277.568C136.698 277.778 135.581 277.801 134.468 277.718C134.401 277.772 134.325 277.823 134.24 277.868L133.651 278.175C136.313 278.298 139.026 279.117 141.506 279.865C144.074 280.643 146.595 281.579 149.104 282.535L151.571 283.48C157.657 285.801 163.957 288.006 170.543 287.986C171.017 287.984 171.406 288.116 171.711 288.329M162.51 259.075C164.471 258.834 166.282 259.091 167.85 260.363C169.741 261.898 171.012 264.443 173.73 264.609C174.522 264.658 174.706 265.768 173.918 265.999C171.895 266.595 170.258 265.506 168.879 264.09L167.952 263.125C166.589 261.721 165.333 260.635 163.021 260.718C160.545 260.808 158.065 261.377 155.605 261.668C152.82 261.996 150.033 262.276 147.239 262.518C147.109 262.529 147.087 262.324 147.208 262.296L150.338 261.518M160.615 251.084L160.939 251.052C163.787 250.777 166.394 250.766 168.938 252.293L169.426 252.586C171.72 253.976 174.218 255.612 175.653 257.86C175.888 258.229 175.499 258.661 175.107 258.569C172.349 257.909 170.334 255.894 168.015 254.386C165.412 252.693 162.723 252.973 159.757 253.235C156.883 253.49 154.011 253.84 151.166 254.316C148.493 254.764 145.813 255.471 143.112 255.697V255.691C142.803 255.691 142.628 255.229 142.943 255.073C145.683 253.71 148.856 253.065 151.837 252.442M63.0491 173.915C63.0455 173.691 63.3625 173.608 63.4733 173.801C65.3271 177.049 66.2963 181.033 67.2838 184.611C68.318 188.36 69.1531 192.148 69.9033 195.962C71.4226 203.688 72.2322 211.368 72.2871 219.241C72.2947 220.365 70.4558 220.665 70.276 219.514C69.0819 211.854 67.9378 204.187 66.7346 196.531C66.1291 192.68 65.4244 188.844 64.7502 185.005M81.4024 179.574C81.266 179.126 81.9204 178.976 82.088 179.386C85.8083 188.483 87.0685 198.79 84.6798 208.388C84.3143 209.855 82.1556 209.219 82.4312 207.77M129.392 171.491C129.373 171.157 129.81 171.103 129.974 171.334C131.738 173.808 132.469 177.121 135.563 178.399C137.106 179.039 138.845 178.927 140.208 180.006C141.121 180.727 141.82 181.864 141.135 182.958C140.915 183.31 140.296 183.487 139.996 183.104C139.559 182.544 139.328 181.875 138.733 181.457C137.896 180.866 136.765 180.83 135.805 180.552C134.562 180.194 133.466 179.565 132.57 178.632M158.844 130.228C159.027 130.136 159.2 130.196 159.316 130.351C159.482 130.573 159.462 130.79 159.258 130.944C159.531 131.497 159.851 132.881 159.896 133.082C160.082 133.899 160.279 134.711 160.487 135.522C160.903 137.16 161.268 138.808 161.685 140.445C162.128 142.181 162.654 143.898 163.242 145.589C163.279 145.7 163.321 145.812 163.364 145.926L163.431 146.095L163.448 146.07C163.567 145.882 163.814 146.014 163.786 146.211C163.758 146.392 163.721 146.573 163.69 146.753L163.751 146.914C164.134 147.943 164.398 149.025 163.693 149.933C163.431 150.272 163.14 150.473 162.781 150.533C162.2 152.434 161.476 154.297 160.699 156.089L160.471 156.613C159.327 159.226 158.107 161.804 156.287 164.029C154.298 166.458 151.564 168.117 149.832 170.777C149.026 172.015 148.466 173.319 148.01 174.716L147.839 175.247C147.517 176.236 147.145 177.194 146.212 177.774C145.916 177.96 145.471 177.9 145.231 177.647C143.32 175.636 145.319 171.878 146.472 169.93C148.072 167.22 150.389 165.487 152.71 163.443C155.211 161.24 156.805 158.294 158.349 155.389C159.294 153.611 160.207 151.792 161.167 150.007C160.164 149.123 159.842 147.368 159.502 146.148L159.471 146.039C158.909 144.086 158.463 142.081 158.181 140.068C157.91 138.132 157.796 136.225 157.868 134.279L157.888 133.783M162.576 139.441C162.354 139.137 162.721 138.793 163.025 138.857C164.875 139.238 166.683 140.353 168.344 141.255L168.521 141.351C169.846 142.063 171.18 142.934 171.876 144.317C172.633 145.821 172.57 147.55 172.467 149.184L172.458 149.338C172.331 151.295 172.309 153.33 171.894 155.254C171.68 156.239 170.786 156.515 170.021 156.284C169.11 159.147 166.553 161.256 164.684 163.517C162.302 166.398 162.75 170.288 162.999 173.756C163.099 175.162 161.346 175.562 160.442 174.812L158.36 173.089C158.013 172.802 157.666 172.513 157.32 172.223C157.024 171.976 156.731 171.726 156.44 171.473L156.006 171.092C155.813 170.92 154.964 169.975 154.716 169.935C154.114 169.839 152.684 171.419 152.195 171.914L152.133 171.976C151.213 172.876 150.38 173.843 149.605 174.869C149.464 175.059 149.184 174.902 149.287 174.683C149.981 173.203 150.788 171.786 151.746 170.459L151.94 170.195C152.578 169.34 153.435 167.828 154.561 167.575C155.936 167.267 157.308 168.639 158.309 169.402L158.372 169.451C158.848 169.805 159.318 170.168 159.788 170.532C159.739 167.949 160.066 165.339 161.405 163.112C162.349 161.542 163.764 160.379 164.975 159.029C166.323 157.527 167.026 155.68 168.246 154.117C168.403 153.914 168.62 153.806 168.854 153.771C168.901 152.514 169.087 151.245 169.231 149.999L169.273 149.627C169.417 148.275 169.761 146.623 169.096 145.358C168.469 144.161 167.028 143.317 165.962 142.506L165.091 141.834M102.544 125.144C101.987 125.466 101.467 125.865 100.995 126.364C99.5079 127.935 98.445 129.888 97.4108 131.768C96.8538 132.782 96.317 133.805 95.7556 134.815C95.5114 135.255 95.2602 135.69 95.0062 136.124C94.8889 136.325 94.5401 136.722 94.3671 136.966C94.5593 137.236 94.7579 137.499 94.9605 137.76C95.0379 137.859 100.37 143.645 102.229 145.909C105.076 149.378 107.62 153.041 109.795 156.963C111.925 160.804 113.546 164.869 115.52 168.784C116.507 170.743 117.61 172.69 119.016 174.385C119.07 174.452 119.128 174.513 119.183 174.58C119.72 173.136 121.094 171.589 121.77 170.701L121.833 170.618C123.364 168.562 124.982 166.568 126.634 164.607C128.143 162.818 129.691 161.066 131.276 159.344L131.872 158.698C132.976 157.511 134.379 155.733 135.997 154.883C135.823 154.576 135.623 154.272 135.393 153.972C133.877 152 131.737 150.569 129.624 149.278L128.253 148.449C123.088 145.313 118.004 142.034 113.52 137.96C111.147 135.804 108.808 133.547 106.814 131.032L106.109 130.145M111.162 123.593C108.743 123.796 106.132 123.747 103.897 124.531C105.883 126.404 107.772 128.423 109.713 130.326C109.885 129.039 110.238 127.768 110.537 126.514" fill="black"/>
<path fill-rule="evenodd" clip-rule="evenodd" d="M181.784 45.055C182.113 41.9962 178.527 33.8357 178.612 35.4911C172.861 26.6395 161.637 23.1586 151.953 20.2366C131.395 13.4628 115.341 21.6437 100.896 36.1427C92.3688 44.0933 84.2546 52.9744 79.9737 63.9806C71.5523 84.9765 84.1756 108.917 103.372 118.948C104.921 119.785 106.61 120.579 108.085 121.589C116.021 126.165 125.339 127.749 134.182 129.74C150.725 133.514 171.502 131.716 181.251 115.995C187.864 104.839 186.107 91.3135 185.59 78.9319C184.811 68.0834 183.447 55.8239 181.784 45.055Z" fill="#EDB98A"/>
<mask id="path-6-inside-1_40_51" fill="white">
<path fill-rule="evenodd" clip-rule="evenodd" d="M93.3566 14.0945C104.074 4.09411 119.916 -0.752814 134.399 0.0948604C142.245 0.554123 149.805 2.51588 156.894 5.88652C159.112 6.9406 161.271 8.17451 163.263 9.62731C164.608 10.2532 165.922 10.9306 167.194 11.6672C173.569 15.3528 178.496 20.9355 181.65 27.5577C183.155 30.7185 184.345 34.0516 185.017 37.4858L185.126 38.051C185.469 39.7743 186.147 42.0448 185.288 43.6574C184.719 44.7266 183.528 45.4006 182.398 45.3099C182.644 46.3009 182.937 47.2915 183.125 48.2889L183.636 51.0078C183.721 51.4609 183.804 51.9142 183.888 52.3673C184.381 55.0681 184.835 57.7657 185.198 60.4876C185.957 66.1555 186.644 71.8351 187.249 77.5239C187.683 81.5922 188.09 85.6648 188.486 89.7364L188.721 92.1791C189.127 96.3842 189.445 100.626 189.169 104.85C188.753 111.186 186.801 116.966 183.013 121.667C183.372 122.535 183.495 123.511 183.766 124.588C184.142 126.079 184.632 127.539 185.154 128.987C185.398 129.555 185.642 130.124 185.885 130.695L186.521 132.206L187.018 133.197C187.555 134.274 188.075 135.367 188.404 136.482C190.546 137.625 192.296 139.486 192.381 142.037C192.456 144.341 191.258 146.783 189.232 147.958C187.235 149.118 185.178 148.661 183.264 147.775C181.596 148.26 179.81 148.321 178.158 147.802C176.886 148.952 175.246 149.745 173.426 149.96C170.684 150.286 168.082 149.519 165.566 148.511L165.39 148.44C165.311 148.41 165.233 148.377 165.157 148.344C162.264 148.205 159.383 147.063 157.329 145.039C156.661 144.384 156.082 143.634 155.618 142.794C153.924 139.739 153.662 135.991 155.327 132.962C154.969 132.976 154.609 132.991 154.251 133C149.489 133.135 144.719 132.893 139.967 132.58L138.849 132.504C135.774 132.284 131.241 131.763 131.155 127.961C131.142 127.474 131.644 127.109 132.105 127.239C133.851 127.731 135.568 128.505 137.377 128.783C139.745 129.148 142.196 129.188 144.587 129.32L145.276 129.359C150.098 129.622 155.092 129.782 159.836 128.828C163.377 128.118 167.068 126.825 170.312 125.224C173.426 123.682 176.257 121.667 178.539 119.037C183.566 113.248 184.233 105.082 183.987 97.7591C183.69 89.0127 182.66 80.2791 182.08 71.5452L181.818 67.6215C181.601 64.3493 181.402 61.0727 181.321 57.7991C181.26 55.4095 181.299 53.0138 181.312 50.624C181.317 49.4308 181.303 48.2314 181.33 47.038C181.344 46.3674 181.424 45.7119 181.48 45.056C181.214 44.9173 180.967 44.7236 180.743 44.4671C180.567 44.2647 180.43 44.0501 180.336 43.8327C179.208 43.503 178.684 43.0651 177.952 42.0714C177.334 41.2346 176.634 40.4612 175.888 39.736C174.296 38.1954 172.476 36.9355 170.554 35.8385C166.58 33.5701 162.228 32.0535 157.839 30.8087C151.119 28.9055 144.139 27.9266 137.32 26.3977C135.44 29.0139 133.448 31.5519 131.366 34.0082C124.867 41.6696 117.416 48.5 109.431 54.5908C107.806 55.8325 106.159 57.0561 104.488 58.243C102.288 61.5923 100.063 64.9255 97.806 68.2363L96.8365 69.6539L96.8214 69.6812C96.6882 69.8836 96.5607 70.0859 96.434 70.2883C96.1645 70.7174 95.862 71.1313 95.541 71.5331C95.3322 71.838 95.1204 72.1431 94.9055 72.4485C95.3171 72.6686 95.6925 72.9166 95.986 73.1915C96.5853 73.7563 96.4852 74.6539 95.986 75.2278C94.3758 77.0827 91.8271 74.6658 89.9747 74.0224C87.9679 74.6324 86.2943 77.0164 85.4618 78.8377C84.2633 81.4633 83.782 84.6292 84.3239 87.4721C84.8198 90.0702 86.158 92.3152 88.3827 93.723C88.4614 93.771 88.5458 93.8226 88.6278 93.8676C88.6309 93.8741 88.6309 93.8741 88.634 93.8706C88.7095 93.9191 88.7883 93.9646 88.8669 94.0069C89.9113 94.5809 91.0584 94.9193 92.2477 95.0006C92.9286 95.0492 93.6403 95.0127 94.3213 95.0944C95.0205 95.1758 95.5956 95.4964 96.2676 95.6656C97.0092 95.8555 97.4874 96.8498 97.0209 97.5171C96.7912 97.8464 96.5732 98.1609 96.3399 98.4419C97.1059 99.3422 97.7715 100.336 98.3741 101.281C99.1972 102.577 99.9268 103.952 100.593 105.354C101.207 106.161 101.794 106.982 102.363 107.822C105.587 112.59 108.054 117.9 109.57 123.451C111.072 128.94 112.01 135.105 110.621 140.71C109.34 145.865 105.602 150.132 100.069 150.407C98.9145 150.465 97.7787 150.336 96.7109 150.043C94.3651 151.489 91.4582 152.216 88.8566 152.301C86.7519 152.37 84.4478 151.929 82.729 150.658C80.6899 151.544 78.4778 152.046 76.5543 152.16C74.4019 152.288 72.1493 151.703 70.3947 150.544C68.7252 151.972 66.9236 153.176 64.8767 154.003C61.3564 155.422 57.1674 155.247 53.9438 153.123C50.7142 150.996 49.0707 147.179 50.0574 143.389C50.9654 139.897 53.8197 137.336 56.5015 135.131L57.0312 134.697C59.684 132.535 62.3629 130.444 64.0655 127.398C65.8724 124.169 66.5323 120.416 66.7108 116.762C67.0983 108.713 65.4578 100.738 64.9584 92.732C64.4438 84.4632 64.7314 76.1701 65.8603 67.9618C68.0548 52.0168 73.8299 36.3856 84.2783 23.9566C85.79 22.1583 87.408 20.4439 89.1133 18.8193C90.4166 17.1178 91.8253 15.5229 93.3566 14.0945ZM232.341 105.136C232.398 105.139 232.453 105.143 232.503 105.164C232.539 105.178 232.568 105.201 232.594 105.227L232.848 105.481C232.941 105.571 232.933 105.71 232.848 105.801C232.774 105.884 232.641 105.886 232.554 105.822L232.529 105.801L232.265 105.538C232.236 105.507 232.21 105.473 232.198 105.43C232.187 105.387 232.187 105.339 232.183 105.294C232.18 105.212 232.259 105.136 232.341 105.136ZM90.3293 80.4541C92.7569 79.7195 95.6686 81.466 97.1154 83.309C97.8418 84.2333 98.0477 85.4993 97.1154 86.4086C96.3223 87.182 94.7727 87.3237 94.0069 86.4086C93.1382 85.3662 92.4299 83.9219 91.1889 83.2546C89.8421 82.5295 88.0381 82.7108 87.7201 84.4779C87.6657 84.7772 87.2359 84.6773 87.2177 84.4087C87.0997 82.6202 88.6707 80.9522 90.3293 80.4541Z"/>
</mask>
<path fill-rule="evenodd" clip-rule="evenodd" d="M93.3566 14.0945C104.074 4.09411 119.916 -0.752814 134.399 0.0948604C142.245 0.554123 149.805 2.51588 156.894 5.88652C159.112 6.9406 161.271 8.17451 163.263 9.62731C164.608 10.2532 165.922 10.9306 167.194 11.6672C173.569 15.3528 178.496 20.9355 181.65 27.5577C183.155 30.7185 184.345 34.0516 185.017 37.4858L185.126 38.051C185.469 39.7743 186.147 42.0448 185.288 43.6574C184.719 44.7266 183.528 45.4006 182.398 45.3099C182.644 46.3009 182.937 47.2915 183.125 48.2889L183.636 51.0078C183.721 51.4609 183.804 51.9142 183.888 52.3673C184.381 55.0681 184.835 57.7657 185.198 60.4876C185.957 66.1555 186.644 71.8351 187.249 77.5239C187.683 81.5922 188.09 85.6648 188.486 89.7364L188.721 92.1791C189.127 96.3842 189.445 100.626 189.169 104.85C188.753 111.186 186.801 116.966 183.013 121.667C183.372 122.535 183.495 123.511 183.766 124.588C184.142 126.079 184.632 127.539 185.154 128.987C185.398 129.555 185.642 130.124 185.885 130.695L186.521 132.206L187.018 133.197C187.555 134.274 188.075 135.367 188.404 136.482C190.546 137.625 192.296 139.486 192.381 142.037C192.456 144.341 191.258 146.783 189.232 147.958C187.235 149.118 185.178 148.661 183.264 147.775C181.596 148.26 179.81 148.321 178.158 147.802C176.886 148.952 175.246 149.745 173.426 149.96C170.684 150.286 168.082 149.519 165.566 148.511L165.39 148.44C165.311 148.41 165.233 148.377 165.157 148.344C162.264 148.205 159.383 147.063 157.329 145.039C156.661 144.384 156.082 143.634 155.618 142.794C153.924 139.739 153.662 135.991 155.327 132.962C154.969 132.976 154.609 132.991 154.251 133C149.489 133.135 144.719 132.893 139.967 132.58L138.849 132.504C135.774 132.284 131.241 131.763 131.155 127.961C131.142 127.474 131.644 127.109 132.105 127.239C133.851 127.731 135.568 128.505 137.377 128.783C139.745 129.148 142.196 129.188 144.587 129.32L145.276 129.359C150.098 129.622 155.092 129.782 159.836 128.828C163.377 128.118 167.068 126.825 170.312 125.224C173.426 123.682 176.257 121.667 178.539 119.037C183.566 113.248 184.233 105.082 183.987 97.7591C183.69 89.0127 182.66 80.2791 182.08 71.5452L181.818 67.6215C181.601 64.3493 181.402 61.0727 181.321 57.7991C181.26 55.4095 181.299 53.0138 181.312 50.624C181.317 49.4308 181.303 48.2314 181.33 47.038C181.344 46.3674 181.424 45.7119 181.48 45.056C181.214 44.9173 180.967 44.7236 180.743 44.4671C180.567 44.2647 180.43 44.0501 180.336 43.8327C179.208 43.503 178.684 43.0651 177.952 42.0714C177.334 41.2346 176.634 40.4612 175.888 39.736C174.296 38.1954 172.476 36.9355 170.554 35.8385C166.58 33.5701 162.228 32.0535 157.839 30.8087C151.119 28.9055 144.139 27.9266 137.32 26.3977C135.44 29.0139 133.448 31.5519 131.366 34.0082C124.867 41.6696 117.416 48.5 109.431 54.5908C107.806 55.8325 106.159 57.0561 104.488 58.243C102.288 61.5923 100.063 64.9255 97.806 68.2363L96.8365 69.6539L96.8214 69.6812C96.6882 69.8836 96.5607 70.0859 96.434 70.2883C96.1645 70.7174 95.862 71.1313 95.541 71.5331C95.3322 71.838 95.1204 72.1431 94.9055 72.4485C95.3171 72.6686 95.6925 72.9166 95.986 73.1915C96.5853 73.7563 96.4852 74.6539 95.986 75.2278C94.3758 77.0827 91.8271 74.6658 89.9747 74.0224C87.9679 74.6324 86.2943 77.0164 85.4618 78.8377C84.2633 81.4633 83.782 84.6292 84.3239 87.4721C84.8198 90.0702 86.158 92.3152 88.3827 93.723C88.4614 93.771 88.5458 93.8226 88.6278 93.8676C88.6309 93.8741 88.6309 93.8741 88.634 93.8706C88.7095 93.9191 88.7883 93.9646 88.8669 94.0069C89.9113 94.5809 91.0584 94.9193 92.2477 95.0006C92.9286 95.0492 93.6403 95.0127 94.3213 95.0944C95.0205 95.1758 95.5956 95.4964 96.2676 95.6656C97.0092 95.8555 97.4874 96.8498 97.0209 97.5171C96.7912 97.8464 96.5732 98.1609 96.3399 98.4419C97.1059 99.3422 97.7715 100.336 98.3741 101.281C99.1972 102.577 99.9268 103.952 100.593 105.354C101.207 106.161 101.794 106.982 102.363 107.822C105.587 112.59 108.054 117.9 109.57 123.451C111.072 128.94 112.01 135.105 110.621 140.71C109.34 145.865 105.602 150.132 100.069 150.407C98.9145 150.465 97.7787 150.336 96.7109 150.043C94.3651 151.489 91.4582 152.216 88.8566 152.301C86.7519 152.37 84.4478 151.929 82.729 150.658C80.6899 151.544 78.4778 152.046 76.5543 152.16C74.4019 152.288 72.1493 151.703 70.3947 150.544C68.7252 151.972 66.9236 153.176 64.8767 154.003C61.3564 155.422 57.1674 155.247 53.9438 153.123C50.7142 150.996 49.0707 147.179 50.0574 143.389C50.9654 139.897 53.8197 137.336 56.5015 135.131L57.0312 134.697C59.684 132.535 62.3629 130.444 64.0655 127.398C65.8724 124.169 66.5323 120.416 66.7108 116.762C67.0983 108.713 65.4578 100.738 64.9584 92.732C64.4438 84.4632 64.7314 76.1701 65.8603 67.9618C68.0548 52.0168 73.8299 36.3856 84.2783 23.9566C85.79 22.1583 87.408 20.4439 89.1133 18.8193C90.4166 17.1178 91.8253 15.5229 93.3566 14.0945ZM232.341 105.136C232.398 105.139 232.453 105.143 232.503 105.164C232.539 105.178 232.568 105.201 232.594 105.227L232.848 105.481C232.941 105.571 232.933 105.71 232.848 105.801C232.774 105.884 232.641 105.886 232.554 105.822L232.529 105.801L232.265 105.538C232.236 105.507 232.21 105.473 232.198 105.43C232.187 105.387 232.187 105.339 232.183 105.294C232.18 105.212 232.259 105.136 232.341 105.136ZM90.3293 80.4541C92.7569 79.7195 95.6686 81.466 97.1154 83.309C97.8418 84.2333 98.0477 85.4993 97.1154 86.4086C96.3223 87.182 94.7727 87.3237 94.0069 86.4086C93.1382 85.3662 92.4299 83.9219 91.1889 83.2546C89.8421 82.5295 88.0381 82.7108 87.7201 84.4779C87.6657 84.7772 87.2359 84.6773 87.2177 84.4087C87.0997 82.6202 88.6707 80.9522 90.3293 80.4541Z" fill="black" stroke="#ECEBEB" stroke-opacity="0.78" stroke-width="2" mask="url(#path-6-inside-1_40_51)"/>
<path fill-rule="evenodd" clip-rule="evenodd" d="M155.175 110.851C153.136 110.022 151.316 108.641 149.986 106.875C149.525 106.261 149.404 105.613 149.502 105.02C149.61 104.354 150.006 103.75 150.546 103.344C151.088 102.938 151.764 102.738 152.42 102.84C152.99 102.928 153.556 103.239 154.004 103.883L154.098 104.011C154.889 105.077 155.92 105.951 157.093 106.515C158.224 107.058 159.491 107.311 160.8 107.164C163.294 106.883 165.015 105.539 166.842 103.715C167.068 103.484 167.294 103.247 167.521 103.005C167.666 102.787 167.865 102.646 168.087 102.572C168.333 102.49 168.611 102.495 168.866 102.584C169.112 102.669 169.332 102.831 169.481 103.046C169.62 103.251 169.699 103.504 169.674 103.796C169.506 105.687 168.514 107.374 167.104 108.699C165.539 110.172 163.462 111.189 161.508 111.547C159.356 111.939 157.161 111.657 155.175 110.851ZM162.524 81.6793C164.814 83.0659 168.304 86.2994 165.84 89.7372C162.94 92.7684 158.765 89.2928 156.706 87.7211C154.799 86.5029 152.655 89.6358 154.425 91.0583C169.294 102.023 175.329 82.0418 163.682 80.0488C162.401 79.8292 161.924 81.2502 162.524 81.6793ZM135.877 68.9242C136.13 65.7954 140.915 65.0849 141.39 68.181C141.816 70.9543 141.314 73.502 140.061 75.9989C138.861 78.3844 135.85 77.2715 135.622 75.0994C135.317 72.1877 135.72 70.8704 135.877 68.9242ZM172.295 67.5386C172.962 66.6687 173.925 66.0746 175.08 66.4103C178.684 67.4597 177.621 72.5571 176.356 75.0383C175.667 76.3857 173.444 76.7273 172.439 75.5409C170.802 73.6063 170.017 69.7426 172.1 67.8369C172.156 67.7384 172.219 67.639 172.295 67.5386ZM140.009 55.2336L140.578 55.1342C142.341 54.8308 144.531 54.5392 145.776 55.9499C146.438 56.6978 146.666 58.0882 145.776 58.8042C144.215 60.0639 142.487 59.5757 140.615 59.6824C139.071 59.7706 137.587 60.0251 136.101 60.4482C132.839 61.3766 130.182 63.0714 127.397 64.9324C127.031 65.1765 126.658 64.711 126.833 64.3704C128.441 61.2337 131.558 58.657 134.677 57.0864C136.344 56.2479 138.167 55.5526 140.009 55.2336ZM169.009 53.8285L169.444 53.9173C174.187 54.9049 180.349 56.8775 182.595 61.5176C182.682 62.1737 182.59 62.3143 182.517 62.4063L182.492 62.4369C182.433 62.5153 182.384 62.6234 182.098 62.7129C182.019 62.6939 181.939 62.674 181.858 62.6529C180.828 62.3843 180.014 62.0139 179.224 61.6299L178.369 61.2104C177.379 60.7258 176.378 60.2589 175.317 59.9143C173.054 59.179 170.726 58.661 168.362 58.3845C167.849 58.3245 167.355 58.1522 166.967 57.8571C166.596 57.5769 166.314 57.1889 166.186 56.6732C166.019 56.0059 166.066 55.5006 166.426 54.8985C166.697 54.4463 167.084 54.1329 167.527 53.9531C167.98 53.7696 168.496 53.7262 169.009 53.8285Z" fill="black"/>
</svg>
